<svg width="48" height="45" viewBox="0 0 48 45" fill="none" xmlns="http://www.w3.org/2000/svg">
<g clip-path="url(#clip0_2877_287)">
<path d="M8.57559 26.3603C7.61734 26.1625 6.75945 25.9909 5.90395 25.8074C4.72585 25.5548 3.58598 25.1783 2.5417 24.5729C1.12941 23.7507 0.204617 22.5805 0.0253927 20.9123C-0.0654143 20.0686 0.0970824 19.2559 0.357555 18.4599C0.787694 17.1444 1.49742 15.9766 2.33141 14.8803C3.79149 12.9594 5.50488 11.284 7.39988 9.7992C12.2246 6.02415 17.5057 3.10229 23.4201 1.38874C26.4216 0.518858 29.4779 -0.0912516 32.606 0.0112278C36.2598 0.13039 39.7367 0.966908 42.7381 3.20715C45.9307 5.58801 47.6202 8.78871 47.9428 12.7401C48.2487 16.477 47.2976 19.9613 45.8065 23.3289C44.7598 25.6907 43.3475 27.8332 41.6843 29.8065C38.2241 33.9152 34.2596 37.4615 29.7193 40.3476C26.4478 42.4258 22.9303 43.9272 19.1092 44.666C17.1473 45.0473 15.1782 45.1308 13.1948 44.7661C9.59836 44.106 7.05577 41.6345 6.29824 38.0311C5.72473 35.2999 5.98759 32.6307 6.97213 30.0353C7.36881 28.9867 7.86347 27.9762 8.31512 26.9466C8.38203 26.7917 8.45133 26.6392 8.5732 26.358M34.9072 27.297C34.7471 26.9204 34.5607 26.7083 34.1401 26.6749C31.0049 26.4414 27.8697 26.5439 24.7345 26.6082C20.4474 26.6964 16.1604 26.8179 11.8757 26.582C11.2879 26.5486 10.8792 26.725 10.6283 27.2612C10.0285 28.5434 9.34984 29.7946 8.84084 31.1125C7.96862 33.3575 7.59822 35.6931 8.05942 38.0883C8.5971 40.8791 10.2197 42.7427 12.9726 43.5626C14.772 44.0964 16.612 44.0082 18.4401 43.7747C21.4845 43.3838 24.3306 42.3614 27.0548 40.9768C31.134 38.9057 34.6826 36.1102 37.9636 32.9595C40.5898 30.4357 42.8959 27.6592 44.6068 24.4204C46.5974 20.6477 47.7445 16.6868 47.3454 12.3755C47.1566 10.345 46.5425 8.45505 45.3859 6.76295C43.8756 4.5513 41.7918 3.05939 39.3496 2.02507C37.077 1.06224 34.673 0.792931 32.2404 0.716667C29.9726 0.647553 27.7478 1.00742 25.5493 1.52697C19.9958 2.83775 14.9584 5.29249 10.2985 8.5337C7.69619 10.3426 5.27069 12.3612 3.25382 14.8255C2.26928 16.0266 1.47114 17.3398 0.997983 18.8269C0.290645 21.0505 1.08879 22.9046 3.1654 23.9795C4.69239 24.7707 6.35799 25.0329 8.01402 25.3689C8.79783 25.5286 9.30443 25.326 9.71784 24.623C10.1743 23.846 10.7215 23.1168 11.2711 22.397C15.3288 17.0776 20.3016 12.702 25.6258 8.70291C26.0727 8.36687 26.6844 8.21911 27.2412 8.0642C27.6259 7.95696 27.9748 8.16906 28.1541 8.53132C28.3309 8.8888 28.2831 9.25821 27.9868 9.54658C27.6522 9.86831 27.3057 10.1805 26.9425 10.4689C25.8122 11.3674 24.6556 12.2325 23.5396 13.15C20.0316 16.029 16.741 19.1367 13.8328 22.6282C13.1924 23.398 12.6165 24.2226 12.031 25.0353C11.8877 25.2355 11.6487 25.4428 11.8638 25.8408C12.356 25.8408 12.8937 25.8193 13.429 25.8456C17.8116 26.0481 22.1942 26.0553 26.5817 26.0052C28.957 25.979 31.3347 26.0338 33.71 26.0839C34.1401 26.0934 34.5894 26.1911 34.9956 26.3437C35.5477 26.551 35.5309 26.8704 34.9168 27.297" fill="#1F2026"/>
</g>
<defs>
<clipPath id="clip0_2877_287">
<rect width="48" height="45" fill="white"/>
</clipPath>
</defs>
</svg>
