<svg width="211" height="78" viewBox="0 0 211 78" fill="none" xmlns="http://www.w3.org/2000/svg">
<path fill-rule="evenodd" clip-rule="evenodd" d="M69.6413 32.5976C67.4903 38.3044 64.0662 43.221 59.9398 47.567C56.1206 51.7373 51.8624 55.4687 47.2531 58.7611C41.8536 62.5364 36.1029 65.3898 29.6937 66.8384C26.7086 67.4969 23.7236 67.8042 20.7385 67.3652C16.9632 66.9262 13.8025 65.3458 11.5198 62.0974C10.0273 59.9024 9.28098 57.3124 9.10539 54.6785C8.7542 51.0789 9.41266 47.6548 10.7296 44.3185C11.2125 43.0016 11.7832 41.7724 12.4855 40.4994C13.0123 39.5775 12.9245 39.5775 12.0027 39.358C10.8174 39.0946 9.63217 38.919 8.44691 38.6556C6.82267 38.2605 5.33013 37.7337 3.83758 36.8997C0.545197 35.012 -0.64006 32.0269 0.325705 28.2956C0.940283 26.1885 2.08164 24.2569 3.3986 22.501C5.85691 19.2525 8.84199 16.443 12.0027 13.9847C16.5242 10.6045 21.2653 7.66333 26.3575 5.33671C32.196 2.7467 38.1662 0.902968 44.4436 0.244492C46.6385 0.0249997 48.8335 -0.10669 50.2821 0.112802C55.4621 0.551786 59.6764 1.82483 63.4516 4.41484C68.4122 7.92672 71.2217 12.6678 71.7924 18.7696C72.2752 23.5985 71.2656 28.1639 69.6413 32.5976ZM71.1339 20.2183C70.9583 14.2481 68.6755 9.37536 63.8467 5.73179C60.0276 2.8784 55.6377 1.42975 50.6772 1.16636C48.5701 0.902971 46.2435 0.946872 43.9168 1.21026C35.9273 2.13213 28.5085 4.98553 21.4847 8.89249C18.0168 10.824 14.7683 13.0189 11.6515 15.5211C8.88589 17.76 6.25199 20.2183 4.05707 23.1595C2.87181 24.7837 1.86213 26.5835 1.29145 28.559C0.457379 31.6758 1.42316 34.0902 4.10096 35.8022C4.97893 36.2412 5.85689 36.6363 6.77875 36.9875C8.62249 37.6021 10.554 37.9093 12.5295 38.2605C13.4074 38.3922 13.8025 38.1727 14.2415 37.4703C16.173 34.4853 18.368 31.6319 20.7385 28.9541C25.26 23.9496 30.2644 19.5159 35.5322 15.2578C36.4541 14.5115 37.376 13.853 38.2978 13.1506C38.9563 12.6677 39.7465 12.2727 40.6245 12.141C41.2829 12.0093 41.8536 12.2727 42.117 12.7994C42.3804 13.2823 42.3365 13.853 41.8097 14.3798C41.4146 14.8188 41.0195 15.1261 40.6245 15.4773C39.8343 16.0479 38.9563 16.6625 38.0784 17.321C34.1275 20.5695 30.1327 23.8618 26.4892 27.5932C23.4602 30.6222 20.5629 33.739 18.1046 37.2948C17.051 38.919 17.2266 38.8312 18.8947 38.8312C21.792 38.9629 24.7332 39.1824 27.6305 39.0946C29.6937 39.0946 31.757 39.1824 33.7763 39.1824C37.1126 39.1824 40.4927 39.0946 43.8729 39.0946C45.7606 39.0946 47.6921 39.0946 49.6236 39.1824C50.5016 39.1824 51.2918 39.2263 52.1259 39.4897C52.3892 39.5775 52.7404 39.7092 52.916 39.9726C53.1355 40.3676 52.916 40.631 52.6526 40.8066C52.5209 40.9383 52.2136 41.0261 52.2136 40.7627C52.0819 39.8409 51.3357 40.1043 50.8089 40.0165C46.9897 39.7092 43.2145 39.8848 39.4392 39.8848C35.9273 39.8848 32.4154 40.1043 28.9475 40.1043C25.1137 40.1628 21.2799 40.0896 17.4461 39.8848C16.6998 39.8409 16.3047 40.1043 15.9974 40.6749C15.3828 41.7724 14.7683 42.826 14.2415 44.0112C12.6172 47.6548 11.4759 51.3423 11.7393 55.4687C12.1344 61.4389 15.7779 65.3458 21.7481 66.0043C24.2064 66.1799 26.577 66.0482 28.9036 65.6531C34.3031 64.6874 39.3075 62.5364 43.9168 59.7708C48.3067 57.1369 52.2575 53.9323 56.0328 50.4204C59.8081 46.8646 63.3199 42.9577 65.9977 38.3922C69.2901 32.7293 71.2656 26.803 71.1339 20.2183Z" fill="#231F20"/>
<path d="M77.4991 47.1719C77.2357 46.2061 77.0601 45.9867 76.0066 46.1183C74.514 46.3378 73.0653 48.3133 73.2848 49.7619C73.4165 50.8155 74.3384 51.4301 75.3042 51.035C76.5333 50.6399 77.5869 49.1034 77.5869 47.7865C77.5869 47.6548 77.4991 47.4353 77.4991 47.1719Z" fill="#231F20"/>
<path fill-rule="evenodd" clip-rule="evenodd" d="M154.541 3.27348C154.409 3.93196 154.058 4.54654 153.751 5.07332C152.829 6.65366 151.688 8.05841 150.502 9.37536C146.112 13.9847 141.02 17.4966 135.84 20.8768C126.183 27.1103 116.13 32.6854 106.165 38.3044C103.136 40.0165 100.107 41.7724 97.034 43.5283C95.5853 44.3185 95.1902 44.8014 94.3123 46.7768C94.9269 46.9085 95.4536 46.6451 95.9365 46.5134C99.8874 45.6794 103.882 45.2843 107.833 44.9331C111.345 44.6697 114.945 44.7136 118.456 44.7136C120.432 44.6697 122.363 44.8453 124.251 45.2843C124.909 45.416 125.524 45.6794 126.139 45.855C126.665 46.0744 127.061 46.3378 127.456 46.7768C127.719 47.128 128.114 47.4353 127.763 47.9182C127.368 48.445 127.104 47.8304 126.841 47.567C126.183 46.9963 125.392 46.7329 124.602 46.6012C123.593 46.3817 122.539 46.2062 121.529 46.2062C119.115 46.2062 116.657 46.1183 114.198 46.25C107.921 46.5134 101.687 47.3914 95.5414 48.7523C94.9707 48.9278 94.5318 49.0595 94.0489 49.1034C92.8636 49.1912 92.1612 49.8936 91.5028 50.9472C89.3517 54.6785 87.1129 58.2343 85.1814 62.0974C84.6546 63.0631 84.0839 63.9411 84.2156 65.2142C84.3473 65.7409 83.8205 65.9165 83.3816 65.6092C82.9865 65.2581 82.9426 64.8191 82.9865 64.2923C83.1182 63.4582 83.4694 62.7558 83.8205 62.0974C85.3131 58.7172 87.1129 55.5126 88.9128 52.2641C89.3079 51.6934 89.6151 51.035 90.0102 50.2887C89.4396 50.157 88.9567 50.3765 88.5177 50.5082C87.508 50.6838 86.4984 50.9472 85.4448 51.1667C85.1375 51.2106 84.7424 51.1667 84.6107 50.6838C84.479 50.2887 84.7424 50.0253 85.0058 49.8497C86.0594 48.9278 87.2446 48.2255 88.386 47.5231C89.7029 46.6451 90.9321 45.9427 92.293 45.1526C93.0831 44.7136 93.6538 44.1429 94.1367 43.3528C97.5607 37.646 101.073 32.0269 104.804 26.5396C108.316 21.3596 111.959 16.3991 115.515 11.3508C116.7 9.77045 117.842 8.10231 118.72 6.30247C119.554 4.59043 119.29 4.06366 117.491 4.01976C114.988 3.88807 112.486 4.32705 110.028 4.85383C102.258 6.65366 94.7074 9.28757 87.508 12.9311C85.6643 13.9408 83.8205 14.9944 82.1524 16.443C81.6695 16.8381 81.2306 17.321 80.8794 17.8917C80.3526 18.7696 80.4404 19.4281 81.0989 20.2183C81.6695 20.9646 82.4597 21.4913 83.3377 22.0181C85.2692 23.1595 87.2885 23.9935 89.4396 24.8715C90.3614 25.2666 91.3711 25.7056 92.293 26.1885C92.5563 26.2763 92.8197 26.408 92.9953 26.6714C93.2587 26.9347 93.2148 27.1981 92.8636 27.3298C92.5563 27.4615 92.2052 27.3737 91.8979 27.3298C88.4299 26.0568 84.918 25.0032 81.6695 23.0278C81.0111 22.6327 80.3526 22.1498 79.8258 21.5352C78.421 20.0866 78.2455 18.594 79.1673 16.7064C79.6063 15.9162 80.177 15.2139 80.8355 14.5993C82.7231 12.6678 84.918 11.3508 87.2446 10.2094C96.1121 5.8635 105.243 3.01009 114.813 1.34195C116.393 1.07856 117.974 0.771272 119.554 1.07856C121.968 1.60534 123.022 3.49297 122.363 6.12688C121.881 7.70722 121.09 9.11197 120.212 10.4728C117.974 13.9408 115.515 17.1893 113.013 20.4378C107.921 26.9786 102.872 33.6951 98.1753 40.6749C97.9119 41.0261 97.6486 41.2895 97.5169 41.8163C98.0436 41.8163 98.3509 41.5529 98.7021 41.3773C109.413 34.8804 120.168 28.4273 130.441 21.0962C135.708 17.321 140.976 13.3262 145.937 8.98028C147.693 7.39993 149.361 5.6001 150.81 3.49297C151.205 2.8784 151.688 2.26382 152.17 1.73704C152.741 1.07856 153.356 1.03467 153.882 1.42976C154.453 1.73704 154.673 2.39551 154.541 3.27348ZM92.2052 46.3378C90.9321 47.0402 89.8785 47.6548 88.825 48.2255C88.9128 48.3572 88.9128 48.445 88.9567 48.4889C90.0102 47.9182 91.5028 48.2255 92.2052 46.3378Z" fill="#231F20"/>
<path fill-rule="evenodd" clip-rule="evenodd" d="M174.778 42.826C174.778 43.1771 174.559 43.3088 174.427 43.4405C174.251 43.5576 174.061 43.6747 173.856 43.7917C170.432 46.0306 167.096 48.3572 163.408 50.2009C162.574 50.5082 161.872 50.8594 160.994 50.9033C159.414 50.9911 158.623 50.2448 158.536 48.7522C158.536 47.6548 158.887 46.689 159.282 45.6794C159.677 44.8453 160.16 44.0112 160.599 43.0894C160.335 43.221 160.072 43.3088 159.896 43.4844C157.965 44.7136 156.033 45.8989 154.19 47.0841C153.268 47.6548 152.346 48.2255 151.336 48.6644C150.941 48.8839 150.458 49.0595 150.019 49.1473C148.702 49.4107 147.737 48.7522 147.693 47.3475C147.663 46.2354 147.868 45.1965 148.307 44.2307C148.541 43.7332 148.849 43.2503 149.229 42.7821C149.346 42.6357 149.463 42.4894 149.58 42.3431C151.907 39.7092 154.629 37.602 157.833 36.1534C159.15 35.6266 160.467 35.2754 161.916 35.5388C163.672 35.89 164.506 36.8119 164.857 38.5239C165.033 39.6653 164.857 40.8505 164.901 42.0358C164.989 42.6943 164.462 43.1772 164.067 43.5722C162.925 44.7575 161.872 45.9427 160.862 47.2158C160.555 47.7426 160.204 48.2255 160.028 48.7961C159.765 49.5863 160.028 50.0692 160.862 50.0692C161.608 50.0692 162.179 49.718 162.838 49.4546C164.901 48.5328 166.832 47.3914 168.764 46.2939C170.344 45.2404 171.969 44.2307 173.637 43.2649C173.695 43.2357 173.739 43.2064 173.768 43.1771C174.032 42.9577 174.295 42.6504 174.778 42.826ZM163.716 40.5871C163.847 40.5432 163.935 40.4116 163.979 40.236C164.33 39.3141 163.321 37.9532 162.311 37.9532C162.267 37.9532 162.135 37.9971 161.916 37.9971C161.608 38.1288 161.213 38.2605 160.818 38.3922C156.428 39.9726 153.136 43.0455 150.195 46.5573C150.063 46.689 149.932 46.8207 149.8 46.9963C149.756 47.2158 149.536 47.3914 149.668 47.6548C149.888 47.9621 150.151 47.8743 150.414 47.7426C151.117 47.5231 151.775 47.2597 152.39 46.8646C156.121 44.7136 159.809 42.5187 163.716 40.5871Z" fill="#231F20"/>
<path fill-rule="evenodd" clip-rule="evenodd" d="M210.994 43.0893C211.038 43.3966 210.819 43.5722 210.731 43.7039C207.219 46.25 203.883 48.9717 200.107 51.1667C199.361 51.5617 198.659 51.9129 197.781 52.0446C196.2 52.2202 195.366 51.5617 195.191 50.0253C195.147 48.9717 195.41 47.9621 195.717 46.9524C196.069 46.0744 196.464 45.2404 196.859 44.2746C196.639 44.4502 196.376 44.4941 196.156 44.7136C194.357 46.0305 192.513 47.3475 190.713 48.6644C189.835 49.3229 188.957 49.8936 187.991 50.4204C187.596 50.6838 187.157 50.9033 186.718 50.9911C185.401 51.3423 184.436 50.7277 184.26 49.3668C184.128 47.8743 184.436 46.4695 185.138 45.2404C185.255 45.0648 185.372 44.8892 185.489 44.7136C185.577 44.5965 185.665 44.4795 185.753 44.3624C187.904 41.509 190.494 39.1824 193.654 37.5142C194.927 36.8997 196.244 36.5046 197.693 36.6363C199.449 36.8558 200.371 37.7337 200.81 39.4458C201.073 40.5432 200.941 41.7724 201.117 42.9576C201.205 43.6161 200.722 44.099 200.327 44.538C199.317 45.7671 198.308 47.0402 197.43 48.3572C197.122 48.9278 196.815 49.4107 196.639 49.9814C196.464 50.8155 196.727 51.2545 197.605 51.2106C198.308 51.1667 198.878 50.7716 199.537 50.4643C201.512 49.4107 203.356 48.1816 205.2 46.9085C206.78 45.7671 208.36 44.5819 210.028 43.4844C210.292 43.2649 210.511 42.9138 210.994 43.0893ZM199.8 41.5529C199.932 41.509 200.02 41.3334 200.063 41.2017C200.327 40.2798 199.229 38.9629 198.264 39.0068C198.176 39.0068 198.044 39.0946 197.869 39.0946C197.561 39.2702 197.166 39.4019 196.771 39.5775C192.513 41.4651 189.396 44.7136 186.718 48.4011C186.587 48.5328 186.499 48.6644 186.367 48.8839C186.323 49.1034 186.104 49.279 186.279 49.5424C186.499 49.8058 186.762 49.718 187.026 49.5863C187.728 49.3229 188.343 49.0156 188.913 48.5767C192.469 46.1622 196.025 43.7478 199.8 41.5529Z" fill="#231F20"/>
<path d="M186.455 38.1288C186.455 37.9532 186.382 37.6752 186.236 37.2948C186.089 36.885 185.841 36.5777 185.489 36.3729C184.655 35.89 183.426 35.89 181.714 36.329C180.397 36.7241 179.036 37.5143 177.588 38.6995L177.456 38.7434V38.8751C176.622 39.5775 175.788 40.4555 174.954 41.3773C173.988 42.6065 173.154 43.8795 172.495 45.1526C171.837 46.4256 171.442 47.567 171.31 48.6206C171.047 50.3326 171.574 51.474 172.803 52.0007C173.329 52.2056 173.988 52.2788 174.778 52.2202C176.973 52.0885 180.134 50.9033 184.128 48.6644H184.172C184.231 48.6059 184.26 48.5474 184.26 48.4889L184.216 48.3572L184.172 48.2694C184.085 48.1816 183.953 48.1816 183.821 48.2255C180.748 49.9375 178.158 51.035 176.183 51.474C175.539 51.591 174.968 51.6056 174.471 51.5178L173.681 51.2545C173.651 51.2545 173.637 51.2398 173.637 51.2106C173.637 51.1667 171.837 47.0841 178.597 40.2799C181.451 37.4265 183.163 36.5485 184.216 36.5485C184.246 36.5485 184.289 36.5485 184.348 36.5485C184.67 36.607 184.948 36.6948 185.182 36.8119C185.797 37.2509 185.884 38.1727 185.884 38.1727C185.884 38.3191 185.884 38.4361 185.884 38.5239V38.5678C185.884 38.6995 185.972 38.7873 186.104 38.8312C186.236 38.8312 186.323 38.7873 186.323 38.7434L186.411 38.6556V38.5678C186.44 38.4507 186.455 38.3044 186.455 38.1288Z" fill="#231F20"/>
<path fill-rule="evenodd" clip-rule="evenodd" d="M148.615 37.8215C148.673 38.0557 148.702 38.2752 148.702 38.48L148.615 38.9629C148.571 39.7531 148.264 40.4993 147.868 41.2017C147.122 42.5187 146.156 43.6161 145.059 44.6258C143.698 45.8989 142.162 46.9963 140.537 47.9621C137.552 49.7619 134.479 51.474 131.319 52.8787C130.397 53.2738 129.475 53.625 128.509 53.9323C128.158 54.0201 127.895 54.1957 127.719 54.5029C125.568 57.6197 123.593 60.8243 121.837 64.1606C121.749 64.3362 121.661 64.5118 121.573 64.6874C121.442 64.9069 121.266 64.9947 121.09 64.9508H120.915C120.432 64.8191 120.3 64.7313 120.344 64.3801C120.344 64.2923 120.344 64.2045 120.388 64.0289C120.783 62.4047 121.442 60.8682 122.012 59.2879C123.505 55.337 125.217 51.4301 127.192 47.6548C129.124 43.8795 131.275 40.2799 133.777 36.8558C134.084 36.4607 134.348 36.1095 134.699 35.7583C134.918 35.5388 135.05 35.451 135.226 35.451C135.357 35.4949 135.533 35.5388 135.709 35.6705C136.148 35.9778 136.323 36.2412 136.323 36.6363C136.323 36.7826 136.265 36.9728 136.148 37.207C135.709 38.0849 135.226 38.919 134.699 39.7531C132.065 43.9234 129.475 48.1377 127.192 52.4836C127.148 52.6153 126.973 52.747 126.973 52.8787C126.973 52.9665 126.973 53.0104 127.061 53.0543C127.104 53.0982 127.148 53.0982 127.192 53.1421C127.368 53.1421 127.543 53.0104 127.719 52.9665C127.982 52.8348 128.07 52.6153 128.246 52.3519C128.977 51.3569 129.724 50.3619 130.485 49.3668C130.66 49.0156 130.748 48.7523 130.748 48.7523C130.748 48.7523 142.688 30.5344 147.868 36.6802C148.176 36.8997 148.395 37.2509 148.527 37.6021C148.585 37.6899 148.644 37.7923 148.702 37.9093C148.702 37.9093 148.673 37.8801 148.615 37.8215ZM126.973 54.1079C126.973 53.9323 126.885 53.8445 126.753 53.7567C126.709 53.7567 126.709 53.7567 126.665 53.7567C126.49 53.7128 126.446 53.8884 126.402 54.0201C125.963 54.8102 125.568 55.6443 125.173 56.4784C124.997 56.7857 124.866 57.093 124.734 57.4002L124.778 57.4441C125.334 56.6247 125.89 55.8053 126.446 54.9858C126.578 54.7663 126.753 54.5029 126.929 54.2835C126.929 54.1957 126.973 54.1518 126.973 54.1079ZM147.473 37.7776C147.473 37.3387 147.342 37.207 146.99 37.1192C146.815 37.0899 146.639 37.0753 146.464 37.0753C146.142 37.046 145.791 37.0606 145.41 37.1192C144.313 37.3387 143.391 37.8654 142.469 38.4361C141.196 39.2702 140.011 40.2799 138.913 41.2895C135.577 44.3185 132.68 47.7426 129.958 51.3423C129.826 51.6056 129.607 51.8251 129.431 52.1324C129.563 52.1324 129.607 52.1324 129.651 52.1324C129.782 52.0885 129.914 52.0007 130.046 51.9568C134.084 49.9375 137.947 47.6548 141.503 44.8892C143.04 43.7039 144.444 42.4309 145.717 40.9822C146.288 40.3237 146.815 39.5775 147.166 38.7873C147.298 38.48 147.429 38.1727 147.473 37.8654V37.7776Z" fill="#231F20"/>
<path d="M91.3273 77.7252V73.1159L89.0446 77.0228H88.869L86.5863 73.1159V77.7252H86.1912V72.3257H86.5423L88.9568 76.4961L91.4151 72.3257H91.7224V77.7252H91.3273Z" fill="#252918"/>
<path d="M96.6389 72.3257H97.034V77.7252H96.6389V72.3257Z" fill="#252918"/>
<path d="M102.829 77.4179C102.39 77.1838 102.053 76.8619 101.819 76.4522C101.556 76.0132 101.424 75.5303 101.424 75.0035C101.424 74.506 101.556 74.0378 101.819 73.5988C102.053 73.1891 102.39 72.8671 102.829 72.633C103.238 72.3989 103.707 72.2818 104.233 72.2818C104.643 72.2818 105.009 72.3404 105.331 72.4574C105.653 72.5745 105.931 72.7647 106.165 73.0281L105.945 73.2915C105.506 72.8525 104.95 72.633 104.277 72.633C103.809 72.633 103.385 72.7354 103.004 72.9403C102.653 73.1452 102.375 73.4378 102.17 73.8183C101.936 74.1695 101.819 74.5645 101.819 75.0035C101.819 75.4718 101.936 75.8815 102.17 76.2327C102.375 76.6131 102.653 76.9058 103.004 77.1107C103.385 77.3155 103.809 77.4179 104.277 77.4179C104.95 77.4179 105.506 77.1984 105.945 76.7595L106.165 77.0229C105.931 77.257 105.653 77.4472 105.331 77.5935C105.009 77.7106 104.643 77.7691 104.233 77.7691C103.707 77.7691 103.238 77.6521 102.829 77.4179Z" fill="#252918"/>
<path d="M113.759 72.6769H111.784V77.7252H111.389V72.6769H109.457V72.3257H113.759V72.6769Z" fill="#252918"/>
<path fill-rule="evenodd" clip-rule="evenodd" d="M118.544 77.4179C118.105 77.1838 117.769 76.8473 117.535 76.4083C117.3 75.9986 117.183 75.5303 117.183 75.0035C117.183 74.506 117.3 74.0524 117.535 73.6427C117.769 73.2037 118.105 72.8671 118.544 72.633C118.983 72.3989 119.466 72.2818 119.993 72.2818C120.52 72.2818 121.003 72.3989 121.442 72.633C121.88 72.8671 122.217 73.1891 122.451 73.5988C122.685 74.0378 122.802 74.506 122.802 75.0035C122.802 75.5303 122.685 76.0132 122.451 76.4522C122.217 76.8619 121.88 77.1838 121.442 77.4179C121.003 77.6521 120.52 77.7691 119.993 77.7691C119.466 77.7691 118.983 77.6521 118.544 77.4179ZM121.222 77.1107C121.602 76.9058 121.895 76.6131 122.1 76.2327C122.305 75.8815 122.407 75.4718 122.407 75.0035C122.407 74.5645 122.305 74.1695 122.1 73.8183C121.895 73.4378 121.602 73.1452 121.222 72.9403C120.871 72.7354 120.461 72.633 119.993 72.633C119.525 72.633 119.115 72.7354 118.764 72.9403C118.383 73.1452 118.091 73.4378 117.886 73.8183C117.681 74.1695 117.578 74.5645 117.578 75.0035C117.578 75.4718 117.681 75.8815 117.886 76.2327C118.091 76.6131 118.383 76.9058 118.764 77.1107C119.115 77.3155 119.525 77.4179 119.993 77.4179C120.461 77.4179 120.871 77.3155 121.222 77.1107Z" fill="#252918"/>
<path fill-rule="evenodd" clip-rule="evenodd" d="M132.153 72.3257H136.016V72.6769H132.548V74.6084H134.392C135.035 74.6084 135.518 74.7401 135.84 75.0035C136.191 75.2669 136.367 75.6474 136.367 76.1449C136.367 76.6716 136.191 77.0667 135.84 77.3301C135.489 77.5935 134.977 77.7252 134.304 77.7252H132.153V72.3257ZM134.304 77.4179C134.831 77.4179 135.24 77.3155 135.533 77.1106C135.826 76.9058 135.972 76.5985 135.972 76.1888C135.972 75.3693 135.416 74.9596 134.304 74.9596H132.548V77.4179H134.304Z" fill="#252918"/>
<path d="M140.713 72.3257H141.108V77.7252H140.713V72.3257Z" fill="#252918"/>
<path d="M150.02 72.3257V77.7252H149.624V72.6769H146.815L146.727 74.6523C146.698 75.4132 146.639 76.0132 146.552 76.4522C146.464 76.9204 146.317 77.257 146.113 77.4618C145.937 77.6667 145.703 77.7691 145.41 77.7691C145.264 77.7691 145.132 77.7545 145.015 77.7252L145.059 77.374C145.147 77.4033 145.235 77.4179 145.322 77.4179C145.557 77.4179 145.747 77.3155 145.893 77.1106C146.039 76.935 146.157 76.657 146.244 76.2766C146.303 75.8669 146.347 75.3254 146.376 74.6523L146.464 72.3257H150.02Z" fill="#252918"/>
<path fill-rule="evenodd" clip-rule="evenodd" d="M158.624 72.3257V77.7252H158.228V76.0132H156.516C156.37 76.0132 156.238 76.0132 156.121 76.0132L154.936 77.7252H154.497L155.77 75.9254C155.36 75.8083 155.053 75.6035 154.848 75.3108C154.614 75.0181 154.497 74.6523 154.497 74.2133C154.497 73.5988 154.687 73.1305 155.068 72.8086C155.448 72.4867 155.96 72.3257 156.604 72.3257H158.624ZM155.287 75.3108C155.58 75.5742 155.99 75.7059 156.516 75.7059H158.228V72.6769H156.604C156.048 72.6769 155.624 72.8086 155.331 73.072C155.038 73.3354 154.892 73.7158 154.892 74.2133C154.892 74.6816 155.024 75.0474 155.287 75.3108Z" fill="#252918"/>
<path fill-rule="evenodd" clip-rule="evenodd" d="M172.013 72.8086C172.422 73.1305 172.627 73.5695 172.627 74.1255C172.627 74.7109 172.422 75.1645 172.013 75.4864C171.632 75.8083 171.105 75.9693 170.432 75.9693H168.896V77.7252H168.501V72.3257H170.432C171.105 72.3257 171.632 72.4867 172.013 72.8086ZM171.749 75.223C172.071 74.9596 172.232 74.5938 172.232 74.1255C172.232 73.6573 172.071 73.3061 171.749 73.072C171.457 72.8086 171.018 72.6769 170.432 72.6769H168.896V75.6181H170.432C171.018 75.6181 171.457 75.4864 171.749 75.223Z" fill="#252918"/>
<path d="M176.841 72.3257H177.236V77.7252H176.841V72.3257Z" fill="#252918"/>
<path d="M185.621 72.3257V77.7252H185.226V75.3986C184.611 75.6913 184.011 75.8376 183.426 75.8376C182.812 75.8376 182.343 75.6913 182.021 75.3986C181.67 75.0767 181.495 74.6523 181.495 74.1255V72.3257H181.89V74.0817C181.89 74.5206 182.021 74.8572 182.285 75.0913C182.577 75.3547 182.973 75.4864 183.47 75.4864C184.026 75.4864 184.611 75.3401 185.226 75.0474V72.3257H185.621Z" fill="#252918"/>
<path d="M192.25 75.1791H190.933V77.7252H190.538V72.3257H190.933V74.8279H192.25L194.181 72.3257H194.62L192.557 74.9596L194.796 77.7252H194.313L192.25 75.1791Z" fill="#252918"/>
<path d="M198.703 72.3257H199.098V77.0667L202.785 72.3257H203.137V77.7252H202.742V72.9842L199.054 77.7252H198.703V72.3257Z" fill="#252918"/>
<path d="M74.075 76.0132V76.1449H9.63208V76.0132H74.075Z" fill="#231F20"/>
</svg>
