<svg width="65" height="71" viewBox="0 0 65 71" fill="none" xmlns="http://www.w3.org/2000/svg">
  <path d="M65 0H0V71H65V0Z" fill="white"/>
  <path d="M9.29127 50.6135C9.29127 50.93 9.69167 51.0543 11.1607 51.0543C12.7766 51.0543 12.9807 50.9483 12.9807 50.7508C12.9807 50.5403 12.8702 50.4343 10.9267 50.3729C8.30588 50.2866 7.60907 49.851 7.60907 48.8897C7.60907 47.8656 8.53468 47.332 11.0385 47.332C13.7035 47.332 14.542 47.6668 14.542 48.7472C14.542 48.84 14.542 48.9329 14.5355 49.0388C14.3509 49.0271 14.0233 49.0205 13.7087 49.0205C13.3824 49.0205 13.0548 49.0271 12.8702 49.0388V48.9211C12.8702 48.6046 12.6479 48.4987 11.0138 48.4987C9.50837 48.4987 9.28737 48.5915 9.28737 48.7786C9.28737 48.9643 9.40437 49.0454 11.4714 49.1513C13.9206 49.2755 14.672 49.6352 14.672 50.6776C14.672 51.7632 13.8153 52.285 11.1815 52.285C8.49177 52.285 7.57397 51.8325 7.57397 50.8882C7.57397 50.777 7.58047 50.658 7.59867 50.535C7.81447 50.5599 8.14077 50.5782 8.45017 50.5782C8.76477 50.5782 9.06117 50.5717 9.29517 50.5599V50.6135H9.29127Z" fill="#0A111B"/>
  <path d="M22.7596 52.1346C22.7843 51.4702 22.8025 50.8254 22.809 50.0563C22.809 49.7398 22.8337 49.3985 22.8519 49.0702L22.809 49.0584C22.6543 49.3684 22.4827 49.6914 22.2721 49.9648L20.6432 52.1372H19.7982L17.973 49.6927C17.7689 49.4194 17.5908 49.0977 17.4361 48.7995L17.3932 48.8112C17.4114 49.1343 17.4361 49.456 17.4426 49.8105C17.4491 50.6789 17.4673 51.4048 17.5037 52.1372H15.8501C15.8865 51.4676 15.8995 50.7901 15.8995 49.8039C15.8995 48.7864 15.8878 48.0906 15.8683 47.4824H18.3474C18.6867 47.9847 19.1924 48.7419 19.8281 49.6666C19.9945 49.902 20.1739 50.1688 20.3468 50.4422H20.3832C20.5496 50.1623 20.7095 49.8955 20.8642 49.6666C21.4557 48.7798 22.0108 47.9729 22.3449 47.4824H24.5341C24.5159 48.0906 24.4977 48.7851 24.4977 49.8039C24.4977 50.7901 24.5042 51.4676 24.5471 52.1372H22.7596V52.1346Z" fill="#0A111B"/>
  <path d="M31.6702 52.1339C31.6143 51.9979 31.4661 51.6932 31.2633 51.3152C30.6224 51.3087 29.9737 51.3087 29.481 51.3087C29.0312 51.3087 28.3708 51.3087 27.7481 51.3152C27.5388 51.6683 27.3724 51.9665 27.2918 52.1339H25.2625C26.1439 50.9058 27.8534 48.2992 28.2538 47.4805H30.82C31.2399 48.2992 32.9481 50.8744 33.8672 52.1339H31.6702ZM29.0988 49.0866C28.8895 49.4214 28.649 49.8124 28.4137 50.2035C28.8024 50.21 29.1911 50.21 29.4875 50.21C29.8086 50.21 30.2272 50.21 30.6471 50.2035C30.4183 49.8059 30.1778 49.4096 29.962 49.0735C29.7709 48.7818 29.6357 48.5399 29.5304 48.3476L29.0988 49.0866Z" fill="#0A111B"/>
  <path d="M39.8378 50.2297C40.9168 50.3356 41.4108 50.5095 41.6084 51.2158C41.7189 51.6186 41.8177 51.9548 41.8983 52.1339H40.363C40.0861 52.1339 40.0367 52.0725 39.882 51.4643C39.7468 50.9176 39.5427 50.8182 38.4208 50.8182H36.2134C36.2251 51.3453 36.2498 51.7991 36.2875 52.1339H34.5234C34.5351 51.4578 34.5481 50.8064 34.5481 49.8072C34.5481 48.8211 34.5416 48.1501 34.5234 47.4805H39.1124C40.7842 47.4805 41.5668 47.9212 41.5668 48.8642C41.5668 49.6646 41.0481 50.074 39.8404 50.2048V50.2297H39.8378ZM38.5729 49.6594C39.5661 49.6594 39.9236 49.492 39.9236 49.1506C39.9236 48.7975 39.5726 48.6785 38.5911 48.6785C38.1218 48.6785 36.8088 48.685 36.1861 48.7033C36.1861 49.0199 36.1861 49.3364 36.1926 49.6398C36.6372 49.6594 37.5797 49.6594 38.5729 49.6594Z" fill="#0A111B"/>
  <path d="M48.8202 47.4805C48.8085 47.661 48.8085 47.933 48.8085 48.175C48.8085 48.4104 48.8085 48.702 48.8202 48.9008C47.9635 48.876 47.112 48.876 46.371 48.876C46.371 50.4337 46.3775 51.7795 46.3957 52.1405C46.1682 52.1222 45.7847 52.1222 45.526 52.1222C45.2673 52.1222 44.9033 52.1222 44.6563 52.1405C44.6745 51.7808 44.6875 50.4402 44.6875 48.876C43.9478 48.876 43.0963 48.876 42.2383 48.9008C42.2448 48.702 42.2448 48.4169 42.2448 48.175C42.2448 47.933 42.2448 47.6662 42.2383 47.4805H48.8202Z" fill="#0A111B"/>
  <path d="M11.4801 59.7903C8.60578 59.7903 7.42798 58.7597 7.42798 57.2399C7.42798 55.6573 8.72928 54.7144 11.4801 54.7144C14.2309 54.7144 15.5322 55.6573 15.5322 57.2399C15.5322 58.761 14.3544 59.7903 11.4801 59.7903ZM13.7993 57.2464C13.7993 56.4826 13.2013 56.0615 11.4801 56.0615C9.75888 56.0615 9.16088 56.4839 9.16088 57.2464C9.16088 57.9972 9.75238 58.4445 11.4801 58.4445C13.2143 58.4445 13.7993 57.9972 13.7993 57.2464Z" fill="#0A111B"/>
  <path d="M21.957 57.6745C23.036 57.7804 23.53 57.9544 23.7276 58.6606C23.8381 59.0634 23.9369 59.3996 24.0175 59.5788H22.4822C22.2053 59.5788 22.1559 59.5173 22.0012 58.9091C21.866 58.3624 21.6619 58.263 20.54 58.263H18.3326C18.3443 58.7901 18.369 59.2439 18.4067 59.5788H16.6426C16.6543 58.9026 16.6673 58.2512 16.6673 57.252C16.6673 56.2659 16.6608 55.5949 16.6426 54.9253H21.2316C22.9034 54.9253 23.686 55.366 23.686 56.309C23.686 57.1095 23.1673 57.5188 21.9596 57.6496V57.6745H21.957ZM20.6921 57.1042C21.6853 57.1042 22.0428 56.9368 22.0428 56.5955C22.0428 56.2423 21.6918 56.1233 20.7103 56.1233C20.241 56.1233 18.928 56.1299 18.3053 56.1482C18.3053 56.4647 18.3053 56.7812 18.3118 57.0846C18.7564 57.1042 19.7002 57.1042 20.6921 57.1042Z" fill="#0A111B"/>
  <path d="M30.591 59.5802C30.5351 59.4442 30.3869 59.1395 30.1841 58.7615C29.5432 58.7549 28.8945 58.7549 28.4018 58.7549C27.952 58.7549 27.2916 58.7549 26.6689 58.7615C26.4596 59.1146 26.2932 59.4128 26.2126 59.5802H24.1833C25.0647 58.3521 26.7742 55.7455 27.1746 54.9268H29.7408C30.1607 55.7455 31.8689 58.3207 32.788 59.5802H30.591ZM28.0196 56.5328C27.8103 56.8677 27.5698 57.2587 27.3345 57.6498C27.7232 57.6563 28.1119 57.6563 28.4083 57.6563C28.7294 57.6563 29.148 57.6563 29.5679 57.6498C29.3391 57.2522 29.0986 56.8559 28.8828 56.5198C28.6917 56.2281 28.5565 55.9861 28.4512 55.7939L28.0196 56.5328Z" fill="#0A111B"/>
  <path d="M40.865 54.9268C40.8468 55.4983 40.8403 56.2608 40.8403 57.2483C40.8403 58.2723 40.8403 58.9603 40.852 59.5815H39.0944C38.7304 59.1656 36.8129 57.8499 35.7521 57.1057C35.4934 56.92 35.2282 56.733 35.0124 56.5355C35.0371 56.9082 35.0436 57.2797 35.0553 57.6589C35.0618 58.6202 35.067 59.2964 35.0865 59.5828H33.5005C33.5005 58.9564 33.5187 58.2488 33.5187 57.2561C33.5187 56.27 33.5187 55.5624 33.5005 54.9294H35.5116C35.7391 55.2276 37.8555 56.7408 38.7993 57.3934C39.0216 57.5425 39.2439 57.6602 39.4103 57.8211C39.3856 57.4798 39.3739 57.1515 39.3739 56.8964C39.3739 56.0345 39.3557 55.259 39.331 54.9294H40.865V54.9268Z" fill="#0A111B"/>
  <path d="M46.0851 59.7295C43.489 59.7295 41.9771 58.9788 41.9771 57.2223C41.9771 55.3729 43.55 54.7778 45.9928 54.7778C48.3237 54.7778 49.7667 55.1624 49.7667 56.5526C49.7667 56.5958 49.7667 56.6455 49.7602 56.6887C49.5756 56.6756 49.248 56.6703 48.9334 56.6703C48.5941 56.6703 48.273 56.6769 48.0819 56.6887C48.0819 56.6638 48.0884 56.639 48.0884 56.6141C48.0884 56.1799 47.5021 56.0426 45.985 56.0426C44.3807 56.0426 43.7152 56.3721 43.7152 57.2524C43.7152 58.0528 44.3379 58.4805 46.0838 58.4805C47.3851 58.4805 47.9584 58.2817 48.1248 57.8605C47.2681 57.8605 46.1137 57.8671 45.3493 57.8854C45.3558 57.7925 45.3558 57.5937 45.3558 57.5009C45.3558 57.3334 45.3558 57.1843 45.3493 57.0666C46.349 57.0849 47.3721 57.0797 48.1183 57.0797C48.5746 57.0797 49.1609 57.0863 49.7719 57.0666C49.885 58.742 49.4651 59.7295 46.0851 59.7295Z" fill="#0A111B"/>
  <path d="M57.5737 54.9268C57.5672 55.0628 57.562 55.2799 57.562 55.4735C57.562 55.6723 57.562 55.8959 57.5737 56.0254C56.2906 56.0188 53.9714 56.0136 52.8183 56.0136V56.7277C54.1508 56.7277 56.4752 56.7277 57.5061 56.7094C57.4996 56.9514 57.4944 57.4484 57.4996 57.7086C56.4882 57.6969 54.1378 57.6838 52.8183 57.6838V58.4097C53.9714 58.4097 56.3712 58.4031 57.5737 58.3979C57.562 58.547 57.562 58.7824 57.562 58.9995C57.562 59.1983 57.562 59.4272 57.5737 59.5828H51.0542C51.0789 58.9498 51.0789 58.2488 51.0789 57.2561C51.0789 56.27 51.0789 55.5559 51.0542 54.9294H57.5737V54.9268Z" fill="#0A111B"/>
  <path d="M15.3401 35.0115C14.9826 35.0115 14.6459 34.9709 14.3313 34.8872C13.2549 34.5995 12.5061 33.8135 12.1616 32.6115C9.43031 30.498 7.80791 27.5134 7.59081 24.2005C7.35291 20.5829 8.77771 17.0319 11.6026 14.2017L11.7898 14.0146L11.86 14.2697C12.9455 18.2352 18.5745 25.1029 24.4063 29.5798L24.5467 29.6871L24.4219 29.8126C21.1316 33.1111 17.7711 35.0115 15.3401 35.0115ZM11.6377 14.6058C8.99871 17.3419 7.67141 20.732 7.89761 24.1796C8.10951 27.4192 9.70461 30.3371 12.3891 32.397L12.4307 32.4284L12.4437 32.4781C12.7544 33.612 13.4161 34.3222 14.4093 34.5864C14.7031 34.6649 15.0203 34.7028 15.3557 34.7028C17.6645 34.7028 20.8859 32.8809 24.0787 29.7158C18.373 25.2991 12.8896 18.6263 11.6377 14.6058Z" fill="#0A111B"/>
  <path d="M14.5732 34.9255C11.5949 32.6393 8.71671 29.1185 8.15771 27.0756L8.45411 26.9932C8.99881 28.9812 11.8276 32.4288 14.7591 34.6796L14.5732 34.9255Z" fill="#0A111B"/>
  <path d="M18.8856 33.9155C13.8065 30.0167 8.90025 24.0187 7.94995 20.5424L8.24635 20.46C9.18235 23.8801 14.0392 29.8061 19.0728 33.6696L18.8856 33.9155Z" fill="#0A111B"/>
  <path d="M12.2371 32.6646C10.6563 32.0094 9.65525 30.8284 9.34195 29.2458C8.76735 26.3436 10.5289 22.5023 14.0532 18.9697L14.2703 19.1881C10.8188 22.6475 9.08975 26.3841 9.64355 29.1843C9.93475 30.6596 10.8734 31.7635 12.3541 32.3769L12.2371 32.6646Z" fill="#0A111B"/>
  <path d="M11.7509 32.9024C11.6677 32.9024 11.5988 32.8749 11.5481 32.8095C11.4428 32.6709 11.266 32.4407 13.2551 30.1323C14.5278 28.6544 16.3686 26.7043 18.576 24.4927L18.7931 24.7111C13.8777 29.6379 11.9719 32.0536 11.8159 32.5833C11.8809 32.565 12.0031 32.5153 12.2202 32.3884L12.3749 32.6552C12.1474 32.7873 11.9212 32.9024 11.7509 32.9024Z" fill="#0A111B"/>
  <path d="M21.2071 35.5572C19.6211 35.5572 18.0494 35.3309 16.5596 34.8718C15.7367 35.051 14.9853 35.0615 14.3327 34.8875C13.2407 34.5959 12.4867 33.7915 12.15 32.5621L12.0291 32.12L12.3918 32.3986C13.6528 33.3665 15.075 34.0845 16.583 34.5566C18.7735 34.0544 21.5048 32.3031 24.2075 29.5945L24.3024 29.499L24.409 29.5814C26.8595 31.4622 28.6171 32.4025 29.8573 32.8446C30.9324 32.1933 31.9386 31.4125 32.8434 30.5048L33.0306 30.3178L33.1008 30.5728C33.5519 32.222 33.1112 32.9335 32.6614 33.2383C32.0699 33.6398 31.1157 33.6097 29.8898 33.1833C27.2417 34.7528 24.1984 35.5572 21.2071 35.5572ZM17.142 34.7214C21.1681 35.8096 25.735 35.2106 29.5141 33.046C28.075 32.4784 26.3031 31.4164 24.3271 29.9097C21.8194 32.4012 19.2766 34.0793 17.142 34.7214ZM12.5972 32.9348C12.9482 33.8059 13.5566 34.3618 14.4107 34.5893C14.8722 34.7123 15.387 34.7371 15.9473 34.6691C14.7578 34.2454 13.6294 33.6686 12.5972 32.9348ZM30.2382 32.9702C31.6851 33.4044 32.3143 33.1009 32.4872 32.9832C33.0826 32.5791 33.0423 31.6806 32.8668 30.9129C32.0582 31.6963 31.1755 32.3829 30.2382 32.9702Z" fill="#0A111B"/>
  <path d="M18.3457 36.8039C17.5033 36.8039 16.1617 36.1447 14.5757 34.927L14.7616 34.6812C17.0184 36.4141 18.321 36.6875 18.7513 36.3958C19.049 36.1931 18.9853 35.6908 18.88 35.305L19.1764 35.2226C19.4169 36.0989 19.1712 36.4834 18.9242 36.6521C18.7734 36.7542 18.5784 36.8039 18.3457 36.8039Z" fill="#0A111B"/>
  <path d="M25.2583 37.1092C23.853 37.1092 21.5845 35.9857 18.8857 33.9153L19.0716 33.6694C22.2878 36.1374 25.0178 37.291 26.024 36.6056C26.5869 36.2237 26.4777 35.3148 26.2879 34.619L26.5843 34.5366C26.9769 35.9726 26.5908 36.5939 26.1969 36.862C25.9525 37.0281 25.6366 37.1092 25.2583 37.1092Z" fill="#0A111B"/>
  <path d="M20.4145 37.0627C20.0973 37.0627 19.7801 37.0483 19.4655 37.0182C16.5106 36.741 13.9197 35.1754 12.1699 32.6093L12.4234 32.4341C14.1212 34.923 16.6328 36.4415 19.4954 36.7096C22.878 37.0274 26.4491 35.573 29.2948 32.7205L29.5119 32.9389C26.8638 35.5926 23.5956 37.0627 20.4145 37.0627Z" fill="#0A111B"/>
  <path d="M22.8711 37.2977C22.8139 37.2977 22.7567 37.2977 22.6995 37.2964C18.7397 37.2493 15.0061 35.5909 12.189 32.6272L12.4113 32.4141C15.1712 35.3163 18.8268 36.9407 22.7047 36.9877C22.7606 36.9877 22.8165 36.989 22.8737 36.989C26.4812 36.989 29.8573 35.5935 32.3975 33.0471L32.6146 33.2655C30.0133 35.8708 26.5605 37.2977 22.8711 37.2977Z" fill="#0A111B"/>
  <path d="M21.2071 35.5562C17.9519 35.5562 14.7565 34.6027 12.2033 32.6435L12.1617 32.6121L12.1487 32.5624C11.0424 28.521 14.672 20.6933 20.2412 15.1126L20.3361 15.0171L20.4427 15.0995C26.3213 19.6117 31.9984 26.5527 33.0995 30.5731L33.1229 30.6594L33.0592 30.7235C29.8846 33.9043 25.4932 35.5562 21.2071 35.5562ZM12.4308 32.4303C18.2067 36.8274 27.3028 35.9917 32.7784 30.5692C31.6422 26.6154 26.1146 19.8733 20.3634 15.4278C14.9411 20.9078 11.4012 28.4936 12.4308 32.4303Z" fill="#0A111B"/>
  <path d="M18.8787 35.3029C18.334 33.315 15.5065 29.8674 12.5737 27.6165L12.7596 27.3706C15.7379 29.6568 18.6148 33.1776 19.1751 35.2205L18.8787 35.3029Z" fill="#0A111B"/>
  <path d="M26.2883 34.6186C25.3523 31.1985 20.4955 25.2725 15.4619 21.409L15.6478 21.1631C20.7269 25.0619 25.6318 31.0599 26.5834 34.5362L26.2883 34.6186Z" fill="#0A111B"/>
  <path d="M15.4065 33.2266C14.2352 33.2266 13.1614 33.0448 12.2397 32.6629L12.3567 32.3778C16.8105 34.2219 24.9004 31.2425 30.3942 25.7363L30.6113 25.9547C26.1653 30.4107 20.0228 33.2266 15.4065 33.2266Z" fill="#0A111B"/>
  <path d="M12.3754 32.6537L12.2207 32.3869C14.2227 31.2137 20.347 25.752 25.8733 20.2144L26.0904 20.4328C20.5485 25.9874 14.3969 31.47 12.3754 32.6537Z" fill="#0A111B"/>
  <path d="M12.5645 32.9231L12.2018 32.6445C9.44705 30.5297 7.80905 27.5307 7.59065 24.2021C7.35535 20.612 8.75675 17.0872 11.5388 14.2661C11.1267 12.6783 11.5596 11.9878 12.0016 11.6869C13.3276 10.7858 16.4826 12.061 20.4398 15.0992L20.5802 15.2065L20.4554 15.332C14.9577 20.8435 11.3633 28.5365 12.4423 32.481L12.5645 32.9231ZM13.0858 11.7301C12.5567 11.7301 12.2811 11.8714 12.1745 11.9433C11.5102 12.3945 11.6363 13.4578 11.8586 14.2713L11.882 14.3577L11.8183 14.4217C9.05835 17.1892 7.66475 20.6551 7.89615 24.1812C8.09895 27.2809 9.56925 30.0876 12.0484 32.1292C11.3009 28.0146 14.8083 20.6159 20.1135 15.2379C16.2721 12.3121 14.1583 11.7301 13.0858 11.7301Z" fill="#0A111B"/>
  <path d="M12.5735 27.6162C10.3167 25.8846 9.0141 25.6099 8.5838 25.9016C8.2861 26.1043 8.3498 26.6065 8.4551 26.9924L8.1587 27.0748C7.9182 26.1985 8.1639 25.814 8.4109 25.6452C9.1103 25.1705 10.7353 25.8153 12.7594 27.3703L12.5735 27.6162Z" fill="#0A111B"/>
  <path d="M15.4603 21.4108C12.2441 18.9428 9.5167 17.7893 8.5079 18.4746C7.945 18.8565 8.0542 19.7655 8.244 20.4613L7.9476 20.5437C7.555 19.1076 7.9411 18.4864 8.3363 18.2182C9.4894 17.4348 12.2233 18.5361 15.6475 21.1649L15.4603 21.4108Z" fill="#0A111B"/>
  <path d="M12.1684 32.6088C8.22941 26.8345 9.56711 17.5838 15.1493 11.9873L15.3664 12.2057C9.88301 17.7015 8.56221 26.7756 12.4219 32.4335L12.1684 32.6088Z" fill="#0A111B"/>
  <path d="M12.1853 32.6297C6.51993 26.6736 6.46143 17.2672 12.0527 11.6616L12.2698 11.88C6.79553 17.3666 6.85663 26.5794 12.4076 32.4152L12.1853 32.6297Z" fill="#0A111B"/>
  <path d="M24.3256 29.9094L24.219 29.827C18.3404 25.3148 12.6633 18.3739 11.5622 14.3534L11.5388 14.2671L11.6025 14.203C17.1873 8.60524 26.5434 7.74334 32.4571 12.283L32.4987 12.3144L32.5117 12.3641C33.618 16.4055 29.9884 24.2332 24.4205 29.8126L24.3256 29.9094ZM11.882 14.3586C13.0182 18.3124 18.5458 25.0545 24.2983 29.5001C29.7193 24.02 33.2592 16.4343 32.2283 12.4975C26.4524 8.1004 17.3576 8.93614 11.882 14.3586Z" fill="#0A111B"/>
  <path d="M29.0125 23.7612C23.9334 19.8624 19.0285 13.8644 18.0769 10.3881L18.3733 10.3057C19.3093 13.7258 24.1661 19.6518 29.1997 23.514L29.0125 23.7612Z" fill="#0A111B"/>
  <path d="M31.9001 17.5554C28.9218 15.2692 26.0436 11.7471 25.4846 9.70544L25.781 9.62305C26.3257 11.611 29.1532 15.0586 32.086 17.3095L31.9001 17.5554Z" fill="#0A111B"/>
  <path d="M14.2696 19.189L14.0525 18.9706C19.6256 13.3846 27.8663 10.3765 32.4228 12.2637L32.3058 12.5502C27.8533 10.7047 19.7621 13.6828 14.2696 19.189Z" fill="#0A111B"/>
  <path d="M18.7891 24.7119L18.572 24.4935C24.1126 18.9402 30.2642 13.4576 32.2857 12.2739L32.4404 12.5407C30.4371 13.7139 24.3141 19.173 18.7891 24.7119Z" fill="#0A111B"/>
  <path d="M31.5805 33.5237C29.9607 33.5237 27.3386 32.2237 24.2173 29.8289L24.0769 29.7217L24.2017 29.5961C29.6994 24.086 33.2939 16.393 32.2136 12.4484L32.0927 12.0063L32.4554 12.2849C35.2101 14.3998 36.8481 17.3988 37.0665 20.7273C37.3018 24.3175 35.9004 27.8423 33.1184 30.6621C33.5305 32.2498 33.0976 32.9404 32.6556 33.2412C32.3761 33.4309 32.0147 33.5237 31.5805 33.5237ZM24.5449 29.689C30.2844 34.0573 32.1642 33.2007 32.4853 32.9836C33.1496 32.5323 33.0235 31.469 32.8012 30.6555L32.7778 30.5692L32.8415 30.5051C35.6014 27.7389 36.9937 24.273 36.7623 20.747C36.5595 17.6473 35.0892 14.8405 32.6101 12.7989C33.3576 16.9149 29.8502 24.3123 24.5449 29.689Z" fill="#0A111B"/>
  <path d="M35.3868 26.9578C33.9815 26.9578 31.713 25.8343 29.0142 23.7639L29.2001 23.5181C32.4163 25.986 35.145 27.1396 36.1525 26.4543C36.7154 26.0724 36.6062 25.1634 36.4164 24.4676L36.7128 24.3852C37.1054 25.8213 36.7193 26.4425 36.3254 26.7106C36.081 26.8754 35.7651 26.9578 35.3868 26.9578Z" fill="#0A111B"/>
  <path d="M35.6723 19.4362C34.8299 19.4362 33.4883 18.777 31.9023 17.5594L32.0882 17.3135C34.345 19.0451 35.6476 19.3198 36.0779 19.0281C36.3756 18.8254 36.3119 18.3232 36.2066 17.9373L36.503 17.8549C36.7435 18.7312 36.4978 19.1157 36.2508 19.2845C36.0987 19.3852 35.905 19.4362 35.6723 19.4362Z" fill="#0A111B"/>
  <path d="M29.5079 32.939L29.2908 32.7206C34.7742 27.2248 36.095 18.1507 32.2353 12.4941L32.4888 12.3188C36.4278 18.0932 35.0914 27.3426 29.5079 32.939Z" fill="#0A111B"/>
  <path d="M32.6077 33.2667L32.3906 33.0483C37.8636 27.5617 37.8025 18.3503 32.2515 12.5145L32.4738 12.3013C38.1392 18.2574 38.199 27.6624 32.6077 33.2667Z" fill="#0A111B"/>
  <path d="M32.8687 30.9098L32.7985 30.6548C31.713 26.6893 26.084 19.8216 20.2522 15.3447L20.1118 15.2374L20.2366 15.1118C24.0105 11.3294 27.8767 9.38461 30.3259 10.0386C31.4023 10.3263 32.1524 11.1123 32.4956 12.3143C35.2269 14.4278 36.8493 17.4124 37.0664 20.7253C37.303 24.3416 35.8795 27.8925 33.0559 30.7228L32.8687 30.9098ZM20.5785 15.206C26.2842 19.6254 31.7689 26.2969 33.0208 30.3187C35.6598 27.5839 36.9858 24.1938 36.7596 20.7462C36.5464 17.5066 34.9526 14.5887 32.2681 12.5288L32.2265 12.4974L32.2135 12.4477C31.9028 11.3137 31.2411 10.6036 30.2479 10.3394C27.9287 9.71812 24.2354 11.5819 20.5785 15.206Z" fill="#0A111B"/>
  <path d="M36.4123 24.4648C35.4763 21.0447 30.6195 15.1187 25.5859 11.2552L25.7718 11.0093C30.8509 14.9081 35.7558 20.9061 36.7074 24.3824L36.4123 24.4648Z" fill="#0A111B"/>
  <path d="M36.2049 17.9319C35.6602 15.9439 32.8314 12.4963 29.8999 10.2454L30.0858 9.99951C33.0641 12.2857 35.9423 15.8065 36.5013 17.8495L36.2049 17.9319Z" fill="#0A111B"/>
  <path d="M30.607 25.9555L30.3899 25.737C33.8401 22.279 35.5691 18.5424 35.0153 15.7422C34.7241 14.2669 33.7868 13.163 32.3048 12.5496L32.4218 12.2632C34.0026 12.9184 35.0036 14.0995 35.3169 15.682C35.8915 18.5829 34.13 22.4242 30.607 25.9555Z" fill="#0A111B"/>
  <path d="M26.0872 20.4331L25.8701 20.2147C30.7841 15.2892 32.6899 12.8735 32.8459 12.3438C32.7809 12.3621 32.6587 12.4118 32.4416 12.5387L32.2869 12.2719C32.6262 12.0731 32.9603 11.9174 33.1137 12.1175C33.219 12.2562 33.3958 12.4864 31.4068 14.7948C30.1341 16.2714 28.2946 18.2214 26.0872 20.4331Z" fill="#0A111B"/>
  <path d="M20.3625 15.4265L20.2559 15.3441C17.8067 13.4633 16.0478 12.523 14.8076 12.0809C13.7325 12.7322 12.7263 13.513 11.8202 14.4207L11.633 14.6077L11.5628 14.3527C11.1117 12.7035 11.5524 11.992 12.0022 11.6872C12.5937 11.2857 13.5479 11.3158 14.7738 11.7422C18.8207 9.34349 23.801 8.7314 28.1014 10.055C28.9256 9.8758 29.677 9.86534 30.3283 10.0393C31.4203 10.3309 32.1756 11.1353 32.5123 12.3647L32.6332 12.8068L32.2705 12.5282C31.0095 11.5604 29.5873 10.8423 28.0793 10.3702C25.8888 10.8724 23.1575 12.6237 20.4561 15.331L20.3625 15.4265ZM15.1482 11.8808C16.5873 12.4484 18.3592 13.5104 20.3352 15.0171C22.8416 12.5256 25.3844 10.8476 27.519 10.2067C23.4942 9.11853 18.9273 9.71754 15.1482 11.8808ZM13.0864 11.7291C12.5573 11.7291 12.2817 11.8703 12.1751 11.9423C11.5797 12.3464 11.62 13.2449 11.7955 14.0126C12.6041 13.2292 13.4881 12.5439 14.4254 11.9553C13.8625 11.7866 13.4231 11.7291 13.0864 11.7291ZM28.715 10.2577C29.9032 10.6815 31.0316 11.2582 32.0651 11.992C31.7141 11.1209 31.1057 10.5651 30.2516 10.3375C29.7901 10.2145 29.274 10.1897 28.715 10.2577Z" fill="#0A111B"/>
  <path d="M25.5912 11.2565C22.375 8.78852 19.645 7.63497 18.6388 8.3203C18.0759 8.7022 18.1851 9.61118 18.3749 10.307L18.0785 10.3894C17.6859 8.95332 18.072 8.33207 18.4659 8.06395C19.619 7.28053 22.3529 8.38177 25.7771 11.0106L25.5912 11.2565Z" fill="#0A111B"/>
  <path d="M29.8999 10.2457C27.6431 8.5141 26.3392 8.23945 25.9102 8.53241C25.6125 8.73514 25.6762 9.23737 25.7815 9.62319L25.4851 9.70559C25.2446 8.8293 25.4903 8.44479 25.7373 8.27607C26.4354 7.80261 28.0604 8.44609 30.0858 10.0012L29.8999 10.2457Z" fill="#0A111B"/>
  <path d="M32.2391 12.4934C30.5413 10.0045 28.0297 8.48604 25.1671 8.21792C21.7832 7.90141 18.2134 9.35448 15.369 12.207L15.1519 11.9886C18.0626 9.07197 21.7234 7.58621 25.1957 7.91057C28.1506 8.18784 30.7415 9.75338 32.4926 12.3195L32.2391 12.4934Z" fill="#0A111B"/>
  <path d="M32.2538 12.5126C29.4926 9.61036 25.8383 7.98596 21.9604 7.93888C18.2827 7.89702 14.8481 9.29385 12.2689 11.8795L12.0518 11.6611C14.6492 9.05712 18.102 7.62891 21.7914 7.62891C21.8486 7.62891 21.9058 7.62891 21.963 7.63021C25.9228 7.6773 29.6564 9.3357 32.4748 12.2994L32.2538 12.5126Z" fill="#0A111B"/>
  <path d="M22.2821 37.457C22.0156 37.457 21.7348 37.4452 21.5229 37.4296C21.1667 37.4047 20.6688 37.3524 20.0019 37.2687C19.6093 37.219 19.1205 37.1104 18.8215 37.0333C18.3301 36.9051 17.6723 36.705 17.1835 36.5337C16.761 36.3859 15.8407 36 15.0425 35.5397C14.6733 35.3278 13.6931 34.7628 12.6882 33.897C12.1825 33.4614 11.4155 32.7604 10.5939 31.7049C10.3222 31.357 10.1129 31.0523 10.1116 31.0497C9.90097 30.7423 9.90097 30.7423 9.57987 30.2283C9.33157 29.8307 9.07027 29.3089 8.95847 29.0865C8.79207 28.753 8.61657 28.3581 8.50997 28.0756C8.43067 27.8663 8.34877 27.6322 8.26947 27.3994C8.15507 27.0907 8.05367 26.7755 7.96657 26.4564C7.84827 25.9934 7.69357 25.3826 7.62987 24.9157C7.57007 24.4815 7.50377 23.9858 7.47257 23.6039C7.45957 23.4522 7.41927 22.9238 7.42967 22.5105L7.43097 22.4451C7.44007 22.0645 7.45177 21.5911 7.47907 21.2262C7.50377 20.907 7.55577 20.4676 7.61167 20.1079C7.82357 18.7634 8.16547 17.7916 8.17977 17.7511C8.28117 17.4673 8.46837 16.9376 8.62567 16.5635C8.74007 16.2915 8.92597 15.8965 9.12357 15.5081C9.41607 14.9313 9.86587 14.2028 10.2416 13.6927C10.7226 13.0414 11.3375 12.3155 11.8094 11.846C12.5244 11.1345 12.8039 10.9213 13.7347 10.2151C14.0584 9.96917 14.516 9.6919 14.8306 9.50618C15.1179 9.33616 15.5235 9.11905 15.8628 8.95425C16.1904 8.79469 16.6571 8.59328 17.0509 8.44156C17.2745 8.35524 17.5449 8.26761 17.8075 8.18391C17.9219 8.14729 18.0324 8.11198 18.1312 8.07797C18.4991 7.95503 18.9853 7.8504 19.4117 7.76277C19.6431 7.71569 19.9213 7.67383 20.1904 7.6346C20.3048 7.61759 20.414 7.6019 20.5141 7.58621C20.9236 7.52081 21.4644 7.49596 21.8908 7.48288C22.2561 7.4698 22.6838 7.47373 22.9789 7.49073C23.4053 7.51558 23.9994 7.57182 24.4895 7.6346C25.185 7.72353 25.8064 7.88833 26.4629 8.06358C26.953 8.19437 27.603 8.42456 28.0801 8.63513C28.5221 8.83131 28.8523 8.98434 29.0876 9.10597C29.3853 9.25899 29.7831 9.48264 30.0769 9.66313C30.3824 9.85016 30.7321 10.0803 30.9674 10.2504C31.3184 10.5054 31.4367 10.5904 31.9632 11.0286C32.0204 11.077 32.3207 11.332 32.7146 11.7152C33.0149 12.0082 33.2658 12.2841 33.3867 12.4162C33.5323 12.5771 33.8573 12.9564 34.0614 13.2232C34.3916 13.6522 34.4501 13.7411 34.779 14.2277C35.026 14.5952 35.4628 15.3485 35.6994 15.8494C35.8814 16.234 36.1856 16.8787 36.4339 17.6425C36.7043 18.4717 36.8902 19.2015 36.9877 19.811C37.0865 20.4283 37.1983 21.1254 37.2191 22.126C37.2425 23.2233 37.145 24.0891 37.0852 24.5076C37.0241 24.9353 36.911 25.7331 36.5743 26.854C36.3715 27.5302 36.0049 28.3986 35.7332 29.0081C35.6084 29.288 35.4082 29.6607 35.1209 30.1472C34.9961 30.3604 34.831 30.6063 34.6724 30.843C34.6035 30.9477 34.5359 31.0471 34.4761 31.1399C34.2525 31.4839 33.9119 31.9037 33.6675 32.1823L33.6233 32.2333C33.3295 32.5681 32.9655 32.9841 32.647 33.2718C32.5755 33.3372 32.4975 33.4078 32.4169 33.4824C32.1985 33.6825 31.9515 33.9087 31.7435 34.0788C31.4562 34.3142 31.0324 34.6516 30.6866 34.8726L30.4487 35.0257C30.2017 35.1852 29.9209 35.3657 29.6895 35.4978C29.332 35.7005 28.864 35.9412 28.526 36.0968C27.3313 36.6461 26.3004 36.9129 26.1873 36.9417C25.484 37.1183 24.5636 37.2765 23.9877 37.3576C23.6744 37.4021 23.2818 37.4178 22.9347 37.4322C22.8203 37.4374 22.7111 37.4413 22.6097 37.4466C22.5096 37.4544 22.3965 37.457 22.2821 37.457ZM10.5276 31.102C10.6095 31.2145 10.7161 31.3597 10.8357 31.5127C11.6417 32.5472 12.3931 33.2339 12.8884 33.6615C13.8712 34.509 14.8332 35.0623 15.1946 35.2702C15.9759 35.7201 16.8715 36.0968 17.2849 36.2407C17.7659 36.4081 18.4146 36.6056 18.8995 36.7325C19.2817 36.8319 19.7289 36.9221 20.0409 36.9613C20.7013 37.045 21.194 37.0974 21.545 37.1209C21.8388 37.1418 22.2691 37.1575 22.5967 37.1405C22.6994 37.1353 22.8099 37.13 22.9243 37.1261C23.2636 37.1117 23.6497 37.096 23.9474 37.0542C24.5155 36.9744 25.4242 36.8188 26.1158 36.6448C26.2263 36.6174 27.2325 36.3571 28.4025 35.8182C28.734 35.6652 29.1929 35.4298 29.5426 35.231C29.7675 35.1041 30.0431 34.925 30.2875 34.768L30.5267 34.6137C30.8595 34.4018 31.2729 34.0709 31.555 33.842C31.7565 33.6785 31.9996 33.4549 32.2154 33.2574C32.2973 33.1828 32.3753 33.1109 32.4481 33.0455C32.7536 32.7696 33.1124 32.3615 33.3997 32.0319L33.4439 31.9809C33.6805 31.7102 34.0107 31.3034 34.2252 30.9725C34.285 30.8797 34.3539 30.7776 34.4241 30.673C34.5801 30.4389 34.7413 30.1969 34.8622 29.9916C35.143 29.5155 35.338 29.1533 35.4576 28.8838C35.7254 28.2822 36.0855 27.4268 36.2844 26.7664C36.6146 25.6677 36.7264 24.8856 36.7862 24.4658C36.8447 24.0564 36.9396 23.2089 36.9162 22.1338C36.8954 21.1555 36.7862 20.4689 36.6887 19.8633C36.5938 19.2682 36.4105 18.5554 36.1453 17.7406C35.9022 16.9964 35.6032 16.3621 35.4251 15.9841C35.1937 15.495 34.7686 14.7613 34.5307 14.4081C34.2031 13.9229 34.1459 13.8366 33.8209 13.4141C33.6207 13.1539 33.3048 12.7837 33.1631 12.6268C33.0448 12.496 32.7978 12.2253 32.504 11.9375C32.1179 11.5609 31.8254 11.3137 31.7708 11.2679C31.2521 10.8363 31.1351 10.7513 30.7906 10.5015C30.5618 10.3354 30.2199 10.1104 29.9209 9.92732C29.6336 9.75076 29.2436 9.53234 28.9511 9.38193C28.721 9.26292 28.3973 9.11251 27.9605 8.91894C27.4964 8.7136 26.8646 8.48996 26.3875 8.36309C25.7414 8.19045 25.1304 8.02827 24.4544 7.94195C23.9695 7.88048 23.3858 7.82424 22.9646 7.79939C22.6773 7.78239 22.2613 7.77977 21.9051 7.79154C21.4878 7.80593 20.9587 7.82947 20.5661 7.89225C20.466 7.90795 20.3542 7.92495 20.2398 7.94195C19.9746 7.98119 19.7003 8.02173 19.478 8.06751C19.1764 8.13029 18.6148 8.24538 18.2326 8.37355C18.1312 8.40756 18.0207 8.44287 17.905 8.4808C17.6463 8.5645 17.3785 8.64952 17.164 8.73322C16.7779 8.88232 16.3204 9.07981 15.9993 9.23545C15.6717 9.39501 15.2648 9.61081 14.9892 9.7743C14.6798 9.9574 14.2339 10.2281 13.9232 10.4636C13.0054 11.1607 12.7285 11.3712 12.0291 12.067C11.5676 12.5274 10.9631 13.2376 10.4912 13.8784C10.1246 14.3754 9.68647 15.0882 9.40047 15.6506C9.20547 16.0338 9.02347 16.421 8.91167 16.6865C8.75827 17.0527 8.57237 17.5758 8.47227 17.857C8.45797 17.8963 8.12647 18.8419 7.91847 20.1576C7.86387 20.5042 7.81187 20.9436 7.78847 21.251C7.76117 21.6081 7.75077 22.0776 7.74167 22.4543L7.74037 22.5197C7.73387 22.7878 7.74947 23.1841 7.78197 23.579C7.81577 23.9832 7.89247 24.5416 7.93797 24.8738C7.99907 25.3238 8.15117 25.9241 8.26297 26.3635C8.26427 26.3701 8.26557 26.3753 8.26817 26.3818C8.34227 26.6238 8.44497 26.9468 8.55417 27.2725C9.28347 29.2487 10.5718 30.9856 12.3203 32.3471C12.3437 32.3654 12.3658 32.3824 12.3892 32.4007L12.2033 32.6466C11.5884 32.1732 11.0294 31.6579 10.5276 31.102Z" fill="#0A111B"/>
</svg>
