<svg width="52" height="57" viewBox="0 0 52 57" fill="none" xmlns="http://www.w3.org/2000/svg">
<path d="M52 0H0V57H52V0Z" fill="#1F2026"/>
<path d="M7.49026 40.6335C7.49026 40.8876 7.80966 40.9873 8.98149 40.9873C10.2705 40.9873 10.4333 40.9023 10.4333 40.7437C10.4333 40.5747 10.3452 40.4896 8.79483 40.4403C6.7042 40.371 6.14836 40.0213 6.14836 39.2496C6.14836 38.4274 6.88672 37.999 8.88401 37.999C11.0099 37.999 11.6788 38.2678 11.6788 39.1351C11.6788 39.2097 11.6788 39.2842 11.6736 39.3693C11.5263 39.3598 11.265 39.3546 11.014 39.3546C10.7538 39.3546 10.4924 39.3598 10.3452 39.3693V39.2748C10.3452 39.0207 10.1678 38.9356 8.86431 38.9356C7.66344 38.9356 7.48715 39.0102 7.48715 39.1603C7.48715 39.3094 7.58048 39.3745 9.22934 39.4596C11.1831 39.5593 11.7825 39.8481 11.7825 40.6849C11.7825 41.5564 11.0991 41.9754 8.99808 41.9754C6.8525 41.9754 6.12036 41.6121 6.12036 40.854C6.12036 40.7647 6.12555 40.6692 6.14006 40.5705C6.31221 40.5904 6.5725 40.6051 6.81931 40.6051C7.07027 40.6051 7.30671 40.5999 7.49337 40.5904V40.6335H7.49026Z" fill="#FFFDF7"/>
<path d="M18.2339 41.8549C18.2536 41.3215 18.2681 40.8039 18.2733 40.1865C18.2733 39.9324 18.293 39.6584 18.3075 39.3948L18.2733 39.3854C18.1499 39.6342 18.013 39.8936 17.845 40.113L16.5456 41.857H15.8716L14.4156 39.8946C14.2528 39.6752 14.1107 39.4169 13.9873 39.1775L13.9531 39.1869C13.9676 39.4463 13.9873 39.7046 13.9925 39.9891C13.9977 40.6863 14.0122 41.269 14.0413 41.857H12.7222C12.7512 41.3194 12.7616 40.7756 12.7616 39.9839C12.7616 39.167 12.7522 38.6084 12.7367 38.1201H14.7143C14.9849 38.5233 15.3883 39.1313 15.8954 39.8736C16.0282 40.0626 16.1713 40.2768 16.3092 40.4963H16.3382C16.471 40.2716 16.5985 40.0574 16.7219 39.8736C17.1938 39.1617 17.6366 38.5139 17.9031 38.1201H19.6494C19.6349 38.6084 19.6204 39.1659 19.6204 39.9839C19.6204 40.7756 19.6256 41.3194 19.6598 41.857H18.2339V41.8549Z" fill="#FFFDF7"/>
<path d="M25.3463 41.854C25.3017 41.7448 25.1835 41.5002 25.0217 41.1967C24.5105 41.1915 23.993 41.1915 23.6 41.1915C23.2412 41.1915 22.7144 41.1915 22.2176 41.1967C22.0507 41.4802 21.9179 41.7196 21.8536 41.854H20.2349C20.938 40.8681 22.3016 38.7755 22.621 38.1182H24.6681C25.0031 38.7755 26.3657 40.8429 27.0989 41.854H25.3463ZM23.2951 39.4076C23.1281 39.6764 22.9363 39.9903 22.7486 40.3043C23.0587 40.3095 23.3687 40.3095 23.6052 40.3095C23.8613 40.3095 24.1952 40.3095 24.5302 40.3043C24.3477 39.9851 24.1558 39.6669 23.9837 39.3971C23.8312 39.1629 23.7234 38.9687 23.6394 38.8143L23.2951 39.4076Z" fill="#FFFDF7"/>
<path d="M31.8609 40.3253C32.7216 40.4103 33.1157 40.55 33.2733 41.1169C33.3615 41.4403 33.4403 41.7102 33.5046 41.854H32.2799C32.059 41.854 32.0196 41.8047 31.8962 41.3165C31.7883 40.8776 31.6255 40.7978 30.7306 40.7978H28.9697C28.979 41.2209 28.9987 41.5852 29.0288 41.854H27.6216C27.6309 41.3112 27.6413 40.7883 27.6413 39.9861C27.6413 39.1944 27.6361 38.6558 27.6216 38.1182H31.2823C32.6159 38.1182 33.2401 38.472 33.2401 39.2291C33.2401 39.8717 32.8264 40.2003 31.863 40.3053V40.3253H31.8609ZM30.8519 39.8675C31.6442 39.8675 31.9294 39.7331 31.9294 39.459C31.9294 39.1755 31.6494 39.08 30.8664 39.08C30.492 39.08 29.4447 39.0852 28.9479 39.0999C28.9479 39.354 28.9479 39.6081 28.9531 39.8517C29.3078 39.8675 30.0596 39.8675 30.8519 39.8675Z" fill="#FFFDF7"/>
<path d="M39.0243 38.1182C39.015 38.2631 39.015 38.4815 39.015 38.6757C39.015 38.8647 39.015 39.0989 39.0243 39.2585C38.341 39.2385 37.6617 39.2385 37.0706 39.2385C37.0706 40.4891 37.0758 41.5695 37.0903 41.8593C36.9088 41.8446 36.6029 41.8446 36.3965 41.8446C36.1902 41.8446 35.8998 41.8446 35.7028 41.8593C35.7173 41.5705 35.7277 40.4943 35.7277 39.2385C35.1376 39.2385 34.4584 39.2385 33.7739 39.2585C33.7791 39.0989 33.7791 38.87 33.7791 38.6757C33.7791 38.4815 33.7791 38.2673 33.7739 38.1182H39.0243Z" fill="#FFFDF7"/>
<path d="M9.23897 48.0008C6.94613 48.0008 6.00659 47.1734 6.00659 45.9533C6.00659 44.6828 7.04465 43.9258 9.23897 43.9258C11.4333 43.9258 12.4714 44.6828 12.4714 45.9533C12.4714 47.1745 11.5318 48.0008 9.23897 48.0008ZM11.089 45.9586C11.089 45.3454 10.612 45.0073 9.23897 45.0073C7.86596 45.0073 7.38894 45.3464 7.38894 45.9586C7.38894 46.5613 7.86078 46.9204 9.23897 46.9204C10.6224 46.9204 11.089 46.5613 11.089 45.9586Z" fill="#FFFDF7"/>
<path d="M17.5943 46.3018C18.455 46.3869 18.8491 46.5265 19.0067 47.0935C19.0949 47.4169 19.1737 47.6868 19.238 47.8306H18.0133C17.7924 47.8306 17.753 47.7813 17.6296 47.293C17.5217 46.8541 17.3589 46.7743 16.464 46.7743H14.7031C14.7124 47.1975 14.7321 47.5618 14.7622 47.8306H13.355C13.3643 47.2878 13.3747 46.7649 13.3747 45.9627C13.3747 45.171 13.3695 44.6323 13.355 44.0947H17.0157C18.3493 44.0947 18.9735 44.4486 18.9735 45.2056C18.9735 45.8482 18.5598 46.1769 17.5964 46.2819V46.3018H17.5943ZM16.5853 45.844C17.3776 45.844 17.6628 45.7096 17.6628 45.4356C17.6628 45.1521 17.3828 45.0565 16.5998 45.0565C16.2254 45.0565 15.1781 45.0618 14.6813 45.0765C14.6813 45.3306 14.6813 45.5847 14.6865 45.8283C15.0412 45.844 15.794 45.844 16.5853 45.844Z" fill="#FFFDF7"/>
<path d="M24.486 47.8316C24.4414 47.7224 24.3232 47.4777 24.1614 47.1743C23.6501 47.169 23.1327 47.169 22.7396 47.169C22.3808 47.169 21.854 47.169 21.3573 47.1743C21.1903 47.4578 21.0576 47.6972 20.9933 47.8316H19.3745C20.0776 46.8456 21.4413 44.753 21.7607 44.0957H23.8078C24.1427 44.753 25.5054 46.8204 26.2385 47.8316H24.486ZM22.4347 45.3851C22.2678 45.6539 22.0759 45.9678 21.8882 46.2818C22.1983 46.287 22.5084 46.287 22.7448 46.287C23.001 46.287 23.3349 46.287 23.6698 46.2818C23.4873 45.9626 23.2955 45.6444 23.1233 45.3746C22.9709 45.1404 22.863 44.9462 22.779 44.7918L22.4347 45.3851Z" fill="#FFFDF7"/>
<path d="M32.6799 44.0957C32.6654 44.5546 32.6602 45.1667 32.6602 45.9594C32.6602 46.7816 32.6602 47.3339 32.6695 47.8326H31.2675C30.9771 47.4987 29.4475 46.4424 28.6013 45.845C28.3949 45.6959 28.1834 45.5457 28.0112 45.3872C28.0309 45.6864 28.0361 45.9846 28.0454 46.2891C28.0506 47.0609 28.0548 47.6037 28.0703 47.8337H26.8052C26.8052 47.3307 26.8197 46.7627 26.8197 45.9657C26.8197 45.174 26.8197 44.606 26.8052 44.0978H28.4094C28.5909 44.3372 30.2792 45.552 31.0321 46.076C31.2094 46.1957 31.3867 46.2902 31.5195 46.4193C31.4998 46.1453 31.4904 45.8817 31.4904 45.677C31.4904 44.985 31.4759 44.3624 31.4562 44.0978H32.6799V44.0957Z" fill="#FFFDF7"/>
<path d="M36.8483 47.9509C34.7773 47.9509 33.5713 47.3482 33.5713 45.938C33.5713 44.4533 34.8261 43.9756 36.7746 43.9756C38.634 43.9756 39.7851 44.2843 39.7851 45.4004C39.7851 45.4351 39.7851 45.475 39.7799 45.5096C39.6327 45.4991 39.3713 45.4949 39.1204 45.4949C38.8497 45.4949 38.5936 45.5002 38.4411 45.5096C38.4411 45.4897 38.4463 45.4697 38.4463 45.4498C38.4463 45.1012 37.9786 44.9909 36.7684 44.9909C35.4887 44.9909 34.9578 45.2555 34.9578 45.9622C34.9578 46.6048 35.4545 46.9481 36.8472 46.9481C37.8853 46.9481 38.3426 46.7885 38.4753 46.4504C37.792 46.4504 36.8711 46.4557 36.2613 46.4704C36.2665 46.3958 36.2665 46.2362 36.2665 46.1617C36.2665 46.0273 36.2665 45.9076 36.2613 45.8131C37.0588 45.8278 37.8749 45.8236 38.4702 45.8236C38.8342 45.8236 39.3018 45.8288 39.7892 45.8131C39.8795 47.1581 39.5445 47.9509 36.8483 47.9509Z" fill="#FFFDF7"/>
<path d="M46 44.0957C45.9948 44.2049 45.9906 44.3792 45.9906 44.5346C45.9906 44.6942 45.9906 44.8737 46 44.9777C44.9764 44.9724 43.1264 44.9683 42.2065 44.9683V45.5415C43.2695 45.5415 45.1237 45.5415 45.946 45.5268C45.9408 45.7211 45.9367 46.1201 45.9409 46.329C45.1341 46.3196 43.2591 46.3091 42.2065 46.3091V46.8918C43.1264 46.8918 45.0407 46.8866 46 46.8824C45.9906 47.0021 45.9906 47.1911 45.9906 47.3654C45.9906 47.525 45.9906 47.7087 46 47.8337H40.7993C40.819 47.3255 40.819 46.7627 40.819 45.9657C40.819 45.174 40.819 44.6008 40.7993 44.0978H46V44.0957Z" fill="#FFFDF7"/>
<path d="M12.3098 28.1115C12.0246 28.1115 11.756 28.0789 11.505 28.0117C10.6464 27.7807 10.0491 27.1497 9.77426 26.1848C7.59549 24.488 6.30129 22.0919 6.12811 19.4322C5.93833 16.528 7.0749 13.6772 9.32834 11.405L9.47767 11.2549L9.53367 11.4596C10.3996 14.6432 14.8899 20.1567 19.5419 23.7509L19.6539 23.837L19.5544 23.9378C16.9297 26.5859 14.249 28.1115 12.3098 28.1115ZM9.35634 11.7295C7.2512 13.9261 6.1924 16.6477 6.37284 19.4154C6.54188 22.0163 7.8143 24.3588 9.95574 26.0126L9.98892 26.0378L9.99929 26.0777C10.2471 26.988 10.775 27.5582 11.5673 27.7703C11.8016 27.8333 12.0547 27.8637 12.3222 27.8637C14.164 27.8637 16.7337 26.4011 19.2806 23.8601C14.7291 20.3142 10.355 14.9572 9.35634 11.7295Z" fill="#FFFDF7"/>
<path d="M11.7002 28.043C9.32439 26.2076 7.02844 23.381 6.58252 21.741L6.81896 21.6748C7.25347 23.2708 9.51002 26.0386 11.8485 27.8456L11.7002 28.043Z" fill="#FFFDF7"/>
<path d="M15.1414 27.2311C11.0897 24.101 7.17603 19.2857 6.41797 16.4949L6.65441 16.4287C7.40106 19.1744 11.2754 23.932 15.2907 27.0337L15.1414 27.2311Z" fill="#FFFDF7"/>
<path d="M9.83163 26.2269C8.57062 25.7009 7.77212 24.7527 7.52219 23.4822C7.06383 21.1523 8.46899 18.0685 11.2803 15.2324L11.4535 15.4078C8.70025 18.185 7.32101 21.1848 7.76278 23.4329C7.99507 24.6173 8.7438 25.5035 9.92496 25.9959L9.83163 26.2269Z" fill="#FFFDF7"/>
<path d="M9.45465 26.4165C9.38829 26.4165 9.33332 26.3945 9.29288 26.342C9.20888 26.2307 9.06785 26.0459 10.6545 24.1926C11.6697 23.0061 13.1381 21.4406 14.899 19.665L15.0722 19.8404C11.1512 23.7957 9.63095 25.7351 9.50651 26.1603C9.55836 26.1456 9.65584 26.1057 9.82902 26.0039L9.95242 26.2181C9.77094 26.3241 9.5905 26.4165 9.45465 26.4165Z" fill="#FFFDF7"/>
<path d="M16.9988 28.5491C15.7337 28.5491 14.4799 28.3675 13.2915 27.9989C12.6351 28.1428 12.0357 28.1512 11.5151 28.0115C10.644 27.7774 10.0425 27.1316 9.77393 26.1446L9.67749 25.7897L9.96682 26.0134C10.9727 26.7904 12.1072 27.3668 13.3102 27.7459C15.0575 27.3427 17.2363 25.9367 19.3923 23.7622L19.468 23.6855L19.553 23.7517C21.5078 25.2616 22.9098 26.0165 23.8991 26.3714C24.7568 25.8485 25.5594 25.2217 26.2812 24.493L26.4305 24.3428L26.4865 24.5476C26.8464 25.8716 26.4948 26.4428 26.136 26.6875C25.6642 27.0098 24.903 26.9857 23.9251 26.6434C21.8127 27.9034 19.385 28.5491 16.9988 28.5491ZM13.7561 27.8782C16.9677 28.7518 20.6108 28.2709 23.6254 26.5331C22.4774 26.0774 21.0639 25.2248 19.4877 24.0152C17.4873 26.0155 15.4589 27.3626 13.7561 27.8782ZM10.1307 26.4439C10.4107 27.1432 10.896 27.5894 11.5773 27.7721C11.9454 27.8708 12.3561 27.8908 12.8031 27.8362C11.8542 27.496 10.9541 27.0329 10.1307 26.4439ZM24.203 26.4722C25.3572 26.8208 25.8591 26.5772 25.997 26.4827C26.472 26.1583 26.4398 25.4369 26.2998 24.8206C25.6548 25.4495 24.9507 26.0008 24.203 26.4722Z" fill="#FFFDF7"/>
<path d="M14.7232 29.5498C14.0512 29.5498 12.981 29.0206 11.7158 28.0431L11.8641 27.8457C13.6644 29.2369 14.7035 29.4564 15.0467 29.2222C15.2842 29.0595 15.2334 28.6563 15.1494 28.3466L15.3858 28.2804C15.5777 28.9839 15.3817 29.2926 15.1846 29.428C15.0643 29.5099 14.9088 29.5498 14.7232 29.5498Z" fill="#FFFDF7"/>
<path d="M20.2295 29.7947C19.1084 29.7947 17.2988 28.8927 15.146 27.2306L15.2943 27.0332C17.8599 29.0145 20.0376 29.9406 20.8403 29.3904C21.2893 29.0838 21.2022 28.3541 21.0508 27.7955L21.2872 27.7294C21.6004 28.8822 21.2924 29.381 20.9782 29.5962C20.7832 29.7296 20.5312 29.7947 20.2295 29.7947Z" fill="#FFFDF7"/>
<path d="M16.3683 29.7579C16.1152 29.7579 15.8622 29.7464 15.6112 29.7222C13.2541 29.4996 11.1873 28.2428 9.7915 26.1827L9.99372 26.042C11.3481 28.0401 13.3516 29.2592 15.6351 29.4744C18.3334 29.7296 21.1821 28.562 23.4521 26.2719L23.6253 26.4473C21.5129 28.5777 18.9059 29.7579 16.3683 29.7579Z" fill="#FFFDF7"/>
<path d="M18.3312 29.9461C18.2856 29.9461 18.24 29.9461 18.1943 29.945C15.0356 29.9072 12.0573 28.5758 9.81006 26.1965L9.98739 26.0254C12.189 28.3553 15.1051 29.6594 18.1985 29.6972C18.2431 29.6972 18.2877 29.6983 18.3333 29.6983C21.211 29.6983 23.9042 28.5779 25.9305 26.5336L26.1037 26.7089C24.0286 28.8005 21.2743 29.9461 18.3312 29.9461Z" fill="#FFFDF7"/>
<path d="M17.0049 28.5467C14.4082 28.5467 11.8592 27.7813 9.82253 26.2084L9.78934 26.1832L9.77897 26.1433C8.89647 22.8988 11.7918 16.6146 16.2344 12.1343L16.3101 12.0576L16.3951 12.1238C21.0845 15.7462 25.6132 21.3186 26.4915 24.5463L26.5102 24.6156L26.4594 24.667C23.927 27.2206 20.424 28.5467 17.0049 28.5467ZM10.004 26.0372C14.6115 29.5673 21.8675 28.8964 26.2354 24.5431C25.329 21.369 20.9196 15.9562 16.3319 12.3873C12.0065 16.7868 9.18269 22.8768 10.004 26.0372Z" fill="#FFFDF7"/>
<path d="M15.1374 28.3428C14.7029 26.7468 12.4474 23.979 10.1079 22.172L10.2562 21.9746C12.632 23.81 14.9269 26.6366 15.3739 28.2767L15.1374 28.3428Z" fill="#FFFDF7"/>
<path d="M21.0542 27.7936C20.3076 25.0478 16.4333 20.2903 12.418 17.1886L12.5663 16.9912C16.6179 20.1212 20.5306 24.9365 21.2897 27.7274L21.0542 27.7936Z" fill="#FFFDF7"/>
<path d="M12.3743 26.6764C11.44 26.6764 10.5834 26.5305 9.84814 26.2239L9.94148 25.995C13.4943 27.4755 19.9477 25.0836 24.3301 20.6631L24.5033 20.8384C20.9567 24.4158 16.0568 26.6764 12.3743 26.6764Z" fill="#FFFDF7"/>
<path d="M9.9591 26.215L9.83569 26.0008C11.4327 25.059 16.3181 20.6742 20.7264 16.2285L20.8996 16.4039C16.4788 20.8632 11.5717 25.2648 9.9591 26.215Z" fill="#FFFDF7"/>
<path d="M10.0956 26.4347L9.80628 26.211C7.60884 24.5132 6.3022 22.1055 6.12798 19.4333C5.94028 16.5511 7.05819 13.7213 9.2774 11.4565C8.94867 10.1818 9.29399 9.6274 9.64658 9.3859C10.7043 8.66246 13.2212 9.6862 16.3779 12.1253L16.4899 12.2114L16.3903 12.3122C12.0048 16.7369 9.1374 22.913 9.99813 26.0798L10.0956 26.4347ZM10.5115 9.42055C10.0894 9.42055 9.86954 9.53395 9.7845 9.5917C9.25459 9.95395 9.35518 10.8076 9.53251 11.4607L9.55117 11.53L9.50036 11.5814C7.29877 13.8032 6.18709 16.5857 6.37168 19.4165C6.53345 21.905 7.70632 24.1583 9.68391 25.7973C9.08763 22.494 11.8855 16.5542 16.1176 12.2366C13.0532 9.8878 11.367 9.42055 10.5115 9.42055Z" fill="#FFFDF7"/>
<path d="M10.1129 22.174C8.31263 20.7838 7.27354 20.5633 6.93029 20.7974C6.69281 20.9602 6.74363 21.3634 6.82762 21.6731L6.59118 21.7393C6.39934 21.0358 6.59533 20.7271 6.79237 20.5916C7.35028 20.2105 8.64655 20.7281 10.2612 21.9766L10.1129 22.174Z" fill="#FFFDF7"/>
<path d="M12.4152 17.1924C9.8496 15.2111 7.67394 14.285 6.86921 14.8352C6.42018 15.1418 6.50729 15.8715 6.6587 16.4301L6.42226 16.4963C6.10908 15.3434 6.41707 14.8446 6.73232 14.6294C7.65216 14.0005 9.83301 14.8845 12.5645 16.995L12.4152 17.1924Z" fill="#FFFDF7"/>
<path d="M9.78574 26.1822C6.64358 21.5465 7.71067 14.1199 12.1636 9.62695L12.3368 9.8023C7.96266 14.2144 6.90905 21.4992 9.98796 26.0415L9.78574 26.1822Z" fill="#FFFDF7"/>
<path d="M9.79399 26.1987C5.27467 21.4171 5.228 13.8655 9.68822 9.36523L9.8614 9.54058C5.49452 13.9453 5.54326 21.3415 9.97132 26.0265L9.79399 26.1987Z" fill="#FFFDF7"/>
<path d="M19.4789 24.0147L19.3939 23.9485C14.7045 20.3261 10.1758 14.7537 9.29747 11.5261L9.27881 11.4568L9.32962 11.4053C13.7846 6.91133 21.2481 6.21939 25.9655 9.86392L25.9986 9.88912L26.009 9.92902C26.8915 13.1735 23.9962 19.4577 19.5546 23.937L19.4789 24.0147ZM9.55258 11.5303C10.4589 14.7044 14.8683 20.1171 19.4571 23.686C23.7815 19.2866 26.6053 13.1966 25.7829 10.0361C21.1755 6.50604 13.9205 7.17698 9.55258 11.5303Z" fill="#FFFDF7"/>
<path d="M23.218 19.0787C19.1664 15.9487 15.2537 11.1334 14.4946 8.34252L14.7311 8.27637C15.4777 11.0221 19.352 15.7796 23.3674 18.8803L23.218 19.0787Z" fill="#FFFDF7"/>
<path d="M25.5176 14.0967C23.1418 12.2613 20.8458 9.43371 20.3999 7.79466L20.6363 7.72852C21.0709 9.32451 23.3264 12.0923 25.6659 13.8993L25.5176 14.0967Z" fill="#FFFDF7"/>
<path d="M11.4583 15.4086L11.2852 15.2333C15.7308 10.7487 22.3045 8.33376 25.9392 9.8489L25.8459 10.0789C22.2941 8.59731 15.8397 10.9881 11.4583 15.4086Z" fill="#FFFDF7"/>
<path d="M15.0599 19.8409L14.8867 19.6656C19.3065 15.2073 24.2137 10.8057 25.8262 9.85547L25.9496 10.0697C24.3516 11.0115 19.4672 15.3942 15.0599 19.8409Z" fill="#FFFDF7"/>
<path d="M25.2713 26.9151C23.9792 26.9151 21.8875 25.8714 19.3976 23.9489L19.2856 23.8628L19.3852 23.762C23.7707 19.3384 26.6381 13.1623 25.7763 9.99552L25.6799 9.64062L25.9692 9.86427C28.1667 11.5621 29.4733 13.9698 29.6475 16.642C29.8352 19.5242 28.7173 22.354 26.4981 24.6177C26.8268 25.8924 26.4815 26.4468 26.1289 26.6883C25.906 26.8406 25.6177 26.9151 25.2713 26.9151ZM19.659 23.8366C24.2374 27.3435 25.7369 26.6558 25.9931 26.4815C26.523 26.1192 26.4224 25.2656 26.2451 24.6125L26.2264 24.5432L26.2772 24.4917C28.4788 22.271 29.5894 19.4885 29.4049 16.6577C29.2431 14.1693 28.0702 11.916 26.0926 10.2769C26.6889 13.5813 23.891 19.52 19.659 23.8366Z" fill="#FFFDF7"/>
<path d="M28.3061 21.6433C27.1851 21.6433 25.3755 20.7414 23.2227 19.0792L23.371 18.8818C25.9365 20.8632 28.1132 21.7893 28.9169 21.2391C29.3659 20.9325 29.2788 20.2027 29.1274 19.6441L29.3639 19.578C29.6771 20.7309 29.3691 21.2296 29.0548 21.4449C28.8599 21.5772 28.6079 21.6433 28.3061 21.6433Z" fill="#FFFDF7"/>
<path d="M28.5401 15.6065C27.8681 15.6065 26.7979 15.0773 25.5327 14.0997L25.681 13.9023C27.4813 15.2925 28.5204 15.513 28.8636 15.2789C29.1011 15.1161 29.0503 14.7129 28.9663 14.4032L29.2027 14.337C29.3946 15.0405 29.1986 15.3492 29.0015 15.4847C28.8802 15.5655 28.7257 15.6065 28.5401 15.6065Z" fill="#FFFDF7"/>
<path d="M23.6109 26.4468L23.4377 26.2714C27.8119 21.8594 28.8655 14.5745 25.7866 10.0333L25.9888 9.89258C29.131 14.5283 28.0649 21.9539 23.6109 26.4468Z" fill="#FFFDF7"/>
<path d="M26.0893 26.7084L25.9161 26.533C30.282 22.1283 30.2332 14.7332 25.8052 10.0481L25.9825 9.87695C30.5018 14.6586 30.5495 22.2091 26.0893 26.7084Z" fill="#FFFDF7"/>
<path d="M26.3037 24.819L26.2477 24.6143C25.3818 21.4307 20.8915 15.9172 16.2394 12.3231L16.1274 12.237L16.227 12.1362C19.2375 9.09957 22.3215 7.53823 24.2753 8.06322C25.1339 8.29422 25.7323 8.92527 26.0061 9.89021C28.1848 11.587 29.479 13.9831 29.6522 16.6427C29.841 19.546 28.7054 22.3967 26.453 24.6689L26.3037 24.819ZM16.4997 12.2118C21.0512 15.7597 25.4264 21.1157 26.425 24.3444C28.5302 22.1489 29.5879 19.4273 29.4075 16.6595C29.2374 14.0587 27.966 11.7162 25.8246 10.0624L25.7914 10.0372L25.781 9.99731C25.5332 9.08697 25.0054 8.51682 24.2131 8.30472C22.363 7.80597 19.4169 9.30222 16.4997 12.2118Z" fill="#FFFDF7"/>
<path d="M29.1246 19.6441C28.3779 16.8984 24.5036 12.1409 20.4883 9.0392L20.6366 8.8418C24.6882 11.9718 28.6009 16.7871 29.36 19.578L29.1246 19.6441Z" fill="#FFFDF7"/>
<path d="M28.9675 14.3995C28.533 12.8035 26.2765 10.0357 23.938 8.22865L24.0863 8.03125C26.4621 9.86664 28.758 12.6932 29.204 14.3333L28.9675 14.3995Z" fill="#FFFDF7"/>
<path d="M24.5037 20.841L24.3306 20.6657C27.0828 17.8895 28.462 14.8897 28.0203 12.6416C27.788 11.4572 27.0403 10.571 25.8581 10.0786L25.9514 9.84863C27.2124 10.3747 28.0109 11.3228 28.2609 12.5933C28.7192 14.9222 27.3141 18.006 24.5037 20.841Z" fill="#FFFDF7"/>
<path d="M20.8958 16.4078L20.7227 16.2325C24.6426 12.2782 26.1629 10.3389 26.2873 9.91363C26.2354 9.92833 26.138 9.96823 25.9648 10.0701L25.8414 9.85588C26.112 9.69628 26.3786 9.57133 26.5009 9.73198C26.5849 9.84328 26.726 10.0281 25.1393 11.8813C24.1241 13.0668 22.6567 14.6323 20.8958 16.4078Z" fill="#FFFDF7"/>
<path d="M16.3164 12.3866L16.2313 12.3204C14.2776 10.8105 12.8745 10.0556 11.8852 9.70067C11.0276 10.2236 10.2249 10.8504 9.50214 11.5791L9.35281 11.7293L9.29681 11.5245C8.93697 10.2005 9.28852 9.62927 9.64732 9.38463C10.1192 9.06228 10.8803 9.08643 11.8582 9.42873C15.0865 7.50304 19.0593 7.01164 22.4897 8.07423C23.1472 7.93038 23.7466 7.92198 24.2662 8.06163C25.1372 8.29578 25.7398 8.94153 26.0083 9.92852L26.1048 10.2834L25.8155 10.0598C24.8096 9.28278 23.6751 8.70633 22.4721 8.32728C20.7247 8.73048 18.546 10.1364 16.391 12.3099L16.3164 12.3866ZM12.1569 9.54002C13.3049 9.99572 14.7183 10.8483 16.2946 12.0579C18.294 10.0577 20.3224 8.71053 22.0252 8.19603C18.8146 7.32244 15.1715 7.80333 12.1569 9.54002ZM10.5122 9.41823C10.0901 9.41823 9.87028 9.53162 9.78525 9.58937C9.31029 9.91382 9.34244 10.6352 9.48244 11.2515C10.1275 10.6226 10.8326 10.0724 11.5803 9.59988C11.1313 9.46443 10.7808 9.41823 10.5122 9.41823ZM22.9792 8.23698C23.927 8.57718 24.8272 9.04023 25.6516 9.62927C25.3716 8.92998 24.8863 8.48373 24.205 8.30103C23.8368 8.20233 23.4251 8.18238 22.9792 8.23698Z" fill="#FFFDF7"/>
<path d="M20.4914 9.03911C17.9258 7.05778 15.7481 6.13168 14.9454 6.68188C14.4964 6.98848 14.5835 7.71822 14.7349 8.27682L14.4985 8.34297C14.1853 7.19007 14.4933 6.69133 14.8075 6.47608C15.7273 5.84713 17.9082 6.73123 20.6397 8.84172L20.4914 9.03911Z" fill="#FFFDF7"/>
<path d="M23.9303 8.22718C22.13 6.83699 21.0899 6.61649 20.7477 6.85169C20.5102 7.01444 20.561 7.41764 20.645 7.72739L20.4086 7.79354C20.2167 7.09004 20.4127 6.78134 20.6097 6.64589C21.1666 6.2658 22.4629 6.78239 24.0786 8.03084L23.9303 8.22718Z" fill="#FFFDF7"/>
<path d="M25.7892 10.0318C24.4349 8.03364 22.4314 6.8146 20.1479 6.59935C17.4485 6.34525 14.6009 7.5118 12.3319 9.80183L12.1587 9.62648C14.4806 7.285 17.4008 6.0922 20.1707 6.3526C22.5278 6.5752 24.5946 7.83204 25.9915 9.89213L25.7892 10.0318Z" fill="#FFFDF7"/>
<path d="M25.812 10.0486C23.6094 7.71867 20.6943 6.41458 17.6009 6.37678C14.6672 6.34318 11.9274 7.46457 9.86996 9.54041L9.69678 9.36506C11.7687 7.27452 14.5231 6.12793 17.4661 6.12793C17.5117 6.12793 17.5574 6.12793 17.603 6.12898C20.7617 6.16678 23.7401 7.49817 25.9883 9.87746L25.812 10.0486Z" fill="#FFFDF7"/>
<path d="M17.8492 30.0729C17.6367 30.0729 17.4127 30.0635 17.2436 30.0509C16.9595 30.0309 16.5623 29.9889 16.0303 29.9217C15.7171 29.8818 15.3272 29.7947 15.0887 29.7327C14.6967 29.6298 14.172 29.4692 13.7821 29.3316C13.445 29.213 12.7108 28.9032 12.0741 28.5336C11.7796 28.3635 10.9977 27.9099 10.1961 27.2148C9.79268 26.8652 9.18084 26.3024 8.52545 25.4551C8.30871 25.1758 8.14175 24.9311 8.14071 24.929C7.97272 24.6823 7.97272 24.6823 7.71657 24.2696C7.5185 23.9504 7.31007 23.5315 7.22088 23.353C7.08814 23.0852 6.94815 22.7681 6.86311 22.5413C6.79985 22.3733 6.73452 22.1854 6.67126 21.9985C6.58001 21.7507 6.49912 21.4976 6.42964 21.2414C6.33527 20.8697 6.21187 20.3794 6.16105 20.0045C6.11335 19.6559 6.06046 19.258 6.03557 18.9514C6.0252 18.8296 5.99306 18.4054 6.00135 18.0736L6.00239 18.0211C6.00965 17.7156 6.01898 17.3355 6.04076 17.0425C6.06046 16.7863 6.10194 16.4335 6.14653 16.1448C6.31557 15.0654 6.5883 14.2852 6.59971 14.2527C6.6806 14.0248 6.82993 13.5996 6.95541 13.2993C7.04666 13.0809 7.19496 12.7638 7.35258 12.4519C7.58591 11.9889 7.94472 11.404 8.24441 10.9945C8.62811 10.4717 9.11862 9.88891 9.49505 9.51196C10.0654 8.94076 10.2884 8.76961 11.0309 8.20262C11.2891 8.00522 11.6541 7.78262 11.9051 7.63352C12.1343 7.49702 12.4578 7.32272 12.7285 7.19042C12.9898 7.06232 13.3621 6.90062 13.6763 6.77882C13.8547 6.70953 14.0704 6.63918 14.2798 6.57198C14.3711 6.54258 14.4592 6.51423 14.5381 6.48693C14.8315 6.38823 15.2194 6.30423 15.5595 6.23388C15.7441 6.19608 15.966 6.16248 16.1807 6.13098C16.2719 6.11733 16.3591 6.10473 16.4389 6.09213C16.7656 6.03963 17.197 6.01968 17.5371 6.00918C17.8285 5.99868 18.1697 6.00183 18.4051 6.01548C18.7452 6.03543 19.2191 6.08058 19.6101 6.13098C20.1649 6.20238 20.6606 6.33468 21.1843 6.47538C21.5752 6.58038 22.0937 6.76517 22.4743 6.93422C22.8269 7.09172 23.0903 7.21457 23.278 7.31222C23.5155 7.43507 23.8328 7.61462 24.0672 7.75952C24.3109 7.90967 24.5898 8.09447 24.7775 8.23097C25.0575 8.43571 25.1519 8.50396 25.5719 8.85571C25.6175 8.89456 25.8571 9.09931 26.1713 9.40696C26.4108 9.64216 26.611 9.86371 26.7074 9.96975C26.8236 10.0989 27.0828 10.4034 27.2456 10.6176C27.509 10.962 27.5557 11.0334 27.8181 11.424C28.0151 11.719 28.3635 12.3238 28.5523 12.726C28.6974 13.0347 28.9401 13.5523 29.1382 14.1655C29.3539 14.8312 29.5022 15.4171 29.5799 15.9064C29.6588 16.402 29.7479 16.9617 29.7645 17.7649C29.7832 18.6459 29.7054 19.3409 29.6577 19.6769C29.609 20.0203 29.5188 20.6608 29.2502 21.5606C29.0884 22.1035 28.796 22.8007 28.5792 23.29C28.4797 23.5147 28.32 23.8139 28.0908 24.2045C27.9912 24.3757 27.8595 24.5731 27.733 24.7631C27.6781 24.8471 27.6241 24.9269 27.5764 25.0015C27.3981 25.2776 27.1264 25.6147 26.9314 25.8383L26.8962 25.8793C26.6618 26.1481 26.3714 26.482 26.1174 26.7129C26.0603 26.7654 25.9981 26.8221 25.9338 26.882C25.7596 27.0426 25.5626 27.2243 25.3966 27.3608C25.1675 27.5498 24.8294 27.8207 24.5535 27.9981L24.3638 28.121C24.1667 28.2491 23.9427 28.394 23.7582 28.5C23.473 28.6628 23.0996 28.856 22.83 28.9809C21.877 29.4219 21.0547 29.6361 20.9644 29.6592C20.4034 29.801 19.6692 29.928 19.2098 29.9931C18.9599 30.0288 18.6467 30.0414 18.3698 30.053C18.2786 30.0572 18.1915 30.0603 18.1106 30.0645C18.0307 30.0708 17.9405 30.0729 17.8492 30.0729ZM8.47256 24.971C8.53789 25.0613 8.62292 25.1779 8.71833 25.3007C9.36128 26.1313 9.96067 26.6825 10.3558 27.0258C11.1398 27.7062 11.9071 28.1504 12.1954 28.3173C12.8187 28.6785 13.5332 28.9809 13.863 29.0964C14.2467 29.2308 14.7641 29.3894 15.1509 29.4912C15.4558 29.571 15.8125 29.6435 16.0614 29.675C16.5882 29.7422 16.9813 29.7842 17.2613 29.8031C17.4956 29.8199 17.8389 29.8325 18.1002 29.8188C18.1821 29.8146 18.2703 29.8104 18.3615 29.8073C18.6322 29.7957 18.9402 29.7831 19.1777 29.7495C19.6308 29.6855 20.3557 29.5605 20.9074 29.4209C20.9955 29.3988 21.7982 29.1899 22.7315 28.7573C22.9959 28.6344 23.362 28.4454 23.641 28.2858C23.8204 28.184 24.0402 28.0401 24.2352 27.9141L24.426 27.7902C24.6915 27.6201 25.0212 27.3545 25.2463 27.1707C25.407 27.0395 25.6009 26.8599 25.7731 26.7014C25.8384 26.6416 25.9006 26.5838 25.9587 26.5313C26.2024 26.3098 26.4886 25.9822 26.7178 25.7176L26.753 25.6766C26.9418 25.4593 27.2052 25.1327 27.3763 24.8671C27.424 24.7925 27.479 24.7106 27.535 24.6266C27.6594 24.4387 27.788 24.2444 27.8844 24.0796C28.1084 23.6974 28.264 23.4065 28.3594 23.1902C28.573 22.7072 28.8603 22.0205 29.0189 21.4903C29.2823 20.6083 29.3715 19.9804 29.4192 19.6433C29.4659 19.3147 29.5416 18.6343 29.5229 17.7712C29.5063 16.9858 29.4192 16.4346 29.3414 15.9484C29.2657 15.4707 29.1195 14.8984 28.908 14.2443C28.714 13.6468 28.4755 13.1376 28.3335 12.8341C28.1489 12.4414 27.8098 11.8524 27.62 11.5689C27.3587 11.1793 27.313 11.11 27.0538 10.7709C26.8941 10.562 26.6421 10.2648 26.5291 10.1388C26.4347 10.0338 26.2377 9.81646 26.0033 9.58546C25.6953 9.28306 25.462 9.08461 25.4184 9.04786C25.0046 8.70136 24.9113 8.63311 24.6365 8.43256C24.454 8.29922 24.1813 8.11862 23.9427 7.97162C23.7136 7.82987 23.4025 7.65452 23.1691 7.53377C22.9856 7.43822 22.7274 7.31747 22.3789 7.16207C22.0087 6.99722 21.5047 6.81767 21.1241 6.71583C20.6087 6.57723 20.1213 6.44703 19.5821 6.37773C19.1953 6.32838 18.7297 6.28323 18.3937 6.26328C18.1645 6.24963 17.8326 6.24753 17.5485 6.25698C17.2156 6.26853 16.7936 6.28743 16.4804 6.33783C16.4005 6.35043 16.3113 6.36408 16.2201 6.37773C16.0085 6.40923 15.7897 6.44178 15.6124 6.47853C15.3718 6.52893 14.9238 6.62133 14.6189 6.72422C14.5381 6.75152 14.4499 6.77987 14.3576 6.81032C14.1512 6.87752 13.9376 6.94577 13.7665 7.01297C13.4585 7.13267 13.0935 7.29122 12.8374 7.41617C12.576 7.54427 12.2514 7.71752 12.0316 7.84877C11.7848 7.99577 11.4291 8.21312 11.1812 8.40211C10.4491 8.96176 10.2282 9.13081 9.67031 9.68941C9.30217 10.059 8.81996 10.6292 8.44352 11.1436C8.15108 11.5426 7.80161 12.1149 7.57347 12.5664C7.41791 12.874 7.27273 13.1848 7.18355 13.398C7.06118 13.692 6.91289 14.112 6.83304 14.3377C6.82163 14.3692 6.55719 15.1284 6.39127 16.1847C6.34772 16.4629 6.30623 16.8157 6.28757 17.0625C6.26579 17.3491 6.2575 17.7261 6.25024 18.0285L6.2492 18.081C6.24401 18.2962 6.25646 18.6144 6.28238 18.9314C6.30935 19.2559 6.37053 19.7042 6.40683 19.9709C6.45557 20.3321 6.5769 20.8141 6.66608 21.1669C6.66712 21.1721 6.66815 21.1763 6.67023 21.1816C6.72934 21.3758 6.81126 21.6352 6.89837 21.8966C7.48014 23.4832 8.50782 24.8776 9.9026 25.9706C9.92127 25.9853 9.9389 25.999 9.95756 26.0137L9.80927 26.2111C9.31876 25.831 8.87285 25.4173 8.47256 24.971Z" fill="#FFFDF7"/>
</svg>
