<svg width="44" height="30" viewBox="0 0 44 30" fill="none" xmlns="http://www.w3.org/2000/svg">
  <g clip-path="url(#clip0_2971_1301)">
    <path fill-rule="evenodd" clip-rule="evenodd" d="M42.6241 17.4046L43.4989 17.2314L13.5 17.1591L15.1149 18.8431V27.69H19.4825V18.0011H21.372V27.69H28.7456V25.7828H35.2194V18.8431H35.3727L39.4113 18.0421V20.0351L38.483 20.2432V28.5794L41.6548 30.0009H43.498V19.5324H42.6232V17.4055L42.6241 17.4046ZM40.0275 17.9198L40.6927 17.7877V19.7476L40.0275 19.8967V17.9198ZM41.6557 19.5315L41.3071 19.6092V17.6653L42.0088 17.526V19.5315H41.6548H41.6557Z"/>
    <path fill-rule="evenodd" clip-rule="evenodd" d="M28.7467 6.3227V3.79933H21.3731V0H0.5V28.591H10.875V13.9455H28.7467V9.2318H21.3731V6.3227H28.7467ZM19.4827 13.7008H13.5002V3.88148H19.4827V13.7008Z"/>
  </g>
  <defs>
    <clipPath id="clip0_2971_1301">
      <rect width="43" height="30" fill="white" transform="translate(0.5)"/>
    </clipPath>
  </defs>
</svg>
