<svg width="34" height="34" viewBox="0 0 34 34" fill="none" xmlns="http://www.w3.org/2000/svg">
<path fill-rule="evenodd" clip-rule="evenodd" d="M18.5628 2.5C18.5628 1.94772 18.1151 1.5 17.5628 1.5C17.0105 1.5 16.5628 1.94772 16.5628 2.5V4.21986H14.4522C13.9 4.21986 13.4522 4.66757 13.4522 5.21986C13.4522 5.77214 13.9 6.21986 14.4522 6.21986H16.5628V9.77352L10.9195 12.0326L10.2912 12.2842V12.961V18.5109L4.53899 20.3787L3.84782 20.6031V21.3298V30.7174V31.7174H4.84782H15.0683H20.0573H30.5H31.5V30.7174V21.3298V20.6031L30.8088 20.3787L25.0567 18.5109V12.961V12.2755L24.4173 12.0283L18.5628 9.76484V6.21986H20.6734C21.2257 6.21986 21.6734 5.77214 21.6734 5.21986C21.6734 4.66757 21.2257 4.21986 20.6734 4.21986H18.5628V2.5ZM12.2912 13.6378L17.5692 11.525L23.0567 13.6465V19.2376V19.9643L23.7478 20.1887L29.5 22.0565V29.7174H21.0573V23.9951V23.9572L21.0545 23.9194C21.0481 23.8353 21.0447 23.7408 21.0402 23.6132L21.038 23.5527C21.0326 23.4039 21.0254 23.2255 21.0088 23.0377C20.9762 22.6675 20.9034 22.2022 20.6949 21.7476C20.4776 21.2737 20.12 20.8281 19.5605 20.5142C19.0159 20.2087 18.3482 20.066 17.5628 20.066C16.8103 20.066 16.1648 20.2135 15.6327 20.5194C15.0925 20.8299 14.738 21.2643 14.512 21.7202C14.152 22.4461 14.1059 23.298 14.0815 23.7483C14.0779 23.8146 14.0747 23.8722 14.0712 23.9194L14.0683 23.9572V23.9951V29.7174H5.84782V22.0565L11.6 20.1887L12.2912 19.9643V19.2376V13.6378ZM19.0573 24.0306V29.7174H16.0683V24.0323C16.0743 23.9507 16.0796 23.8716 16.0846 23.795C16.1163 23.3182 16.1417 22.9355 16.3038 22.6086C16.3803 22.4542 16.4797 22.3394 16.6295 22.2533C16.7874 22.1625 17.0681 22.066 17.5628 22.066C18.1156 22.066 18.4195 22.1674 18.582 22.2585C18.7296 22.3413 18.8144 22.4449 18.8769 22.5812C18.9483 22.7368 18.9927 22.9427 19.0166 23.2133C19.0282 23.3459 19.0341 23.4802 19.0393 23.6251L19.0413 23.6801C19.0451 23.7902 19.0495 23.9142 19.0573 24.0306ZM18.2391 15.3261C18.2391 15.6382 17.9861 15.8913 17.6739 15.8913C17.3618 15.8913 17.1087 15.6382 17.1087 15.3261C17.1087 15.0139 17.3618 14.7609 17.6739 14.7609C17.9861 14.7609 18.2391 15.0139 18.2391 15.3261ZM20.2391 15.3261C20.2391 16.7428 19.0906 17.8913 17.6739 17.8913C16.2572 17.8913 15.1087 16.7428 15.1087 15.3261C15.1087 13.9094 16.2572 12.7609 17.6739 12.7609C19.0906 12.7609 20.2391 13.9094 20.2391 15.3261Z" fill="#71A700"/>
</svg>
