<svg width="34" height="34" viewBox="0 0 34 34" fill="none" xmlns="http://www.w3.org/2000/svg">
<path fill-rule="evenodd" clip-rule="evenodd" d="M28.6977 7.81648C29.2865 8.09908 29.9038 8.23967 30.4986 8.19995C31.4076 8.12989 32.1766 7.77946 32.8061 7.07842C34.2044 5.53648 34.554 2.59315 32.876 1.05121C32.1067 0.42044 31.058 0 29.9394 0H29.7296C28.5409 0.0703137 27.4223 0.490734 26.793 1.26158C25.8224 2.3319 25.6602 3.87488 26.2365 5.25775C22.7255 2.84385 17.412 3.12604 16.9999 3.14792C16.9855 3.14869 16.9771 3.14914 16.975 3.14914H16.8352H15.9963C14.3669 3.14914 10.6028 3.43065 7.92665 5.50805C8.35374 4.2035 8.16657 2.79844 7.30861 1.80258C6.67932 1.03146 5.56046 0.611032 4.37202 0.540998H4.16243C2.97374 0.540998 1.92502 0.961482 1.15601 1.66227C-0.521999 3.20421 -0.242298 6.14754 1.15601 7.68948C1.7853 8.32026 2.5543 8.74069 3.46329 8.74094C4.16566 8.78231 4.84363 8.62784 5.46836 8.32099C2.48 12.9095 1.59377 19.2552 1.59377 20.9498C1.7333 28.2381 7.18712 32.5833 16.206 32.5833H18.3034C27.3227 32.5833 32.7066 28.238 32.9162 20.9498C32.9162 19.2549 31.9623 12.442 28.6977 7.81648ZM29.9394 2H29.7944C28.9464 2.06094 28.482 2.35521 28.3423 2.52636L28.3094 2.56661L28.2745 2.60511C27.7741 3.15687 27.6499 4.42769 28.7781 5.46813L28.7806 5.47042C29.407 6.05008 30.0059 6.22483 30.3566 6.20493C30.7803 6.17019 31.0568 6.03305 31.3181 5.74214L31.3246 5.73489L31.3246 5.73491C31.6799 5.34306 31.9638 4.67824 31.9969 3.9714C32.028 3.30625 31.8346 2.83529 31.5593 2.55899C31.1287 2.22397 30.5437 2 29.9394 2ZM30.9161 20.9236C30.91 20.1811 30.6504 17.8556 29.8678 15.1555C29.0741 12.417 27.8239 9.58506 26.0133 7.6809L26.0056 7.67276L26.0056 7.67274C24.7569 6.34454 22.7018 5.64785 20.659 5.3366C18.9014 5.06881 17.4984 5.12788 17.0853 5.14528C17.0308 5.14757 16.9936 5.14914 16.975 5.14914H16.8352H15.9963C15.1965 5.14914 13.8042 5.22809 12.3416 5.60988C10.8655 5.9952 9.47639 6.64713 8.49881 7.67857L8.49655 7.68096C6.68392 9.58717 5.43427 12.404 4.6416 15.1307C3.85671 17.8305 3.59776 20.1642 3.59381 20.9322C3.6581 24.0309 4.8236 26.3486 6.81599 27.9351C8.86456 29.5664 11.9926 30.5833 16.206 30.5833H18.3034C22.516 30.5833 25.6254 29.5669 27.6649 27.9372C29.6489 26.3519 30.8193 24.0312 30.9161 20.9236ZM25 18.5002C25 18.7758 24.7763 19 24.4998 19C24.2238 19 24 18.7763 24 18.5002C24 18.2235 24.224 18 24.4998 18C24.776 18 25 18.224 25 18.5002ZM27 18.5002C27 19.8806 25.8806 21 24.4998 21C23.119 21 22 19.8806 22 18.5002C22 17.1194 23.119 16 24.4998 16C25.8806 16 27 17.1194 27 18.5002ZM10 18.5002C10 18.7758 9.77625 19 9.49979 19C9.22376 19 9 18.7763 9 18.5002C9 18.2235 9.22398 18 9.49979 18C9.77604 18 10 18.224 10 18.5002ZM12 18.5002C12 19.8806 10.8806 21 9.49979 21C8.11898 21 7 19.8806 7 18.5002C7 17.1194 8.11898 16 9.49979 16C10.8806 16 12 17.1194 12 18.5002ZM5.30714 6.02415C6.37775 4.98411 6.27984 3.67263 5.79338 3.10798L5.77597 3.08777L5.75911 3.0671C5.61944 2.89596 5.15505 2.6017 4.30746 2.541H4.16243C3.45628 2.541 2.89403 2.78584 2.50644 3.13752C2.19826 3.42251 1.97987 3.92249 2.00142 4.61354C2.02279 5.29883 2.27985 5.93102 2.60803 6.31254C2.95957 6.65269 3.23643 6.74088 3.46384 6.74094L3.52241 6.74096L3.58088 6.7444C4.11072 6.77561 4.71242 6.5689 5.30714 6.02415ZM14.0294 20.3672H13.0294V21.3672C13.0294 22.0798 13.2155 22.9701 14.0447 23.635C14.6407 24.113 15.4672 24.3879 16.5373 24.4877V24.6483C16.347 24.9954 16.0375 25.3923 15.6657 25.6326C15.2967 25.871 14.8606 25.9749 14.2461 25.6327L13.2731 27.38C14.6014 28.1197 15.8293 27.908 16.7511 27.3125C17.0524 27.1178 17.3179 26.8855 17.5475 26.6395C17.7916 26.8919 18.0759 27.1295 18.4007 27.327C19.3638 27.9126 20.6284 28.1043 22.0329 27.4003L21.1368 25.6123C20.3826 25.9903 19.8483 25.8665 19.4397 25.6181C19.0413 25.3758 18.7254 24.9829 18.5373 24.6464V24.4494C19.4353 24.294 20.1261 23.9258 20.6234 23.4223C21.2694 22.7682 21.5055 21.9673 21.5055 21.3672V20.3672H20.5055H14.0294ZM17.5373 22.5311C16.8155 22.5311 16.3065 22.4614 15.9497 22.3672H18.627C18.3632 22.463 18.01 22.5311 17.5373 22.5311Z" fill="#71A700"/>
</svg>
