<svg width="34" height="35" viewBox="0 0 34 35" fill="none" xmlns="http://www.w3.org/2000/svg">
<path fill-rule="evenodd" clip-rule="evenodd" d="M6.97132 0.889005C7.15962 0.631474 7.45951 0.479248 7.77854 0.479248H26.2221C26.5411 0.479248 26.841 0.631474 27.0293 0.889005L31.6402 7.19494C31.7655 7.36625 31.833 7.57296 31.833 7.78518V8.33345V29.8559C31.833 30.9493 31.4098 32.0028 30.6487 32.7835C29.8868 33.565 28.8479 34.0089 27.7591 34.0089H6.24158C5.1528 34.0089 4.1139 33.565 3.35196 32.7835C2.59086 32.0028 2.16765 30.9493 2.16765 29.8559V8.33345V7.78518C2.16765 7.57296 2.23516 7.36625 2.36042 7.19494L6.97132 0.889005ZM29.833 29.8559V9.33344H4.16765V29.8559C4.16765 30.435 4.39216 30.9854 4.78401 31.3874C5.17501 31.7884 5.69985 32.0089 6.24158 32.0089H27.7591C28.3008 32.0089 28.8256 31.7884 29.2167 31.3874C29.6085 30.9854 29.833 30.435 29.833 29.8559ZM29.2639 7.33345H4.73677L8.28615 2.47925H25.7145L29.2639 7.33345ZM11.084 13.817C11.084 13.2647 10.6363 12.817 10.084 12.817C9.53175 12.817 9.08403 13.2647 9.08403 13.817C9.08403 15.903 9.92028 17.9017 11.4059 19.374C12.8911 20.8459 14.9037 21.6713 17.0004 21.6713C19.097 21.6713 21.1096 20.8459 22.5949 19.374C24.0805 17.9017 24.9167 15.903 24.9167 13.817C24.9167 13.2647 24.469 12.817 23.9167 12.817C23.3644 12.817 22.9167 13.2647 22.9167 13.817C22.9167 15.3667 22.2956 16.8548 21.187 17.9534C20.0782 19.0523 18.5724 19.6713 17.0004 19.6713C15.4284 19.6713 13.9225 19.0523 12.8137 17.9534C11.7051 16.8548 11.084 15.3667 11.084 13.817Z" fill="#71A700"/>
</svg>
