<svg width="34" height="34" viewBox="0 0 34 34" fill="none" xmlns="http://www.w3.org/2000/svg">
<path fill-rule="evenodd" clip-rule="evenodd" d="M9.52429 2.56116C5.19283 3.11223 1.9806 7.46994 2.56369 12.4703C3.01598 16.3489 5.59614 19.2796 8.75245 20.1422V17.4601L5.71531 14.2493C5.33578 13.8481 5.35338 13.2152 5.7546 12.8356C6.15582 12.4561 6.78875 12.4737 7.16827 12.8749L8.75245 14.5497V8.15286C8.75245 7.60058 9.20016 7.15286 9.75245 7.15286C10.3047 7.15286 10.7524 7.60058 10.7524 8.15286V12.7939L13.6665 9.72755C14.047 9.32721 14.6799 9.31109 15.0803 9.69155C15.4806 10.072 15.4967 10.705 15.1163 11.1053L10.7524 15.6972V17.0621V20.4023C11.0328 20.3995 11.3149 20.3805 11.598 20.3445C11.941 20.3009 12.276 20.2339 12.6017 20.1453C12.3827 19.7287 12.2587 19.2543 12.2587 18.751V18.6024C12.2587 16.9455 13.6019 15.6024 15.2587 15.6024H17.7651C17.7737 15.5784 17.7834 15.5546 17.794 15.5309C18.4735 14.018 18.7717 12.2632 18.5586 10.4354C17.9755 5.43501 13.8558 2.0101 9.52429 2.56116ZM19.9136 15.6024C20.5248 13.9386 20.7646 12.0866 20.5426 10.183C19.8525 4.26471 14.8907 -0.137577 9.29264 0.574623C3.69462 1.28682 -0.110443 6.80446 0.579685 12.7227C1.13956 17.524 4.51085 21.3275 8.75245 22.2119V27.6642C8.59333 27.6879 8.42597 27.7214 8.25453 27.7686C7.72869 27.2462 6.90152 26.7384 5.78526 26.7384C4.79557 26.7384 3.91169 27.0954 3.27477 27.7428C2.64059 28.3874 2.30577 29.2644 2.30577 30.2084C2.30577 30.6781 2.36775 31.1139 2.46284 31.5019H1.97748C1.42519 31.5019 0.977478 31.9496 0.977478 32.5019C0.977478 33.0542 1.42519 33.5019 1.97748 33.5019H3.96697H12.2319H13.879H24.4582H27.6815H30.9049H32.5C33.0523 33.5019 33.5 33.0542 33.5 32.5019C33.5 31.9496 33.0523 31.5019 32.5 31.5019H30.9049H29.4973C29.5124 31.3949 29.5202 31.2857 29.5202 31.1746V28.6653H29.8377C31.4946 28.6653 32.8377 27.3222 32.8377 25.6653V25.5167C32.8377 23.8598 31.4946 22.5167 29.8377 22.5167H28.1929V21.751H28.5106C30.1674 21.751 31.5106 20.4079 31.5106 18.751V18.6024C31.5106 16.9455 30.1674 15.6024 28.5106 15.6024H19.9136ZM26.1929 21.751V22.5167H17.5764V21.751H26.1929ZM15.5764 21.751V22.5167H13.9317C12.2748 22.5167 10.9317 23.8598 10.9317 25.5167V25.6653C10.9317 27.3222 12.2748 28.6653 13.9317 28.6653H14.2493V31.1746C14.2493 31.2857 14.2571 31.3949 14.2722 31.5019H13.879H13.5867C13.5248 30.3815 13.128 29.4316 12.4634 28.7397C11.9837 28.2405 11.3918 27.9048 10.7524 27.7356V22.406C11.1082 22.4018 11.4676 22.3771 11.8297 22.331C12.6833 22.2224 13.4995 21.9999 14.2661 21.6788C14.3067 21.6618 14.3455 21.6425 14.3826 21.6211C14.6598 21.7056 14.9539 21.751 15.2587 21.751H15.5764ZM24.4582 31.5019H24.8889C24.8738 31.3949 24.866 31.2857 24.866 31.1746V28.6653H18.9035V31.1746C18.9035 31.2857 18.8957 31.3949 18.8806 31.5019H24.4582ZM4.55947 31.5019H11.582C11.5257 30.8557 11.2958 30.4113 11.0211 30.1253C10.7013 29.7925 10.2573 29.6067 9.75245 29.6067C9.25691 29.6067 8.81009 29.6234 8.43241 29.8404L7.53895 30.3539L7.05256 29.4454C7.01497 29.3752 6.87829 29.1836 6.64288 29.0158C6.42114 28.8577 6.13789 28.7384 5.78526 28.7384C5.28725 28.7384 4.93139 28.9107 4.70049 29.1454C4.46685 29.3829 4.30577 29.7409 4.30577 30.2084C4.30577 30.7434 4.4343 31.1956 4.55947 31.5019ZM14.2587 18.6024C14.2587 18.0501 14.7064 17.6024 15.2587 17.6024H28.5106C29.0629 17.6024 29.5106 18.0501 29.5106 18.6024V18.751C29.5106 19.3033 29.0629 19.751 28.5106 19.751H15.2587C14.7064 19.751 14.2587 19.3033 14.2587 18.751V18.6024ZM13.9317 24.5167C13.3794 24.5167 12.9317 24.9644 12.9317 25.5167V25.6653C12.9317 26.2176 13.3794 26.6653 13.9317 26.6653H29.8377C30.39 26.6653 30.8377 26.2176 30.8377 25.6653V25.5167C30.8377 24.9644 30.39 24.5167 29.8377 24.5167H13.9317ZM16.2493 31.1746V29.1231H16.9035V31.1746C16.9035 31.3552 16.757 31.5017 16.5764 31.5017C16.3958 31.5017 16.2493 31.3552 16.2493 31.1746ZM26.866 29.1231V31.1746C26.866 31.3552 27.0125 31.5017 27.1931 31.5017C27.3737 31.5017 27.5202 31.3552 27.5202 31.1746V29.1231H26.866Z" fill="#71A700"/>
</svg>
