<svg width="28" height="39" viewBox="0 0 28 39" fill="none" xmlns="http://www.w3.org/2000/svg">
  <path d="M2.63107 38.3565C2.82796 38.8725 3.40587 39.1312 3.92187 38.9343C4.43786 38.7374 4.69655 38.1595 4.49966 37.6435L2.63107 38.3565ZM6.99953 13.5L7.69035 14.223L6.99953 13.5ZM25.1517 1L26.0495 0.559554C25.8496 0.15217 25.4005 -0.0695791 24.9556 0.0194249C24.5106 0.108429 24.1814 0.485873 24.1536 0.938791L25.1517 1ZM20.7364 22L20.0049 21.3182L20.7364 22ZM3.92236 28.0659C3.40647 27.8687 2.82842 28.1271 2.63126 28.643C2.4341 29.1589 2.69248 29.7369 3.20837 29.9341L3.92236 28.0659ZM1.05212 28L0.0546507 28.0711L1.05212 28ZM13.2439 18.4341C13.7598 18.2369 14.0181 17.6589 13.821 17.143C13.6238 16.6271 13.0457 16.3687 12.5299 16.5659L13.2439 18.4341ZM7.69035 14.223C11.4201 10.6594 15.585 9.59778 19.1569 8.38435C20.902 7.7915 22.5918 7.1318 23.8663 6.02993C25.2001 4.87685 26.0123 3.30418 26.1499 1.06121L24.1536 0.938791C24.0459 2.69582 23.4476 3.74815 22.5583 4.51695C21.6098 5.33695 20.264 5.896 18.5136 6.49065C15.0943 7.65222 10.4285 8.84062 6.3087 12.777L7.69035 14.223ZM24.2539 1.44045C24.9657 2.89119 26.1063 5.46265 25.992 8.84119C25.8785 12.1957 24.522 16.4721 20.0049 21.3182L21.4679 22.6818C26.272 17.5279 27.8591 12.8043 27.9909 8.90881C28.1219 5.03735 26.8096 2.10881 26.0495 0.559554L24.2539 1.44045ZM20.0049 21.3182C12.765 29.0852 6.08204 28.8913 3.92236 28.0659L3.20837 29.9341C6.28183 31.1087 13.7937 30.9148 21.4679 22.6818L20.0049 21.3182ZM4.49966 37.6435C3.18942 34.2097 2.26782 30.9911 2.04959 27.9289L0.0546507 28.0711C0.293033 31.4161 1.29118 34.845 2.63107 38.3565L4.49966 37.6435ZM2.04959 27.9289C1.70731 23.1261 3.0856 18.6227 7.69035 14.223L6.3087 12.777C1.27187 17.5895 -0.329856 22.6757 0.0546507 28.0711L2.04959 27.9289ZM2.05207 28.0101C2.05883 27.3388 2.50462 25.841 4.17923 24.0287C5.83294 22.239 8.64672 20.1911 13.2439 18.4341L12.5299 16.5659C7.70758 18.4089 4.61407 20.611 2.71031 22.6713C0.827437 24.709 0.0655626 26.6612 0.0521717 27.9899L2.05207 28.0101Z" fill="#71A700"/>
</svg>
