<svg width="34" height="34" viewBox="0 0 34 34" fill="none" xmlns="http://www.w3.org/2000/svg">
<path fill-rule="evenodd" clip-rule="evenodd" d="M9 2.00012C9.55228 2.00012 10 2.44784 10 3.00012V7.60012H11.6667V3.00012C11.6667 2.44784 12.1144 2.00012 12.6667 2.00012C13.219 2.00012 13.6667 2.44784 13.6667 3.00012V7.60012H15.3333V3.70012V3.00012C15.3333 2.44784 15.781 2.00012 16.3333 2.00012C16.8856 2.00012 17.3333 2.44784 17.3333 3.00012V3.70012V8.60012V12.4588C17.3333 13.4377 16.8557 14.3551 16.0537 14.9165L15.7599 15.1222C15.4925 15.3093 15.3333 15.6151 15.3333 15.9414V29.3335C15.3333 30.8062 14.1394 32.0001 12.6667 32.0001C11.1939 32.0001 10 30.8062 10 29.3335V15.9414C10 15.6151 9.84079 15.3093 9.57346 15.1222L9.27961 14.9165C8.47763 14.3551 8 13.4378 8 12.4588V8.60012V3.00012C8 2.44784 8.44772 2.00012 9 2.00012ZM12.6667 30.0001C13.0349 30.0001 13.3333 29.7016 13.3333 29.3335V15.9414C13.3333 14.9625 13.811 14.0451 14.6129 13.4837L14.9068 13.278C15.1741 13.0909 15.3333 12.7851 15.3333 12.4588V9.60012H12.6667H10V12.4588C10 12.7851 10.1592 13.0909 10.4265 13.278L10.7204 13.4837C11.5224 14.0451 12 14.9625 12 15.9414V29.3335C12 29.7016 12.2985 30.0001 12.6667 30.0001ZM19.7347 3.03962C20.4291 2.50819 21.39 2.35713 22.2927 2.84962C24.1377 3.85623 26 5.86284 26 9.30012V9.32075V9.34139V9.36204V9.38269V9.40335V9.42403V9.44471V9.46539V9.48609V9.50679V9.5275V9.54822V9.56895V9.58968V9.61042V9.63117V9.65193V9.67269V9.69346V9.71424V9.73502V9.75581V9.77661V9.79742V9.81823V9.83905V9.85987V9.8807V9.90154V9.92238V9.94323V9.96409V9.98495V10.0058V10.0267V10.0476V10.0685V10.0893V10.1102V10.1311V10.152V10.173V10.1939V10.2148V10.2357V10.2567V10.2776V10.2985V10.3195V10.3404V10.3614V10.3824V10.4033V10.4243V10.4453V10.4662V10.4872V10.5082V10.5292V10.5502V10.5712V10.5922V10.6132V10.6342V10.6552V10.6762V10.6972V10.7183V10.7393V10.7603V10.7813V10.8024V10.8234V10.8444V10.8655V10.8865V10.9076V10.9286V10.9497V10.9707V10.9918V11.0128V11.0339V11.055V11.076V11.0971V11.1182V11.1392V11.1603V11.1814V11.2024V11.2235V11.2446V11.2657V11.2867V11.3078V11.3289V11.35V11.371V11.3921V11.4132V11.4343V11.4554V11.4764V11.4975V11.5186V11.5397V11.5608V11.5819V11.6029V11.624V11.6451V11.6662V11.6873V11.7083V11.7294V11.7505V11.7716V11.7927V11.8137V11.8348V11.8559V11.877V11.898V11.9191V11.9402V11.9612V11.9823V12.0034V12.0244V12.0455V12.0665V12.0876V12.1086V12.1297V12.1507V12.1718V12.1928V12.2139V12.2349V12.2559V12.277V12.298V12.319V12.3401V12.3611V12.3821V12.4031V12.4241V12.4451V12.4661V12.4871V12.5081V12.5291V12.5501V12.5711V12.5921V12.6131V12.634V12.655V12.676V12.6969V12.7179V12.7388V12.7598V12.7807V12.8017V12.8226V12.8435V12.8644V12.8854V12.9063V12.9272V12.9481V12.969V12.9899V13.0108V13.0316V13.0525V13.0734V13.0942V13.1151V13.136V13.1568V13.1776V13.1985V13.2193V13.2401V13.2609V13.2817V13.3025V13.3233V13.3441V13.3649V13.3857V13.4064V13.4272V13.4479V13.4687V13.4894V13.5101V13.5308V13.5516V13.5723V13.593V13.6136V13.6343V13.655V13.6757V13.6963V13.717V13.7376V13.7582V13.7789V13.7995V13.8201V13.8407V13.8613V13.8818V13.9024V13.923V13.9435V13.9641V13.9846V14.0051V14.0256V14.0461V14.0666V14.0871V14.1076V14.128V14.1485V14.1689V14.1894V14.2098V14.2302V14.2506V14.271V14.2914V14.3118V14.3321V14.3525V14.3728V14.3931V14.4135V14.4338V14.4541V14.4743V14.4946V14.5149V14.5351V14.5554V14.5756V14.5958V14.616V14.6362V14.6564V14.6765V14.6967V14.7168V14.737V14.7571V14.7772V14.7973V14.8173V14.8374V14.8575V14.8775V14.8975V14.9175V14.9375V14.9575V14.9775V14.9975V15.0174V15.0374V15.0573V15.0772V15.0971V15.117V15.1368V15.1567V15.1765V15.1963V15.2161V15.2359V15.2557V15.2755V15.2952V15.315V15.3347V15.3544V15.3741V15.3938V15.4134V15.4331V15.4527V15.4723V15.4919V15.5115V15.5311V15.5506V15.5702V15.5897V15.6092V15.6287V15.6481V15.6676V15.687V15.7065V15.7259V15.7453V15.7646V15.784V15.8033V15.8227V15.842V15.8613V15.8806V15.8998V15.9191V15.9383V15.9575V15.9767V15.9958V16.015V16.0341V16.0533V16.0724V16.0914V16.1105V16.1295V16.1486V16.1676V16.1866V16.2056V16.2245V16.2434V16.2624V16.2813V16.3001V16.319V16.3378V16.3567V16.3755V16.3943V16.413V16.4318V16.4505V16.4692V16.4879V16.5066V16.5252V16.5438V16.5625V16.581V16.5996V16.6182V16.6367V16.6552V16.6737V16.6922V16.7106V16.729V16.7474V16.7658V16.7842V16.8025V16.8208V16.8391V16.8574V16.8757V16.8939V16.9121V16.9303V16.9485V16.9667V16.9848V17.0029V17.021V17.039V17.0571V17.0751V17.0931V17.1111V17.129V17.147V17.1649V17.1827V17.2006V17.2184V17.2363V17.2541V17.2718V17.2896V17.3073V17.325V17.3427V17.3603V17.378V17.3956V17.4131V17.4307V17.4482V17.4658V17.4832V17.5007V17.5181V17.5356V17.5529V17.5703V17.5877V17.605V17.6223V17.6395V17.6568V17.674V17.6912V17.7084V17.7255V17.7426V17.7597V17.7768V17.7938V17.8108V17.8278V17.8448V17.8617V17.8786V17.8955V17.9124V17.9292V17.946V17.9628V17.9796V17.9963V18.013V18.0297V18.0463V18.0629V18.0795V18.0961V18.1127V18.1292V18.1457V18.1621V18.1785V18.195V18.2113V18.2277V18.244V18.2603V18.2766V18.2928V18.309V18.3252V18.3414V18.3575V18.3736V18.3897V18.4057V18.4217V18.4377V18.4537V18.4696V18.4855V18.5014V18.5172V18.533V18.5488V18.5646V18.5803V18.596V18.6116V18.6273V18.6429V18.6585V18.674V18.6895V18.705V18.7205V18.7359V18.7513V18.7667V18.782V18.7973V18.8126V18.8278V18.843V18.8582V18.8734V18.8885V18.9036V18.9186V18.9337V18.9487V18.9636V18.9786V18.9935V19.0083V19.0232V19.038V19.0528V19.0675V19.0822V19.0969V19.1115V19.1262V19.1407V19.1553V19.1698V19.1843C26 20.3038 25.3104 21.2611 24.3333 21.6564V29.1668C24.3333 30.7316 23.0648 32.0001 21.5 32.0001C19.9352 32.0001 18.6667 30.7316 18.6667 29.1668V20.8501V5.27978C18.6667 4.3828 19.0691 3.54909 19.7347 3.03962ZM21.5 30.0001C21.9602 30.0001 22.3333 29.627 22.3333 29.1668V21.8501H20.6667V29.1668C20.6667 29.627 21.0398 30.0001 21.5 30.0001ZM20.6667 19.8501H23.3333C23.7022 19.8501 24 19.5518 24 19.1843V19.1698V19.1553V19.1407V19.1262V19.1115V19.0969V19.0822V19.0675V19.0528V19.038V19.0232V19.0083V18.9935V18.9786V18.9636V18.9487V18.9337V18.9186V18.9036V18.8885V18.8734V18.8582V18.843V18.8278V18.8126V18.7973V18.782V18.7667V18.7513V18.7359V18.7205V18.705V18.6895V18.674V18.6585V18.6429V18.6273V18.6116V18.596V18.5803V18.5646V18.5488V18.533V18.5172V18.5014V18.4855V18.4696V18.4537V18.4377V18.4217V18.4057V18.3897V18.3736V18.3575V18.3414V18.3252V18.309V18.2928V18.2766V18.2603V18.244V18.2277V18.2113V18.195V18.1785V18.1621V18.1457V18.1292V18.1127V18.0961V18.0795V18.0629V18.0463V18.0297V18.013V17.9963V17.9796V17.9628V17.946V17.9292V17.9124V17.8955V17.8786V17.8617V17.8448V17.8278V17.8108V17.7938V17.7768V17.7597V17.7426V17.7255V17.7084V17.6912V17.674V17.6568V17.6395V17.6223V17.605V17.5877V17.5703V17.5529V17.5356V17.5181V17.5007V17.4832V17.4658V17.4482V17.4307V17.4131V17.3956V17.378V17.3603V17.3427V17.325V17.3073V17.2896V17.2718V17.2541V17.2363V17.2184V17.2006V17.1827V17.1649V17.147V17.129V17.1111V17.0931V17.0751V17.0571V17.039V17.021V17.0029V16.9848V16.9667V16.9485V16.9303V16.9121V16.8939V16.8757V16.8574V16.8391V16.8208V16.8025V16.7842V16.7658V16.7474V16.729V16.7106V16.6922V16.6737V16.6552V16.6367V16.6182V16.5996V16.581V16.5625V16.5438V16.5252V16.5066V16.4879V16.4692V16.4505V16.4318V16.413V16.3943V16.3755V16.3567V16.3378V16.319V16.3001V16.2813V16.2624V16.2434V16.2245V16.2056V16.1866V16.1676V16.1486V16.1295V16.1105V16.0914V16.0724V16.0533V16.0341V16.015V15.9958V15.9767V15.9575V15.9383V15.9191V15.8998V15.8806V15.8613V15.842V15.8227V15.8033V15.784V15.7646V15.7453V15.7259V15.7065V15.687V15.6676V15.6481V15.6287V15.6092V15.5897V15.5702V15.5506V15.5311V15.5115V15.4919V15.4723V15.4527V15.4331V15.4134V15.3938V15.3741V15.3544V15.3347V15.315V15.2952V15.2755V15.2557V15.2359V15.2161V15.1963V15.1765V15.1567V15.1368V15.117V15.0971V15.0772V15.0573V15.0374V15.0174V14.9975V14.9775V14.9575V14.9375V14.9175V14.8975V14.8775V14.8575V14.8374V14.8173V14.7973V14.7772V14.7571V14.737V14.7168V14.6967V14.6765V14.6564V14.6362V14.616V14.5958V14.5756V14.5554V14.5351V14.5149V14.4946V14.4743V14.4541V14.4338V14.4135V14.3931V14.3728V14.3525V14.3321V14.3118V14.2914V14.271V14.2506V14.2302V14.2098V14.1894V14.1689V14.1485V14.128V14.1076V14.0871V14.0666V14.0461V14.0256V14.0051V13.9846V13.9641V13.9435V13.923V13.9024V13.8818V13.8613V13.8407V13.8201V13.7995V13.7789V13.7582V13.7376V13.717V13.6963V13.6757V13.655V13.6343V13.6136V13.593V13.5723V13.5516V13.5308V13.5101V13.4894V13.4687V13.4479V13.4272V13.4064V13.3857V13.3649V13.3441V13.3233V13.3025V13.2817V13.2609V13.2401V13.2193V13.1985V13.1776V13.1568V13.136V13.1151V13.0942V13.0734V13.0525V13.0316V13.0108V12.9899V12.969V12.9481V12.9272V12.9063V12.8854V12.8644V12.8435V12.8226V12.8017V12.7807V12.7598V12.7388V12.7179V12.6969V12.676V12.655V12.634V12.6131V12.5921V12.5711V12.5501V12.5291V12.5081V12.4871V12.4661V12.4451V12.4241V12.4031V12.3821V12.3611V12.3401V12.319V12.298V12.277V12.2559V12.2349V12.2139V12.1928V12.1718V12.1507V12.1297V12.1086V12.0876V12.0665V12.0455V12.0244V12.0034V11.9823V11.9612V11.9402V11.9191V11.898V11.877V11.8559V11.8348V11.8137V11.7927V11.7716V11.7505V11.7294V11.7083V11.6873V11.6662V11.6451V11.624V11.6029V11.5819V11.5608V11.5397V11.5186V11.4975V11.4764V11.4554V11.4343V11.4132V11.3921V11.371V11.35V11.3289V11.3078V11.2867V11.2657V11.2446V11.2235V11.2024V11.1814V11.1603V11.1392V11.1182V11.0971V11.076V11.055V11.0339V11.0128V10.9918V10.9707V10.9497V10.9286V10.9076V10.8865V10.8655V10.8444V10.8234V10.8024V10.7813V10.7603V10.7393V10.7183V10.6972V10.6762V10.6552V10.6342V10.6132V10.5922V10.5712V10.5502V10.5292V10.5082V10.4872V10.4662V10.4453V10.4243V10.4033V10.3824V10.3614V10.3404V10.3195V10.2985V10.2776V10.2567V10.2357V10.2148V10.1939V10.173V10.152V10.1311V10.1102V10.0893V10.0685V10.0476V10.0267V10.0058V9.98495V9.96409V9.94323V9.92238V9.90154V9.8807V9.85987V9.83905V9.81823V9.79742V9.77661V9.75581V9.73502V9.71424V9.69346V9.67269V9.65193V9.63117V9.61042V9.58968V9.56895V9.54822V9.5275V9.50679V9.48609V9.46539V9.44471V9.42403V9.40335V9.38269V9.36204V9.34139V9.32075V9.30012C24 6.7316 22.6673 5.3323 21.3348 4.60533C21.2369 4.55191 21.1693 4.54742 21.1263 4.55154C21.0787 4.5561 21.0181 4.57593 20.9504 4.62779C20.8075 4.73712 20.6667 4.96883 20.6667 5.27978V19.8501Z" fill="#71A700"/>
</svg>
