<svg width="34" height="34" viewBox="0 0 34 34" fill="none" xmlns="http://www.w3.org/2000/svg">
<path fill-rule="evenodd" clip-rule="evenodd" d="M21.5 7.00012H23.5C24.73 7.00012 25.7525 7.88835 25.9611 9.05836C26.1347 9.02022 26.315 9.00012 26.5 9.00012H27.5C28.8807 9.00012 30 10.1194 30 11.5001V13.0001H30.5C31.8807 13.0001 33 14.1194 33 15.5001V18.5001C33 19.8808 31.8807 21.0001 30.5 21.0001H30V23.5001C30 24.8808 28.8807 26.0001 27.5 26.0001H26.5C26.315 26.0001 26.1347 25.98 25.9611 25.9419C25.7525 27.1119 24.73 28.0001 23.5 28.0001H21.5C20.1193 28.0001 19 26.8808 19 25.5001V21.0001H15V25.5001C15 26.8808 13.8807 28.0001 12.5 28.0001H10.5C9.27003 28.0001 8.24752 27.1119 8.03891 25.9419C7.86534 25.98 7.68502 26.0001 7.5 26.0001H6.5C5.11929 26.0001 4 24.8808 4 23.5001V21.0001H3.5C2.11929 21.0001 1 19.8808 1 18.5001V15.5001C1 14.1194 2.11929 13.0001 3.5 13.0001H4V11.5001C4 10.1194 5.11929 9.00012 6.5 9.00012H7.5C7.68502 9.00012 7.86534 9.02022 8.03891 9.05836C8.24752 7.88835 9.27003 7.00012 10.5 7.00012H12.5C13.8807 7.00012 15 8.11941 15 9.50012V13.0001H19V9.50012C19 8.11941 20.1193 7.00012 21.5 7.00012ZM30 19.0001V18.5001V17.0855V17.0001V16.9148V15.5001V15.0001H30.5C30.7761 15.0001 31 15.224 31 15.5001V18.5001C31 18.7763 30.7761 19.0001 30.5 19.0001H30ZM28 21.0001V23.5001C28 23.7763 27.7761 24.0001 27.5 24.0001H26.5C26.2239 24.0001 26 23.7763 26 23.5001V11.5001C26 11.224 26.2239 11.0001 26.5 11.0001H27.5C27.7761 11.0001 28 11.224 28 11.5001V13.0001V15.0001V19.0001V21.0001ZM6 19.0001V21.0001V23.5001C6 23.7763 6.22386 24.0001 6.5 24.0001H7.5C7.77614 24.0001 8 23.7763 8 23.5001V11.5001C8 11.224 7.77614 11.0001 7.5 11.0001H6.5C6.22386 11.0001 6 11.224 6 11.5001V13.0001V15.0001V19.0001ZM3.5 19.0001H4V18.5001V17.0855V17.0001V16.9148V15.5001V15.0001H3.5C3.22386 15.0001 3 15.224 3 15.5001V18.5001C3 18.7763 3.22386 19.0001 3.5 19.0001ZM24 23.5001V25.5001C24 25.7763 23.7761 26.0001 23.5 26.0001H21.5C21.2239 26.0001 21 25.7763 21 25.5001V21.0001V19.0001V15.0001V13.0001V9.50012C21 9.22398 21.2239 9.00012 21.5 9.00012H23.5C23.7761 9.00012 24 9.22398 24 9.50012V11.5001V23.5001ZM10 11.5001V23.5001V25.5001C10 25.7763 10.2239 26.0001 10.5 26.0001H12.5C12.7761 26.0001 13 25.7763 13 25.5001V21.0001V19.0001V15.0001V13.0001V9.50012C13 9.22398 12.7761 9.00012 12.5 9.00012H10.5C10.2239 9.00012 10 9.22398 10 9.50012V11.5001ZM19 15.0001V17.0001V19.0001H17H15V17.0001V15.0001H17H19Z" fill="#71A700"/>
</svg>
