<svg width="34" height="34" viewBox="0 0 34 34" fill="none" xmlns="http://www.w3.org/2000/svg">
<path fill-rule="evenodd" clip-rule="evenodd" d="M1.01196 2C0.459675 2 0.0119591 2.44772 0.0119591 3C0.0119591 3.55228 0.459675 4 1.01196 4H3.60786L4.31585 6.42269L6.24416 13.0213L8.17248 19.6199L9.45802 24.0189L9.66829 24.7384H10.4179H29.2485C29.8008 24.7384 30.2485 24.2907 30.2485 23.7384C30.2485 23.1861 29.8008 22.7384 29.2485 22.7384H11.1675L10.4664 20.3394H14.9632H23.4045H29.8978H30.7071L30.8758 19.5479L33.6896 6.35071L33.9473 5.14219H32.7116H24.4867H13.6645H6.02529L5.31731 2.7195L5.10705 2H4.35745H1.01196ZM13.86 18.3394H9.88193L8.53807 13.7408H13.4074L13.86 18.3394ZM13.2106 11.7408H7.95361L6.60976 7.14219H12.7581L13.2106 11.7408ZM15.2203 11.7408L14.7678 7.14219H23.4014L23.0243 11.7408H15.2203ZM25.031 11.7408L25.4081 7.14219H31.4759L30.4954 11.7408H25.031ZM24.867 13.7408H30.069L29.0885 18.3394H24.4899L24.867 13.7408ZM22.8602 13.7408L22.4831 18.3394H15.8696L15.4171 13.7408H22.8602ZM25.6481 27.528L25.6481 27.5279C25.9022 27.2667 26.2336 27.1209 26.5907 27.1209C26.9479 27.1209 27.2793 27.2667 27.5333 27.5279C27.7884 27.7902 27.952 28.1573 27.952 28.5773C27.952 28.9975 27.7884 29.3645 27.5334 29.6266C27.2793 29.8879 26.9478 30.0337 26.5907 30.0337C26.2335 30.0337 25.9021 29.8879 25.6481 29.6267C25.3931 29.3644 25.2295 28.9973 25.2295 28.5773C25.2295 28.1571 25.3931 27.7902 25.6481 27.528ZM13.0519 27.5291L13.053 27.5279C13.3071 27.2667 13.6386 27.1209 13.9957 27.1209C14.3528 27.1209 14.6843 27.2667 14.9383 27.5279L14.9383 27.5279C15.1933 27.7902 15.3569 28.1572 15.3569 28.5773C15.3569 28.9975 15.1933 29.3645 14.9383 29.6266L14.9383 29.6267C14.6842 29.8879 14.3528 30.0337 13.9957 30.0337C13.6385 30.0337 13.3071 29.8879 13.0531 29.6267L13.053 29.6267C12.798 29.3644 12.6344 28.9974 12.6344 28.5773C12.6344 28.1563 12.7986 27.7891 13.0519 27.5291ZM17.3569 28.5773C17.3569 29.5316 16.9808 30.3952 16.3721 31.021C15.7635 31.6469 14.9236 32.0337 13.9957 32.0337C13.0677 32.0337 12.2278 31.6469 11.6192 31.021C11.0106 30.3951 10.6344 29.5315 10.6344 28.5773C10.6344 27.623 11.0106 26.7584 11.6192 26.1336C12.2279 25.5077 13.0677 25.1209 13.9957 25.1209C14.9236 25.1209 15.7635 25.5077 16.3721 26.1336C16.9808 26.7595 17.3569 27.6231 17.3569 28.5773ZM24.2143 26.1336C24.8229 25.5077 25.6628 25.1209 26.5907 25.1209C27.5187 25.1209 28.3585 25.5077 28.9672 26.1336C29.5758 26.7595 29.952 27.6231 29.952 28.5773C29.952 29.5316 29.5758 30.3952 28.9672 31.021C28.3585 31.6469 27.5187 32.0337 26.5907 32.0337C25.6627 32.0337 24.8229 31.6469 24.2143 31.021C23.6057 30.3951 23.2295 29.5315 23.2295 28.5773C23.2295 27.623 23.6056 26.7594 24.2143 26.1336Z" fill="#71A700"/>
</svg>
