<svg width="34" height="34" viewBox="0 0 34 34" fill="none" xmlns="http://www.w3.org/2000/svg">
<path fill-rule="evenodd" clip-rule="evenodd" d="M17.4531 -0.00012207L17.7573 0.0957439L32.1049 4.61702L32.8044 4.83743V5.57078V12.6621C33.012 12.914 33.1654 13.2263 33.2326 13.5552C33.3283 14.0244 33.2514 14.516 32.978 14.9568L33.9132 17.0526L34 17.2471V17.4601C34 17.8195 33.8984 18.3332 33.5669 18.7846C33.1987 19.2859 32.6003 19.6322 31.8044 19.6322C31.0025 19.6322 30.3886 19.275 30.0502 18.7C29.7582 18.204 29.7394 17.6634 29.79 17.3159L29.801 17.2404L29.8233 17.1675C29.9615 16.7158 30.286 15.7387 30.6415 14.9118C30.3852 14.476 30.2908 14.0026 30.3894 13.5241C30.4607 13.1776 30.6209 12.8942 30.8044 12.6744V6.91927L28.0218 7.76363V13.9435V14.3493L27.7391 14.6403C26.4344 15.9834 22.6766 18.4601 17.4568 18.4601C12.2342 18.4601 8.58162 15.9805 7.32766 14.6217L7.06255 14.3344V13.9435V7.74071L3.15398 6.52571L0.139908 5.58877L3.14362 4.61914L17.1496 0.0978638L17.4531 -0.00012207ZM9.06255 8.36242V13.5277C10.2256 14.5951 13.2158 16.4601 17.4568 16.4601C21.6991 16.4601 24.7922 14.5938 26.0218 13.5137V8.37054L17.7472 10.8815L17.4533 10.9707L17.16 10.8795L9.06255 8.36242ZM25.3038 4.57078L17.4605 2.09914L6.76174 5.5528L8.35939 6.04943L17.4603 8.8785L25.0652 6.57078H17.4568V4.57078H25.3038ZM31.2805 13.8991C31.2805 13.8991 31.2802 13.8998 31.2794 13.9013C31.28 13.8998 31.2805 13.8991 31.2805 13.8991ZM31.8608 17.3612C31.8284 17.4595 31.799 17.5505 31.7734 17.6316C31.7827 17.632 31.793 17.6322 31.8044 17.6322C31.9029 17.6322 31.9402 17.6133 31.9433 17.6117L31.9434 17.6117C31.9463 17.6102 31.9485 17.6094 31.9549 17.6008C31.9572 17.5976 31.9598 17.5937 31.9625 17.589L31.8608 17.3612ZM4.75707 17.1913C5.43663 16.6302 6.11437 16.6275 6.3545 16.6275H6.60079L6.81891 16.7419C9.7714 18.2902 12.2135 19.4243 14.4186 20.3244C15.1708 20.6315 15.8962 20.9116 16.6056 21.1719C18.9309 22.025 21.0894 22.6665 23.4784 23.347C25.1884 23.6218 26.3179 24.6031 26.8293 25.9073C27.3248 27.1711 27.2006 28.6273 26.6847 29.8608C26.1669 31.099 25.2024 32.2371 23.859 32.7867C22.4766 33.3523 20.8424 33.2334 19.1593 32.2142C17.5104 31.2158 15.8754 30.3689 14.2575 29.6415C14.3303 29.7345 14.3992 29.8151 14.4681 29.8957C14.5022 29.9356 14.5362 29.9754 14.5707 30.0167C14.6021 30.0543 14.6421 30.1032 14.6799 30.155C14.7088 30.1947 14.7805 30.2945 14.8346 30.4263C14.8637 30.4971 15.0594 30.9792 14.7108 31.4439C14.4003 31.8579 13.9424 31.8566 13.8734 31.8564L13.8699 31.8564C13.6524 31.8564 13.4507 31.8015 13.3211 31.7598C13.1543 31.9115 12.9326 32.02 12.6748 32.0416C12.4133 32.0634 12.1998 31.9887 12.0633 31.9218L11.9831 31.8825L11.9111 31.8295C11.112 31.242 10.7208 30.3182 10.5234 29.5455C10.1433 29.8734 9.7481 30.1069 9.37835 30.2672C8.95262 30.4517 8.55256 30.5431 8.23751 30.5689C8.09801 30.5803 7.9022 30.5855 7.70846 30.5409C7.65431 30.5284 7.57581 30.5066 7.48839 30.4667C7.41123 30.4315 7.25901 30.3518 7.12303 30.1908C6.99843 30.0434 6.89505 29.8322 6.8833 29.5832C6.86633 29.5778 6.84981 29.5725 6.83384 29.5673C6.77879 29.5493 6.71564 29.5277 6.65599 29.5042C6.65489 29.5038 6.65351 29.5033 6.65186 29.5026C6.61888 29.4898 6.47893 29.4354 6.34863 29.3361C6.30669 29.3041 6.228 29.2396 6.15169 29.1391C6.07931 29.0437 5.94931 28.8367 5.94584 28.5404C5.94192 28.2063 6.09891 27.9518 6.25763 27.8003C6.3953 27.6689 6.5363 27.6089 6.6025 27.5839C6.73704 27.5332 6.85462 27.5218 6.89284 27.5183C6.94846 27.5131 6.99928 27.5121 7.03772 27.5121C7.2262 27.5121 7.49257 27.434 7.81054 27.2701C6.0896 26.7602 4.39264 26.3417 2.72229 25.9719L2.2949 25.8773L2.07447 25.4991C1.14706 23.9079 0.985424 22.504 1.2938 21.3574C1.59396 20.2414 2.31086 19.4823 2.9438 19.11L3.36306 18.8633L3.62449 18.9658C3.90984 18.1459 4.29553 17.5723 4.75707 17.1913ZM3.62874 21.1158C3.46956 21.2968 3.31304 21.5501 3.22517 21.8769C3.09608 22.3568 3.08987 23.0935 3.60058 24.1189C5.61575 24.5744 7.68922 25.1091 9.80722 25.795C9.78488 24.2608 10.2086 23.0565 10.8815 22.1528C11.1205 21.8319 11.3851 21.5568 11.6618 21.3234C9.99998 20.5862 8.19508 19.7153 6.15948 18.654C6.12016 18.6696 6.07793 18.6943 6.03038 18.7336C5.91728 18.827 5.70458 19.0658 5.50754 19.6393C7.23503 20.2092 9.34393 21.0078 10.3065 21.3853L9.57631 23.2472C8.44036 22.8018 5.75093 21.7875 4.01604 21.2642L3.97737 21.2525L3.93976 21.2378L3.62874 21.1158ZM7.38942 27.6436C7.37387 27.6374 7.37817 27.6381 7.39553 27.6459C7.39262 27.6448 7.39062 27.644 7.38942 27.6436ZM7.2681 28.7243C7.26786 28.7246 7.26762 28.7249 7.26737 28.7252C7.27311 28.7173 7.27431 28.7169 7.2681 28.7243ZM13.5138 27.1468C14.86 27.6967 16.2201 28.3211 17.5915 29.0372C17.5026 28.4392 17.5139 27.8806 17.5744 27.3859C17.6284 26.9451 17.7206 26.559 17.8085 26.2499C17.5845 26.1657 17.3246 26.0705 17.0451 25.9698C16.2084 25.6682 15.2235 25.3269 14.572 25.1047L15.1272 23.4765C14.7535 23.6551 14.3915 23.898 14.0995 24.2131C13.5832 24.7703 13.1829 25.6599 13.5138 27.1468ZM15.5165 23.3141C16.1552 23.5333 16.9927 23.825 17.7233 24.0883C18.1479 24.2413 18.5431 24.3872 18.8439 24.5047C18.993 24.563 19.1289 24.6181 19.2371 24.666C19.2901 24.6895 19.3485 24.7165 19.4033 24.7451C19.404 24.7455 19.4051 24.746 19.4064 24.7467C19.4326 24.7601 19.5717 24.8313 19.6941 24.9513C19.8969 25.1501 19.9644 25.3773 19.9883 25.508C20.0125 25.6399 20.0071 25.7507 20.0016 25.8129C19.9908 25.9361 19.962 26.0465 19.9457 26.1059C19.9214 26.1945 19.883 26.3132 19.8484 26.4202C19.836 26.4583 19.8242 26.4948 19.8136 26.5281C19.7193 26.8252 19.6126 27.1963 19.5596 27.6288C19.461 28.4342 19.543 29.4786 20.355 30.5967C21.5008 31.2407 22.4178 31.2154 23.1017 30.9356C23.8559 30.6271 24.482 29.9441 24.8396 29.0891C25.1991 28.2294 25.235 27.3203 24.9673 26.6374C24.7255 26.0208 24.2028 25.4891 23.1624 25.3218C23.133 25.3262 22.9737 25.3573 22.7157 25.6224C22.4434 25.9022 22.1877 26.3244 22.0382 26.7883C21.8871 27.2576 21.8743 27.6739 21.9635 27.9687C22.0354 28.2064 22.1842 28.4174 22.5366 28.5598C22.5386 28.5601 22.5403 28.5602 22.5416 28.5603C22.5428 28.5604 22.5438 28.5605 22.5447 28.5605C22.5459 28.5606 22.5468 28.5606 22.5475 28.5606L22.5491 28.5605C22.5489 28.5606 22.5489 28.5606 22.5491 28.5605C22.5491 28.5605 22.5492 28.5605 22.5492 28.5605C22.5496 28.5604 22.5519 28.5596 22.5563 28.5573C22.5769 28.5462 22.6328 28.504 22.6892 28.4027C22.7452 28.302 22.7739 28.1912 22.7775 28.1076C22.7783 28.0902 22.7779 28.077 22.7773 28.0674C22.4823 27.632 22.5751 27.0367 22.9982 26.7131C23.4368 26.3775 24.0644 26.4611 24.4 26.8997C24.7134 27.3095 24.7929 27.7958 24.7756 28.1944C24.7579 28.6027 24.6371 29.0152 24.4369 29.375C24.0413 30.0861 23.1627 30.8139 21.9696 30.4797L21.9314 30.4691L21.8943 30.4554C20.9148 30.0953 20.305 29.3934 20.0492 28.5479C19.8074 27.749 19.9014 26.8989 20.1345 26.1751C20.3065 25.6414 20.5701 25.1245 20.8979 24.6816C19.3201 24.2138 17.7786 23.725 16.1596 23.1381C15.9561 23.1763 15.7378 23.2345 15.5165 23.3141ZM18.0207 25.5622C18.0207 25.5625 18.0203 25.5641 18.0195 25.5674C18.0203 25.5638 18.0207 25.562 18.0207 25.5622ZM22.7754 28.0513C22.7746 28.0489 22.7744 28.0476 22.7745 28.0476C22.7746 28.0476 22.7749 28.0488 22.7754 28.0513Z" fill="#71A700"/>
</svg>
