<svg width="144" height="116" viewBox="0 0 144 116" fill="none" xmlns="http://www.w3.org/2000/svg">
<g clip-path="url(#clip0_3027_32462)">
<path d="M42.2773 112.17H42.7209V115.344H42.2773V112.17ZM42.493 112.17H44.2264V112.594H42.493V112.17ZM42.5052 114.92H43.5184C43.6201 114.92 43.7056 114.9 43.7788 114.859C43.8521 114.818 43.905 114.757 43.9416 114.68C43.9782 114.602 43.9986 114.505 43.9986 114.395C43.9986 114.285 43.9782 114.187 43.9416 114.109C43.905 114.032 43.848 113.971 43.7788 113.93C43.7056 113.889 43.6201 113.869 43.5184 113.869H42.5052V113.445H43.5021C43.7015 113.445 43.8724 113.482 44.0148 113.555C44.1572 113.629 44.2671 113.739 44.3404 113.881C44.4136 114.024 44.4543 114.195 44.4543 114.395C44.4543 114.594 44.4177 114.765 44.3404 114.908C44.2671 115.051 44.1572 115.157 44.0148 115.234C43.8724 115.311 43.7015 115.344 43.5021 115.344H42.5052V114.92Z" fill="#1D1D1B"/>
<path d="M47.0342 112.17H47.5387L48.4706 114.439L48.1817 114.794L47.0342 112.166V112.17ZM48.6374 114.684C48.5804 114.839 48.5153 114.965 48.4461 115.067C48.3729 115.169 48.2915 115.246 48.1898 115.295C48.0921 115.348 47.9782 115.373 47.8439 115.373H47.4777V114.932H47.8439C47.9131 114.932 47.9701 114.916 48.023 114.884C48.0759 114.851 48.1206 114.806 48.1613 114.741C48.202 114.68 48.2386 114.602 48.2712 114.505L49.0809 112.162H49.5651L48.6374 114.676V114.684Z" fill="#1D1D1B"/>
<path d="M51.8398 114.92H54.5865V115.344H51.8398V114.92ZM51.8398 114.92H52.2834V116H51.8398V114.92ZM51.8398 114.92H51.8602C52.0433 114.92 52.1857 114.847 52.2874 114.696C52.3892 114.549 52.438 114.338 52.438 114.069V112.17H52.8815V114.109C52.8815 114.342 52.8449 114.541 52.7676 114.704C52.6903 114.867 52.5804 114.994 52.4339 115.079C52.2874 115.165 52.1125 115.209 51.9049 115.209H51.8439V114.916L51.8398 114.92ZM52.7147 112.17H54.1511V112.594H52.7147V112.17ZM53.9151 112.17H54.3586V115.344H53.9151V112.17ZM54.3382 114.92H54.7818V116H54.3382V114.92Z" fill="#1D1D1B"/>
<path d="M57.4385 112.17H57.943L58.8749 114.439L58.5859 114.794L57.4385 112.166V112.17ZM59.0417 114.684C58.9847 114.839 58.9196 114.965 58.8504 115.067C58.7772 115.169 58.6917 115.246 58.5941 115.295C58.4964 115.348 58.3825 115.373 58.2482 115.373H57.882V114.932H58.2482C58.3174 114.932 58.3744 114.916 58.4273 114.884C58.4802 114.851 58.5249 114.806 58.5656 114.741C58.6063 114.68 58.6429 114.602 58.6755 114.505L59.4852 112.162H59.9694L59.0417 114.676V114.684Z" fill="#1D1D1B"/>
<path d="M63.4367 115.377C63.4367 115.377 63.3553 115.328 63.1885 115.23C63.0216 115.132 62.8914 114.994 62.8019 114.814C62.7083 114.635 62.6636 114.427 62.6636 114.191V113.319C62.6636 113.083 62.7083 112.875 62.8019 112.696C62.8914 112.516 63.0216 112.378 63.1885 112.28C63.3553 112.182 63.5466 112.133 63.7663 112.133C63.9494 112.133 64.1162 112.174 64.2668 112.251C64.4173 112.329 64.5476 112.439 64.6493 112.581C64.751 112.724 64.8202 112.891 64.8568 113.079H64.4011C64.3726 112.981 64.3278 112.891 64.2627 112.814C64.1976 112.736 64.1203 112.675 64.0348 112.634C63.9494 112.594 63.8558 112.569 63.7663 112.569C63.6361 112.569 63.5221 112.602 63.4245 112.663C63.3268 112.724 63.2536 112.814 63.1966 112.928C63.1437 113.042 63.1152 113.172 63.1152 113.323V114.195C63.1152 114.342 63.1437 114.476 63.1966 114.586C63.2495 114.7 63.3268 114.786 63.4245 114.847C63.5221 114.908 63.6361 114.941 63.7663 114.941C63.8599 114.941 63.9494 114.92 64.0389 114.884C64.1244 114.843 64.2017 114.786 64.2668 114.708C64.3319 114.631 64.3766 114.541 64.4051 114.435H64.8609C64.8242 114.623 64.7551 114.79 64.6533 114.932C64.5516 115.075 64.4214 115.185 64.2709 115.262C64.1203 115.34 63.9535 115.381 63.7704 115.381H63.4408L63.4367 115.377ZM62.9443 113.555H64.3929V113.979H62.9443V113.555Z" fill="#1D1D1B"/>
<path d="M70.0651 112.17H70.4802V115.344H70.0448V112.969L70.0651 113.107L69.2839 114.904H68.9746L68.1934 113.152L68.2137 112.969V115.344H67.7783V112.17H68.1934L69.1252 114.264L70.057 112.17H70.0651Z" fill="#1D1D1B"/>
<path d="M74.0768 115.23C73.91 115.132 73.7798 114.998 73.6862 114.818C73.5926 114.643 73.5479 114.435 73.5479 114.203V113.303C73.5479 113.07 73.5926 112.867 73.6862 112.687C73.7798 112.512 73.91 112.374 74.0768 112.276C74.2437 112.178 74.439 112.129 74.6587 112.129C74.8784 112.129 75.0737 112.178 75.2446 112.276C75.4115 112.374 75.5417 112.508 75.6353 112.687C75.7289 112.863 75.7736 113.07 75.7736 113.303V114.203C75.7736 114.435 75.7289 114.639 75.6353 114.818C75.5417 114.994 75.4115 115.132 75.2446 115.23C75.0778 115.328 74.8825 115.377 74.6587 115.377C74.4349 115.377 74.2437 115.328 74.0768 115.23ZM75.0046 114.847C75.1022 114.79 75.1795 114.704 75.2365 114.594C75.2894 114.484 75.3179 114.362 75.3179 114.219V113.29C75.3179 113.148 75.2894 113.022 75.2365 112.916C75.1836 112.806 75.1063 112.724 75.0046 112.663C74.9069 112.606 74.7889 112.573 74.6587 112.573C74.5285 112.573 74.4146 112.602 74.3128 112.663C74.2152 112.72 74.1379 112.806 74.0809 112.916C74.028 113.026 73.9995 113.148 73.9995 113.29V114.219C73.9995 114.362 74.028 114.488 74.0809 114.594C74.1338 114.704 74.2111 114.786 74.3128 114.847C74.4105 114.904 74.5285 114.937 74.6587 114.937C74.7889 114.937 74.9028 114.908 75.0046 114.847Z" fill="#1D1D1B"/>
<path d="M83.5825 112.17H84.026V115.344H83.5825V112.17ZM83.7982 113.555H84.791V113.979H83.7982V113.555ZM84.3963 113.946L84.787 113.718L86.0117 115.344H85.3933L84.3963 113.946ZM84.3963 113.6L85.3159 112.17H85.8734L84.6201 113.991L84.3963 113.6Z" fill="#1D1D1B"/>
<path d="M88.791 112.17H89.2345V115.344H88.791V112.17ZM89.0189 113.69H90.0321C90.1257 113.69 90.2111 113.665 90.2844 113.62C90.3576 113.576 90.4146 113.51 90.4553 113.429C90.496 113.347 90.5163 113.25 90.5163 113.144C90.5163 113.038 90.496 112.94 90.4553 112.854C90.4146 112.773 90.3576 112.708 90.2844 112.663C90.2111 112.618 90.1257 112.594 90.0321 112.594H89.0189V112.17H90.0158C90.203 112.17 90.3698 112.211 90.5163 112.292C90.6587 112.374 90.7726 112.488 90.85 112.634C90.9273 112.781 90.968 112.952 90.968 113.144C90.968 113.335 90.9273 113.506 90.85 113.653C90.7686 113.8 90.6587 113.914 90.5163 113.991C90.3739 114.073 90.207 114.109 90.0158 114.109H89.0189V113.686V113.69Z" fill="#1D1D1B"/>
<path d="M94.7803 112.17H95.1587L96.3265 115.344H95.8464L94.9675 112.785L94.0885 115.344H93.6084L94.7762 112.17H94.7803ZM94.1496 114.223H95.8179V114.647H94.1496V114.223Z" fill="#1D1D1B"/>
<path d="M98.707 111.465H99.1506V111.909H98.707V111.465ZM99.5982 115.344H99.1546V112.17H99.5982V115.344ZM99.5982 111.465H100.042V111.909H99.5982V111.465Z" fill="#1D1D1B"/>
<path d="M102.728 112.17H103.171V115.344H102.728V112.17ZM103.004 113.567H104.762V113.991H103.004V113.567ZM104.526 112.17H104.97V115.344H104.526V112.17Z" fill="#1D1D1B"/>
<path d="M107.842 112.17H108.347L109.279 114.439L108.99 114.794L107.842 112.166V112.17ZM109.445 114.684C109.389 114.839 109.323 114.965 109.254 115.067C109.181 115.169 109.096 115.246 108.998 115.295C108.9 115.348 108.786 115.373 108.652 115.373H108.286V114.932H108.652C108.721 114.932 108.778 114.916 108.831 114.884C108.884 114.851 108.929 114.806 108.969 114.741C109.01 114.68 109.047 114.602 109.079 114.505L109.889 112.162H110.373L109.445 114.676V114.684Z" fill="#1D1D1B"/>
<path fill-rule="evenodd" clip-rule="evenodd" d="M15.8288 83.8973C16.2194 83.8973 16.5409 83.5754 16.5409 83.1842C16.5409 82.7931 16.2194 82.4712 15.8288 82.4712C15.4382 82.4712 15.1167 82.7931 15.1167 83.1842C15.1167 83.5754 15.4382 83.8973 15.8288 83.8973Z" fill="#E1001A"/>
<path fill-rule="evenodd" clip-rule="evenodd" d="M56.153 94.5194L53.5244 94.5031V95.6114L55.6851 95.5951L53.5285 101.312L54.5091 101.32L56.7878 95.6399L65.5037 95.6073C65.8048 96.6504 67.2331 100.647 67.7458 101.316L68.7102 101.336L66.5251 95.6114H68.7183L68.7549 94.4991L66.0775 94.5194L61.1702 81.7867L56.1612 94.5235L56.153 94.5194ZM57.2395 94.4828L61.1865 84.5859L64.9625 94.5072L57.2395 94.4828Z" fill="#E1001A"/>
<path fill-rule="evenodd" clip-rule="evenodd" d="M56.153 94.5194L53.5244 94.5031V95.6114L55.6851 95.5951L53.5285 101.312L54.5091 101.32L56.7878 95.6399L65.5037 95.6073C65.8048 96.6504 67.2331 100.647 67.7458 101.316L68.7102 101.336L66.5251 95.6114H68.7183L68.7549 94.4991L66.0775 94.5194L61.1702 81.7867L56.1612 94.5235L56.153 94.5194ZM57.2395 94.4828L61.1865 84.5859L64.9625 94.5072L57.2395 94.4828Z" fill="#E1001A"/>
<path fill-rule="evenodd" clip-rule="evenodd" d="M39.7956 90.3268L40.8169 90.3431L40.8535 84.3577C43.8362 84.4596 46.6194 83.9014 47.7913 86.2157C48.3894 87.3932 48.19 89.0148 47.5146 89.8542C46.6275 90.9543 46.0782 90.9217 44.4872 91.2721L44.4791 92.2459C46.6112 92.5678 47.714 92.0992 49.1829 93.5945C51.8685 96.3285 50.2531 100.158 46.9002 100.892C45.5045 101.197 42.3998 101.039 40.8373 101.026L40.8495 93.9123L39.7956 93.8757V102.086C41.4883 102.192 44.6662 102.232 46.3142 102.078C52.3649 101.511 53.5775 93.8716 48.0761 91.6673L47.3762 91.3617C48.2511 90.4165 48.9917 90.2331 49.1951 88.3303C49.5003 85.4782 47.6896 83.4002 44.7069 83.2984C43.1729 83.2454 41.3744 83.2495 39.8363 83.3024L39.7915 90.3227L39.7956 90.3268Z" fill="#E1001A"/>
<path fill-rule="evenodd" clip-rule="evenodd" d="M0.248047 89.7482L1.26938 89.7645L1.306 83.7791C4.28862 83.881 7.07186 83.3228 8.24375 85.6371C8.8419 86.8146 8.64252 88.4362 7.96705 89.2756C7.08 90.3757 6.53068 90.3431 4.93967 90.6935L4.93154 91.6673C7.06372 91.9892 8.16644 91.5206 9.63537 93.0159C12.3209 95.7499 10.7055 99.5799 7.35263 100.313C5.95694 100.619 2.85225 100.46 1.28973 100.448L1.30193 93.3337L0.248047 93.2971V101.507C1.94078 101.613 5.11871 101.654 6.77075 101.499C12.8214 100.933 14.034 93.293 8.53265 91.0887L7.83278 90.7831C8.70762 89.8378 9.44819 89.6545 9.65165 87.7517C9.95683 84.8996 8.14609 82.8216 5.16347 82.7198C3.62944 82.6668 1.83091 82.6709 0.292807 82.7238L0.248047 89.7441V89.7482Z" fill="#E1001A"/>
<path d="M0.712086 92.1767C1.10536 92.1767 1.42417 91.8574 1.42417 91.4636C1.42417 91.0698 1.10536 90.7506 0.712086 90.7506C0.318812 90.7506 0 91.0698 0 91.4636C0 91.8574 0.318812 92.1767 0.712086 92.1767Z" fill="#E1001A"/>
<path fill-rule="evenodd" clip-rule="evenodd" d="M128.403 101.328V93.8187H127.016V101.328H128.403ZM128.403 90.1313V83.0336H127.016L122.548 90.1313H123.98L127.016 85.2949V90.1313H128.403ZM120.228 93.8228L116.957 99.0177V93.8228H115.569V101.332H116.957L121.669 93.8228H120.228ZM116.957 90.1313V83.0336H115.569V90.1313H116.957Z" fill="#E1001A"/>
<path fill-rule="evenodd" clip-rule="evenodd" d="M106.691 91.4881H99.0207V83.0336H97.6372V101.328H99.0207V92.7227H106.691V91.4881Z" fill="#E1001A"/>
<path d="M109.93 93.8228H108.542V101.332H109.93V93.8228Z" fill="#E1001A"/>
<path d="M109.93 83.0336H108.542V90.2902H109.93V83.0336Z" fill="#E1001A"/>
<path fill-rule="evenodd" clip-rule="evenodd" d="M72.1035 101.328H74.0526L82.7522 91.8222V101.328H84.1398V91.8222L92.8354 101.328H94.7885L85.8081 91.7692L94.0927 83.0336H92.2454L84.1398 91.7692V83.0336H82.7522V91.7692L74.6426 83.0336H72.7953L81.0839 91.7692L72.1035 101.328Z" fill="#E1001A"/>
<path d="M16.4876 85.7675H15.1001V101.328H16.4876V85.7675Z" fill="#E1001A"/>
<path fill-rule="evenodd" clip-rule="evenodd" d="M144 101.279L138.352 91.9036L143.589 82.9846H141.998L137.612 90.6691L133.25 82.9846H131.63L136.867 91.9036L131.272 101.279H132.839L137.612 93.1341L142.385 101.279H144Z" fill="#E1001A"/>
<path fill-rule="evenodd" clip-rule="evenodd" d="M109.234 93.1138C109.755 93.1138 110.182 92.686 110.182 92.1644C110.182 91.6429 109.755 91.2151 109.234 91.2151C108.713 91.2151 108.286 91.6429 108.286 92.1644C108.286 92.686 108.713 93.1138 109.234 93.1138Z" fill="#E1001A"/>
<path fill-rule="evenodd" clip-rule="evenodd" d="M22.083 99.5718L19.6416 99.5433V100.957C25.1389 100.916 30.9658 100.949 36.5892 100.957L36.634 99.5351L34.7215 99.5636L32.5731 93.9898H31.1896L33.3055 99.5514L23.4624 99.5188L25.6679 93.9898H24.2722L22.079 99.5677L22.083 99.5718ZM31.153 90.3024L28.4674 83.3391L25.7289 90.3024H27.1449L28.4959 86.9124L29.7858 90.3024H31.1489H31.153Z" fill="#E1001A"/>
<path d="M22.4738 100.925H21.0293V103.414H22.4738V100.925Z" fill="#E1001A"/>
<path d="M36.0441 100.843H34.5996V103.333H36.0441V100.843Z" fill="#E1001A"/>
<path d="M105.584 35.9042C103.163 32.4042 99.8509 29.6906 95.9812 28.016C96.5794 26.0643 96.8886 24.0393 96.8886 21.9736C96.8886 17.4468 95.4197 13.2583 92.9416 9.85611C92.2743 8.93936 91.5338 8.08779 90.7362 7.29327C87.0212 3.64255 81.9348 1.38123 76.3277 1.38123H68.7999C69.3899 2.08611 69.8945 2.86026 70.3136 3.67922H76.3277C79.8922 3.67922 83.2207 4.71006 86.0324 6.48245C87.1229 7.17104 88.1402 7.96556 89.0598 8.87009C92.4696 12.1908 94.5978 16.8397 94.5978 21.9736C94.5978 23.7623 94.3373 25.5143 93.8328 27.2093C91.6436 26.5166 89.369 26.1621 87.0537 26.1621H74.993C74.5169 26.9729 74.0124 27.7634 73.4793 28.5375H87.0537C89.0842 28.5375 91.0821 28.839 93.0068 29.4421C90.0608 36.0468 83.5991 40.272 76.3277 40.272H71.8639C71.7215 40.7894 71.5587 41.3028 71.3838 41.8121C71.3349 42.0647 71.2902 42.3214 71.2291 42.57H76.3317C80.531 42.57 84.5716 41.3069 88.0222 38.907C91.1757 36.7231 93.6293 33.7365 95.1593 30.2447C102.512 33.4758 107.224 40.655 107.224 48.7346C107.224 59.8742 98.1745 68.9277 87.0578 68.9277H62.7736V66.21C61.9964 66.316 61.203 66.2834 60.4014 66.1856V71.3031H87.0578C99.4806 71.3031 109.588 61.1821 109.588 48.7346C109.588 44.1305 108.209 39.6934 105.588 35.9123L105.584 35.9042Z" fill="#E1001A"/>
<path d="M57.9437 6.64553C57.2112 6.43773 56.5073 6.44995 55.8563 6.62515C55.429 6.73924 55.0343 6.88185 54.6437 7.02038C54.1432 7.19558 53.6671 7.383 53.1707 7.55821C53.1056 7.58265 53.0364 7.6071 52.9672 7.63155C52.1493 7.90046 51.2786 8.09196 50.3061 8.18975C49.4638 8.27124 48.6093 8.28346 47.71 8.10826C46.7822 7.92491 46.298 7.55413 46.3265 7.02445C46.3387 6.87777 46.3509 6.73109 46.3591 6.55589C46.3591 6.55589 44.6012 7.72933 46.4242 8.90278C46.4404 8.91093 46.4527 8.91908 46.4608 8.9313C46.9369 9.20022 47.5065 9.37949 48.1128 9.54247C48.239 9.57099 48.361 9.60359 48.4709 9.63211C47.8524 9.66063 47.2502 9.64433 46.6398 9.46913C46.3265 9.38357 46.062 9.26541 45.9888 9.06168C45.9684 9.00464 45.8871 8.95982 45.8464 8.91093C45.8464 8.91093 45.529 9.39579 46.8473 10.011V10.0192C47.0996 10.0966 47.3478 10.1577 47.6123 10.2066C48.4058 10.3533 49.1952 10.3737 49.9643 10.3125C51.3233 10.2025 52.5074 9.90102 53.5898 9.49358C53.6956 9.45691 53.8095 9.42024 53.9153 9.38764C53.9316 9.43246 53.9031 9.45283 53.8787 9.4732C53.1666 9.99881 52.3365 10.4389 51.3274 10.777C50.2776 11.1193 49.1423 11.3556 47.8321 11.376C46.8921 11.3882 46.0254 11.2537 45.3092 10.7648C45.2482 10.7159 45.1343 10.6915 45.0285 10.6548C44.8657 10.7811 44.9268 10.8993 45.0366 11.0011C45.1668 11.1274 45.3255 11.2537 45.5249 11.3515C46.119 11.6408 46.7822 11.8364 47.4984 11.9464C47.9419 12.0116 48.3936 12.0523 48.8493 12.1053C48.9673 12.3213 49.1911 12.4802 49.5614 12.5942C50.188 12.7857 50.8147 12.8998 51.482 12.9202C51.9133 12.9202 56.1899 12.7857 57.0892 10.3533C57.9844 7.92491 57.8948 8.45051 57.8948 8.45051C57.8948 8.45051 57.9884 9.83991 58.375 10.5C58.3913 10.4796 58.4116 10.4592 58.436 10.4429C58.4564 10.4226 58.4767 10.4063 58.5011 10.3981C58.257 9.14317 57.964 7.87601 57.9396 6.64145L57.9437 6.64553ZM53.8054 11.3882C53.8054 11.3882 52.2918 12.2561 51.8116 11.5145C51.6407 11.2456 54.4646 10.5081 54.4646 10.5081L53.8054 11.3882Z" fill="#1D1D1B"/>
<path d="M71.0579 26.7163C71.0579 19.2111 70.1627 16.2001 69.4669 14.9859C68.8729 15.3485 68.2177 15.5808 67.5341 15.7356C66.8627 15.8823 66.1751 15.9434 65.4915 15.9923C64.6817 16.0493 63.9086 15.8782 63.2087 15.4504C62.5455 15.047 62.0368 14.497 61.6177 13.8491C61.5689 13.7758 61.5201 13.7024 61.4509 13.6006C61.2596 13.735 61.0725 13.8491 60.9138 13.9917C60.5882 14.3014 60.218 14.5051 59.7663 14.5418C59.6686 14.554 59.575 14.6111 59.4652 14.6559C59.5099 14.6925 59.5222 14.7088 59.5344 14.7129C59.5873 14.7333 59.6361 14.7496 59.689 14.77C60.5231 15.0185 61.1661 15.5278 61.5933 16.2857C62.1182 17.2024 62.2362 18.1884 62.0531 19.2233C61.9188 19.9853 61.516 20.5557 60.8812 20.9713C60.6778 21.1057 60.4662 21.228 60.2464 21.338C59.5995 21.6639 58.9077 21.8636 58.1997 22.0307C58.3014 22.0144 58.4601 22.0714 58.6432 22.1814C58.6432 22.1814 58.6514 22.1814 58.6554 22.1814C59.6035 22.6011 61.5811 23.8112 61.7845 24.6831C61.9188 25.2576 61.0399 25.9462 60.1244 26.5289C60.0918 26.5737 60.0593 26.6226 60.0267 26.6633C60.0349 26.6633 60.0471 26.6633 60.0511 26.6552C60.1651 26.6266 60.279 26.6063 60.397 26.6022C60.8609 26.5737 61.3166 26.6307 61.7642 26.7407C62.6309 26.9526 63.5017 27.1767 64.3725 27.3886C65.8007 27.739 67.2493 27.7919 68.702 27.5597C69.5117 27.4334 70.3092 27.246 71.0946 27.0259L71.0417 26.7041L71.0579 26.7163ZM64.7224 16.3468C65.113 16.4038 65.3979 16.6075 65.6868 16.8479C66.5494 17.5691 67.2493 18.4248 67.8149 19.3945C68.2422 20.1279 68.4822 20.9346 68.6531 21.7617C68.6979 21.9736 68.7345 22.1814 68.7752 22.3974C68.7549 22.4137 68.7386 22.4218 68.7182 22.4381C68.3927 22.1407 68.0509 21.8595 67.7376 21.5458C66.9645 20.7635 66.2931 19.9119 65.7071 18.9789C65.1904 18.1518 64.6573 17.3246 64.0225 16.5831C63.8638 16.4038 63.697 16.2286 63.5139 16.029C63.9371 16.1471 64.3236 16.2857 64.7224 16.3468ZM69.3734 24.6872C68.0021 24.1331 66.6267 23.583 65.2555 23.0167C64.5963 22.7437 63.9574 22.4218 63.3715 22.0021C62.5414 21.4195 62.1833 20.6209 62.2688 19.6145C62.3013 19.2274 62.3461 18.8403 62.3827 18.4248C62.5658 18.7955 62.7286 19.1337 62.8995 19.476C63.6604 20.9713 64.8201 22.0999 66.2361 22.9596C66.8058 23.31 67.4121 23.5952 68.0061 23.9008C68.4863 24.1494 68.9705 24.3938 69.4995 24.6668C69.4181 24.6831 69.3937 24.6913 69.3734 24.6872ZM70.7365 24.0068C70.7161 23.9782 70.6877 23.9538 70.6754 23.9253C70.4191 23.4689 70.1302 23.0207 69.9186 22.5481C69.6704 21.9899 69.4954 21.395 69.3815 20.7879C69.1862 19.7652 68.8851 18.7711 68.4049 17.838C68.2055 17.4469 67.9451 17.0883 67.6033 16.795C67.5708 16.7664 67.5219 16.7542 67.4812 16.7379C67.4975 16.7176 67.5097 16.6972 67.526 16.6809C67.6359 16.6727 67.7498 16.6605 67.8881 16.6483C68.055 16.8765 68.234 17.0965 68.3927 17.3369C69.1414 18.4288 69.7274 19.59 70.0407 20.8857C70.2808 21.8758 70.5208 22.87 70.7609 23.8642C70.7731 23.909 70.7731 23.9538 70.7812 23.9986C70.765 23.9986 70.7528 24.0108 70.7406 24.019L70.7365 24.0068Z" fill="#1D1D1B"/>
<path d="M57.9678 22.0999C57.9678 22.0999 57.9678 22.1202 57.9678 22.1243C58.0939 22.0673 58.1794 22.0347 58.1794 22.0347C58.1102 22.051 58.0451 22.0754 57.9678 22.0958V22.0999Z" fill="#1D1D1B"/>
<path d="M71.6928 27.0096C71.88 27.3315 71.9369 27.686 71.9125 28.0568C71.9044 28.1708 71.8718 28.2931 71.9858 28.3868C72.1974 28.2808 72.2909 28.0771 72.4008 27.8938C73.2919 26.431 74.0773 24.9153 74.7242 23.3344C74.8707 22.9677 74.9969 22.5807 75.0701 22.1936C75.1759 21.6191 75.2329 21.0324 75.3102 20.4497C75.3183 20.3927 75.3102 20.3356 75.3142 20.2216C74.6713 20.9264 74.004 21.5172 73.2228 21.9736C73.2553 22.1243 73.296 22.2547 73.3123 22.3892C73.3245 22.4951 73.3326 22.6092 73.3041 22.7111C73.239 22.9474 73.1658 23.1837 73.0722 23.4037C72.8036 24.0149 72.531 24.6261 72.2462 25.2291C72.0631 25.6202 71.8596 25.9951 71.6602 26.3821C71.6602 26.3821 71.6602 26.3821 71.6602 26.3862C71.5219 26.6022 71.5789 26.8018 71.7009 27.0096H71.6928Z" fill="#1D1D1B"/>
<path d="M55.5307 31.0271C55.7871 31.1615 56.0597 31.2756 56.2875 31.4427C56.5927 31.6668 56.8694 31.9275 57.1461 32.1883C57.5205 32.5387 57.907 32.8606 58.4279 32.9584C59.0057 33.0643 59.5265 33.3128 60.0229 33.6144C60.1328 33.6795 60.2467 33.7447 60.3688 33.7733C60.6089 33.8303 60.8327 33.9118 61.0321 34.0666C61.1745 34.1766 61.3332 34.1074 61.3454 33.9281C61.3535 33.8303 61.3169 33.7081 61.2559 33.6347C61.1135 33.4595 60.9426 33.3088 60.7839 33.1499C60.6496 33.0154 60.5275 32.8769 60.5397 32.6365C60.6496 32.6446 60.7472 32.6365 60.8408 32.6569C61.2681 32.7343 61.6913 32.8321 62.1185 32.9013C62.3545 32.938 62.6027 32.9787 62.8387 32.8687C63.0178 32.7832 63.1927 32.7017 63.3759 32.6202C63.5834 32.5305 63.6322 32.4124 63.5264 32.2127C63.4979 32.1557 63.4572 32.1109 63.4165 32.062C63.1358 31.732 62.7858 31.4956 62.4074 31.3001C62.0778 31.1289 61.7482 30.9619 61.4186 30.7908C61.3698 30.7663 61.3128 30.7459 61.2803 30.7093C61.2518 30.6726 61.2396 30.6115 61.2518 30.5667C61.2599 30.5381 61.325 30.5055 61.3576 30.5096C61.4756 30.5218 61.5855 30.5585 61.7035 30.5707C62.0086 30.6033 62.3138 30.6441 62.619 30.6481C62.7655 30.6481 62.9242 30.5952 63.0585 30.53C63.2375 30.4403 63.2294 30.3059 63.0503 30.2122C62.9649 30.1674 62.8631 30.147 62.7696 30.1225C62.2731 29.9962 61.7726 29.8781 61.2762 29.7436C60.9873 29.6662 60.6984 29.601 60.3973 29.6132C60.1613 29.6214 59.9253 29.6214 59.6934 29.6132C59.3678 29.601 59.2376 29.4584 59.2295 29.1406C59.2295 29.0876 59.2213 29.0347 59.2213 28.9898C59.0464 28.8758 58.9162 28.9735 58.79 29.0591C58.5866 29.1936 58.3831 29.328 58.1878 29.4747C58.0128 29.6051 57.8379 29.6051 57.6303 29.544C56.3486 29.1732 55.2703 28.5009 54.4646 27.4252C53.899 26.6715 53.3578 25.9014 52.8248 25.1272C52.3813 24.4794 51.8034 24.0638 51.014 23.966C50.7374 23.9334 50.4647 23.8886 50.188 23.8479C50.8594 23.7501 51.5227 23.7867 52.1859 23.8845C52.3039 23.9008 52.3935 23.8845 52.4952 23.8316C53.7729 23.1511 55.0221 22.4218 56.2102 21.5906C56.4503 21.4236 56.5927 21.2117 56.6416 20.9305C56.67 20.7553 56.6945 20.5679 56.6822 20.3927C56.6131 19.4311 56.0922 18.6855 55.5063 17.9562C55.3354 18.0377 55.1808 18.111 55.018 18.1884C54.9163 17.9073 54.8268 17.6343 54.8349 17.3409C54.843 17.1331 54.9488 17.0639 55.1401 17.1454C55.2296 17.182 55.315 17.2391 55.3924 17.3043C55.9091 17.7239 56.3649 18.2007 56.6985 18.7792C57.1054 19.4841 57.2804 20.2379 57.1624 21.0487C57.1339 21.2321 57.0973 21.4154 57.0607 21.6232C57.1258 21.6232 57.1705 21.6314 57.2112 21.6232C58.3628 21.4236 59.4451 21.0324 60.4461 20.4294C60.6618 20.299 60.8693 20.1442 61.0402 19.9649C61.7197 19.2396 61.911 18.4003 61.561 17.4591C61.2884 16.7216 60.7676 16.1675 60.1654 15.6908C59.9131 15.4911 59.6242 15.3363 59.3434 15.1693C59.1888 15.0755 59.0097 15.0755 58.847 15.1489C58.5622 15.2833 58.2732 15.4137 58.0006 15.5726C57.7524 15.7193 57.5245 15.8986 57.2804 16.0575C56.8654 16.3305 56.4544 16.6116 55.9742 16.7664C55.6772 16.8642 55.3801 16.9091 55.0709 16.8235C54.7942 16.7501 54.5989 16.8683 54.5623 17.1535C54.5094 17.565 54.5867 17.944 54.9081 18.2536C54.8308 18.2984 54.7535 18.3392 54.6762 18.384C53.4311 19.1052 52.1778 19.806 50.9449 20.5475C49.8299 21.2198 48.7354 21.9288 47.7547 22.7967C47.474 23.0452 47.238 23.3508 46.9938 23.6401C46.8473 23.8153 46.7944 24.0353 46.8799 24.2512C46.9653 24.4672 47.063 24.6872 47.2013 24.8706C47.3682 25.0947 47.5716 25.2902 47.7751 25.4817C50.0619 27.6167 52.5806 29.4299 55.315 30.9456C55.3842 30.9863 55.4656 31.0108 55.5348 31.0474L55.5307 31.0271Z" fill="#1D1D1B"/>
<path d="M56.5237 68.1087C56.3039 67.8765 56.1249 67.6157 55.9947 67.3264C55.7139 66.699 55.4413 66.0674 55.1646 65.44C55.1361 65.3748 55.1239 65.2811 55.071 65.2485C54.8391 65.0936 54.8147 64.8492 54.7699 64.6088C54.717 64.3276 54.6438 64.0465 54.5868 63.7654C54.5583 63.6268 54.5136 63.4802 54.5176 63.3416C54.5258 63.1175 54.5787 62.8934 54.5909 62.6693C54.6031 62.4249 54.6031 62.1804 54.5909 61.94C54.5827 61.8055 54.5258 61.6752 54.4729 61.4714C54.3711 61.5977 54.3264 61.6792 54.2572 61.7322C54.009 61.9237 53.7649 62.1315 53.4922 62.2823C52.8981 62.6082 52.3122 62.5512 51.7588 62.1682C51.6734 62.1071 51.5798 62.0541 51.4902 62.0011C51.3682 62.1845 51.3478 62.2578 51.3397 62.4778C51.3275 62.8568 51.3397 63.2398 51.2909 63.6146C51.2095 64.2136 51.1037 64.8125 50.9775 65.4033C50.7741 66.3567 50.945 67.2368 51.4292 68.068C51.5431 68.2636 51.6693 68.451 51.7751 68.6506C52.0029 69.0703 52.2227 69.49 52.4424 69.9137C52.4261 69.9219 52.4098 69.9341 52.3936 69.9423C52.3407 69.8648 52.2837 69.7915 52.2349 69.71C51.8117 68.9807 51.3926 68.2554 50.9694 67.5261C50.9206 67.4405 50.8962 67.3224 50.7456 67.2938C50.7456 67.4853 50.8473 67.632 50.9206 67.7787C51.4007 68.724 51.8809 69.6652 52.3692 70.6064C52.5034 70.8631 52.6418 71.1198 52.8168 71.352C53.0284 71.6331 53.2603 71.9021 53.5207 72.1384C53.891 72.4725 54.3508 72.6192 54.8472 72.5866C55.6325 72.5336 56.3202 72.1914 56.9957 71.8165C57.0445 71.7921 57.0811 71.7513 57.1259 71.7187C57.7118 71.2665 57.8868 70.6349 57.6223 69.9504C57.3619 69.2822 57.0323 68.6466 56.5318 68.1169L56.5237 68.1087Z" fill="#1D1D1B"/>
<path d="M76.1731 66.4424C75.9046 65.6438 75.4651 64.9755 74.6798 64.5966C74.5089 64.5151 74.3339 64.4377 74.1752 64.3359C73.9555 64.1932 73.7439 64.0384 73.5445 63.8754C73.3858 63.7491 73.2963 63.5984 73.3492 63.3621C73.4143 63.0768 73.2719 62.9261 72.9749 62.8772C72.922 62.8691 72.865 62.8691 72.8121 62.8609C72.6534 62.8324 72.4947 62.759 72.454 62.6042C72.3971 62.376 72.2424 62.3068 72.0512 62.266C71.9088 62.2375 71.8477 62.156 71.8152 62.0134C71.7623 61.7852 71.6972 61.5571 71.6036 61.3452C71.5222 61.1496 71.4571 60.9785 71.4978 60.7503C71.5548 60.4203 71.3961 60.241 71.0665 60.1921C70.8345 60.1595 70.6433 60.0903 70.6189 59.8051C70.5049 59.8376 70.4113 59.8662 70.3178 59.8947C69.39 60.1555 68.4582 60.2736 67.5264 59.911C67.3799 59.8539 67.2945 59.8825 67.2619 60.0373C67.2253 60.1921 67.2212 60.3592 67.2416 60.5181C67.27 60.73 67.2945 60.9255 67.1846 61.1252C67.1398 61.2026 67.1235 61.2963 67.1195 61.3859C67.0951 61.9238 67.1398 62.4535 67.3067 62.9668C67.3392 63.0605 67.3799 63.1583 67.4409 63.2317C67.502 63.305 67.5834 63.3661 67.6688 63.411C67.8275 63.4924 68.0065 63.5373 68.1612 63.6228C68.7471 63.9529 69.2639 64.3807 69.7318 64.8655C70.216 65.3667 70.6962 65.8719 71.1926 66.3568C71.8192 66.968 72.511 67.4895 73.3574 67.7666C73.3614 67.7666 73.3655 67.7869 73.3696 67.8032C72.6331 67.7747 72.0024 67.5588 71.4734 67.0087C70.8467 66.3568 70.1835 65.7375 69.5039 65.1426C68.9872 64.6903 68.4297 64.287 67.8804 63.8714C67.742 63.7654 67.5711 63.7043 67.3718 63.5984C67.3148 63.9203 67.3351 64.1933 67.3596 64.4744C67.388 64.8207 67.5549 65.0122 67.8926 65.0937C68.5314 65.2445 69.0848 65.5663 69.5731 65.9982C69.9393 66.3201 70.2689 66.6827 70.627 67.0169C70.8996 67.2695 71.1723 67.5221 71.4693 67.7421C71.8518 68.0273 72.2831 68.2107 72.7592 68.2636C73.455 68.3451 74.1467 68.3125 74.8303 68.1536C75.1152 68.0884 75.396 68.007 75.6279 67.8236C76.1325 67.4284 76.3685 67.0006 76.1813 66.4464L76.1731 66.4424Z" fill="#1D1D1B"/>
<path d="M62.7531 10.2025L62.7246 10.178V9.81946L62.7531 10.2025Z" fill="#1D1D1B"/>
<path d="M65.6217 5.70019C65.5933 5.64315 65.5688 5.57388 65.52 5.53314C65.4427 5.46795 65.3572 5.51277 65.2799 5.54944C65.1701 5.60241 65.0643 5.65537 64.9544 5.71649C65.105 5.6839 65.2677 5.66352 65.4061 5.72057C65.4997 5.75724 65.5688 5.80205 65.6665 5.77353C65.6502 5.74501 65.6339 5.72057 65.6217 5.69612V5.70019ZM65.6217 5.70019C65.5933 5.64315 65.5688 5.57388 65.52 5.53314C65.4427 5.46795 65.3572 5.51277 65.2799 5.54944C65.1701 5.60241 65.0643 5.65537 64.9544 5.71649C65.105 5.6839 65.2677 5.66352 65.4061 5.72057C65.4997 5.75724 65.5688 5.80205 65.6665 5.77353C65.6502 5.74501 65.6339 5.72057 65.6217 5.69612V5.70019ZM65.6217 5.70019C65.5933 5.64315 65.5688 5.57388 65.52 5.53314C65.4427 5.46795 65.3572 5.51277 65.2799 5.54944C65.1701 5.60241 65.0643 5.65537 64.9544 5.71649C65.105 5.6839 65.2677 5.66352 65.4061 5.72057C65.4997 5.75724 65.5688 5.80205 65.6665 5.77353C65.6502 5.74501 65.6339 5.72057 65.6217 5.69612V5.70019ZM65.6217 5.70019C65.5933 5.64315 65.5688 5.57388 65.52 5.53314C65.4427 5.46795 65.3572 5.51277 65.2799 5.54944C65.1701 5.60241 65.0643 5.65537 64.9544 5.71649C65.105 5.6839 65.2677 5.66352 65.4061 5.72057C65.4997 5.75724 65.5688 5.80205 65.6665 5.77353C65.6502 5.74501 65.6339 5.72057 65.6217 5.69612V5.70019ZM65.6217 5.70019C65.5933 5.64315 65.5688 5.57388 65.52 5.53314C65.4427 5.46795 65.3572 5.51277 65.2799 5.54944C65.1701 5.60241 65.0643 5.65537 64.9544 5.71649C65.105 5.6839 65.2677 5.66352 65.4061 5.72057C65.4997 5.75724 65.5688 5.80205 65.6665 5.77353C65.6502 5.74501 65.6339 5.72057 65.6217 5.69612V5.70019ZM68.82 9.52204C68.82 9.48944 68.816 9.52204 68.8078 9.53834C68.8037 9.55056 68.7915 9.55871 68.7834 9.57093C68.7549 9.59538 68.7305 9.61575 68.6979 9.62798C68.7468 9.61168 68.8037 9.60353 68.8485 9.59538C68.8363 9.57093 68.8322 9.54649 68.82 9.52204ZM68.82 9.52204C68.82 9.48944 68.816 9.52204 68.8078 9.53834C68.8037 9.55056 68.7915 9.55871 68.7834 9.57093C68.7549 9.59538 68.7305 9.61575 68.6979 9.62798C68.7468 9.61168 68.8037 9.60353 68.8485 9.59538C68.8363 9.57093 68.8322 9.54649 68.82 9.52204ZM65.6217 5.70019C65.5933 5.64315 65.5688 5.57388 65.52 5.53314C65.4427 5.46795 65.3572 5.51277 65.2799 5.54944C65.1701 5.60241 65.0643 5.65537 64.9544 5.71649C65.105 5.6839 65.2677 5.66352 65.4061 5.72057C65.4997 5.75724 65.5688 5.80205 65.6665 5.77353C65.6502 5.74501 65.6339 5.72057 65.6217 5.69612V5.70019ZM65.6217 5.70019C65.5933 5.64315 65.5688 5.57388 65.52 5.53314C65.4427 5.46795 65.3572 5.51277 65.2799 5.54944C65.1701 5.60241 65.0643 5.65537 64.9544 5.71649C65.105 5.6839 65.2677 5.66352 65.4061 5.72057C65.4997 5.75724 65.5688 5.80205 65.6665 5.77353C65.6502 5.74501 65.6339 5.72057 65.6217 5.69612V5.70019ZM68.82 9.52204C68.82 9.48944 68.816 9.52204 68.8078 9.53834C68.8037 9.55056 68.7915 9.55871 68.7834 9.57093C68.7549 9.59538 68.7305 9.61575 68.6979 9.62798C68.7468 9.61168 68.8037 9.60353 68.8485 9.59538C68.8363 9.57093 68.8322 9.54649 68.82 9.52204ZM68.82 9.52204C68.82 9.48944 68.816 9.52204 68.8078 9.53834C68.8037 9.55056 68.7915 9.55871 68.7834 9.57093C68.7549 9.59538 68.7305 9.61575 68.6979 9.62798C68.7468 9.61168 68.8037 9.60353 68.8485 9.59538C68.8363 9.57093 68.8322 9.54649 68.82 9.52204ZM65.6217 5.70019C65.5933 5.64315 65.5688 5.57388 65.52 5.53314C65.4427 5.46795 65.3572 5.51277 65.2799 5.54944C65.1701 5.60241 65.0643 5.65537 64.9544 5.71649C65.105 5.6839 65.2677 5.66352 65.4061 5.72057C65.4997 5.75724 65.5688 5.80205 65.6665 5.77353C65.6502 5.74501 65.6339 5.72057 65.6217 5.69612V5.70019ZM68.7468 5.55351C68.6573 5.45573 68.6084 5.3009 68.5759 5.16644C68.527 4.95049 68.5108 4.72232 68.4741 4.49823C68.4741 4.49823 68.4782 2.64435 67.3104 2.12281C66.9605 1.80908 66.5739 1.54831 66.1344 1.36904C66.0042 1.31607 65.9269 1.25088 65.8659 1.12457C65.7682 0.904549 65.638 0.692677 65.4183 0.59489C65.0154 0.415613 64.6045 0.236337 64.1813 0.126326C63.4407 -0.061099 62.6961 -0.0325778 61.9514 0.162997C61.9514 0.162997 58.7003 0.876028 58.1957 3.10883C58.0045 3.38182 57.8661 3.69148 57.7603 4.01744C57.6871 4.23746 57.6382 4.46971 57.7318 4.73862C58.623 4.06226 59.4693 3.35738 60.4378 2.82362C59.9169 3.37775 59.3839 3.92373 58.8427 4.45341C58.7084 4.58379 58.5619 4.71417 58.4032 4.81196C58.2201 4.92605 58.0248 5.02383 57.8213 5.0931C57.5691 5.17459 57.4877 5.2357 57.5365 5.49647C57.5975 5.78576 57.5284 6.07097 57.504 6.34803C57.504 6.34803 57.504 6.35075 57.504 6.35618C57.4958 7.9167 58.3625 10.0028 58.627 10.6018C58.6677 10.6914 58.6881 10.7485 58.7003 10.7688C58.7816 10.8259 58.859 10.8788 58.9403 10.9277C59.4246 11.217 59.921 11.4778 60.4581 11.6448C60.5517 11.6734 60.6493 11.6937 60.7429 11.7019C60.7429 11.7019 61.0685 11.7508 61.4103 11.873C61.7561 11.9952 62.1223 12.1908 62.2078 12.4964C62.2648 12.696 62.3258 12.8916 62.3746 13.0913C62.4357 13.3357 62.3909 13.5843 62.281 13.8125C62.2566 13.8654 62.2322 13.9184 62.1956 13.9958C62.3177 14.0365 62.4194 14.0732 62.5211 14.1017C63.5099 14.4114 64.519 14.5988 65.5566 14.5825C66.4559 14.5662 67.3145 14.3951 68.1201 13.9754C68.2137 13.9306 68.2992 13.8736 68.4335 13.7921C68.3236 13.7065 68.2463 13.6495 68.173 13.5884C67.9533 13.4376 67.7743 13.2502 67.7092 12.9813C67.6196 12.6186 67.6115 12.2479 67.64 11.8526L65.0887 13.1076L62.3258 11.6163L62.2159 11.0785C62.1834 11.0255 62.1508 10.9807 62.1264 10.9359C62.1508 10.9644 62.1793 10.997 62.2078 11.0214L62.1101 10.5488C62.3543 10.7159 64.0063 11.7467 67.6441 11.8526C67.7621 11.8404 67.8679 11.8282 67.9696 11.8119C68.1893 11.7711 68.4213 11.7426 68.6288 11.6693C69.2066 11.4615 69.5687 10.8422 69.5077 10.2351C69.467 9.90911 69.467 9.58316 69.4589 9.2572C69.4385 8.53195 69.4385 7.80669 69.3938 7.08551C69.3653 6.50286 69.1618 5.97318 68.7508 5.53721L68.7468 5.55351ZM64.991 1.25088C64.8161 1.23458 64.7184 1.18161 64.637 1.04716C64.5434 0.900474 64.397 0.778241 64.2749 0.647858C64.2179 0.590815 64.1609 0.541922 64.0877 0.468581C64.4092 0.5134 64.5801 0.660081 64.991 1.2468V1.25088ZM58.7857 2.48952C58.5578 2.66064 58.3666 2.86437 58.2079 3.08846C58.3666 2.81547 59.7623 0.598964 62.0939 0.342273C62.3828 0.342273 62.6676 0.370794 62.9524 0.448209C63.4407 0.582666 63.8517 0.835283 64.165 1.23051C64.1284 1.27533 64.1203 1.29977 64.108 1.29977C63.9087 1.36089 63.7133 1.42608 63.4936 1.49127C63.2413 1.25903 62.9524 1.14087 62.6228 1.13272C62.4153 1.12864 62.2037 1.12457 62.0003 1.14902C60.804 1.29162 59.7419 1.76426 58.7898 2.48952H58.7857ZM60.3157 5.46795C59.7745 5.89169 59.1926 6.25839 58.5741 6.58028C58.4643 6.63732 58.3463 6.68214 58.2242 6.71473C58.1428 6.73511 58.0492 6.72288 57.9353 6.72696C57.9353 6.60065 57.9271 6.51916 57.9312 6.43767C58.8467 6.29506 59.5995 5.81428 60.3401 5.33349C60.332 5.37831 60.3238 5.42313 60.3157 5.46795ZM60.6616 8.02264L60.7022 8.37304C60.7022 8.37304 59.4612 7.71298 58.8671 8.58491C58.8915 8.50342 59.1153 7.81891 59.7297 7.85559C60.3767 7.89226 60.6616 8.02264 60.6616 8.02264ZM61.3411 11.4248C61.3411 11.4248 59.9902 11.6367 59.2618 10.7159C58.5416 9.79503 58.2974 8.84161 58.2974 8.84161C58.2649 8.76826 58.2364 8.69492 58.2038 8.62158C58.098 8.36897 58.1469 8.12043 58.2608 7.88818C58.3625 7.67631 58.5131 7.50518 58.7125 7.3911C58.8915 7.28923 59.0828 7.20367 59.2699 7.11403C59.571 6.96735 59.8681 6.82475 60.1936 6.66992C60.1895 6.69436 60.1895 6.72696 60.1895 6.7514C60.1448 6.84512 60.1 6.93476 60.096 7.02032C60.0919 7.13033 60.1651 7.24441 60.2099 7.39517C60.0919 7.38295 59.9861 7.38702 59.8884 7.36665C59.4286 7.28109 59.0543 7.44406 58.7287 7.75372C58.4683 7.99819 58.3625 8.30785 58.4073 8.66233C58.4602 9.11052 58.6474 9.49352 58.977 9.79503C58.981 9.79503 58.9851 9.79503 58.9851 9.80318C59.1682 9.92949 60.4825 10.724 61.2068 10.781L61.4998 10.7444C61.5486 10.7403 61.809 11.4859 61.809 11.4859L61.3452 11.4207L61.3411 11.4248ZM60.5435 4.54305C60.3849 4.71417 60.2221 4.89345 60.0471 5.08495C60.0471 5.08495 57.9434 6.10764 57.8376 5.93651C57.7318 5.76131 57.7847 5.35794 57.7847 5.35794C57.9678 5.31719 59.449 4.96679 61.276 2.72991C61.276 2.72991 61.9636 1.82538 62.8588 1.74796C61.5649 2.38765 60.8935 3.48776 60.5435 4.54712V4.54305ZM65.9147 5.71242C65.9147 5.71242 65.9147 5.72464 65.9147 5.72871C65.8984 5.8754 65.8089 6.00578 65.6421 6.00578C65.5241 6.00578 65.4386 5.91614 65.3247 5.89984C65.2067 5.87947 65.0683 5.90392 64.9544 5.92429C64.7021 5.96911 64.458 6.05467 64.2342 6.17691C64.1284 6.23395 64.0267 6.30729 63.929 6.38063C63.8476 6.44582 63.7703 6.53138 63.6604 6.55176C63.6198 6.55583 63.6198 6.38063 63.6238 6.36026C63.6604 6.12394 63.8639 5.94059 64.0551 5.81835C64.2912 5.67167 64.5516 5.55759 64.7998 5.43128C64.9137 5.37424 65.0277 5.31312 65.1416 5.26015C65.2311 5.21941 65.3369 5.15014 65.4346 5.18274C65.577 5.23163 65.5933 5.41906 65.6746 5.52499C65.7438 5.6187 65.8333 5.55759 65.8537 5.4598C65.8699 5.35794 65.817 5.22348 65.7886 5.12569C65.7519 4.99939 65.7031 4.87308 65.6421 4.75492C65.6136 4.68973 65.6055 4.6612 65.5281 4.66528C65.4712 4.66528 65.4101 4.68565 65.3572 4.69788C64.8974 4.79566 64.4498 4.97086 64.0674 5.252C63.7256 5.50869 63.4814 5.83465 63.2657 6.20135C63.2657 6.2095 63.2332 6.11171 63.2413 6.09134C63.3797 5.64315 63.7011 5.28867 64.0674 5.00346C64.2871 4.84048 64.5272 4.70195 64.7794 4.59194C65.0277 4.486 65.2881 4.37192 65.5526 4.31488C65.5648 4.31488 65.5688 4.32302 65.5729 4.33525C65.7479 4.68565 65.8903 5.08087 65.9269 5.46795C65.931 5.53721 65.9391 5.63093 65.9188 5.70834L65.9147 5.71242ZM67.4894 3.82594C67.4894 3.82594 67.5667 3.99299 67.5342 4.03374C67.3796 4.20486 67.29 4.43711 67.3023 4.67343C67.3185 4.89752 67.4732 5.1094 67.6237 5.2683C67.7661 5.42313 67.937 5.54944 68.1201 5.66352C68.287 5.77353 68.4335 5.88762 68.4945 6.08727C68.5026 6.11579 68.523 6.33581 68.5026 6.30729C68.4904 6.29506 68.4945 6.26654 68.4864 6.25432C68.4701 6.21765 68.4375 6.18913 68.409 6.16468C68.2503 6.02615 68.0591 5.93244 67.8963 5.80205C67.579 5.54944 67.343 5.22348 67.2616 4.81603C67.1924 4.46971 67.2209 4.07448 67.4976 3.82594H67.4894ZM67.5627 9.18386C67.5627 9.18386 67.5301 9.10237 67.5301 9.09422C67.522 9.07385 67.5139 9.01273 67.5301 8.99643C67.6929 8.87013 67.8679 8.75604 68.0591 8.67863C68.2544 8.60529 68.4497 8.55232 68.6573 8.5238C68.6695 8.5238 68.6735 8.57677 68.6695 8.58084C68.466 8.64196 68.2666 8.72752 68.0835 8.83346C67.9045 8.93939 67.7254 9.0494 67.5627 9.18386ZM68.8037 9.72984C68.7468 9.77873 68.6735 9.80318 68.6003 9.8154C68.527 9.82763 68.4497 9.8317 68.3765 9.83577C68.3561 9.84392 68.3317 9.85207 68.3073 9.8643C68.2178 9.89689 68.1283 9.94579 68.0347 9.96208C67.9899 9.97023 67.9492 9.97431 67.9085 9.98246C67.8841 9.98246 67.8557 9.99468 67.8353 9.98653C67.8028 9.97431 67.7702 9.91726 67.7539 9.89689C67.7295 9.8643 67.7173 9.80725 67.7132 9.76651C67.7092 9.72169 67.701 9.6728 67.7132 9.63205C67.7295 9.59945 67.7376 9.52612 67.7702 9.50574C67.7905 9.49759 67.815 9.49352 67.8353 9.48537C67.8801 9.47315 67.9208 9.45685 67.9655 9.4487C68.055 9.42833 68.1568 9.4324 68.2463 9.42425C68.2951 9.42425 68.3439 9.42425 68.3887 9.4161C68.4335 9.4161 68.4782 9.40388 68.523 9.42425C68.5718 9.44463 68.6206 9.4813 68.6735 9.47722C68.7264 9.47722 68.7793 9.45685 68.8241 9.4487C68.8404 9.4487 68.8485 9.51389 68.8526 9.52204C68.8648 9.59946 68.8648 9.6728 68.8037 9.72984ZM68.6247 6.60472C68.584 6.72288 68.5311 6.83289 68.4782 6.94698C68.4253 7.05699 68.3684 7.17515 68.287 7.26886C68.2137 7.36257 68.1283 7.45221 68.0388 7.5337C67.9981 7.5663 67.9533 7.61927 67.9085 7.64371C67.8882 7.65186 67.8516 7.66408 67.8312 7.66816C67.7865 7.67223 67.7702 7.63556 67.7417 7.60704C67.7132 7.5826 67.7051 7.51333 67.701 7.47666C67.697 7.43184 67.6888 7.38295 67.701 7.33813C67.7214 7.28516 67.7214 7.24442 67.7621 7.20367C67.7865 7.18737 67.8068 7.15885 67.8353 7.14255C67.876 7.10996 67.9248 7.09773 67.9696 7.07329C68.055 7.02439 68.1446 6.9755 68.2219 6.91438C68.2951 6.86142 68.3684 6.82067 68.4375 6.77178C68.5108 6.71474 68.5637 6.64547 68.6125 6.56805C68.6125 6.56805 68.6247 6.60065 68.6206 6.6088L68.6247 6.60472ZM68.8037 9.54241C68.8037 9.54241 68.7875 9.56279 68.7793 9.57501C68.7508 9.59946 68.7264 9.61983 68.6939 9.63205C68.7427 9.61575 68.7997 9.6076 68.8444 9.59945C68.8322 9.57501 68.8282 9.55056 68.8159 9.52611C68.8159 9.49352 68.8119 9.52612 68.8037 9.54241ZM65.5159 5.53721C65.4386 5.47202 65.3532 5.51684 65.2759 5.55351C65.166 5.60648 65.0602 5.65945 64.9503 5.72057C65.1009 5.68797 65.2637 5.6676 65.402 5.72464C65.4956 5.76131 65.5648 5.80613 65.6624 5.77761C65.6461 5.74909 65.6299 5.72464 65.6177 5.70019C65.5892 5.64315 65.5648 5.57388 65.5159 5.53314V5.53721ZM65.6177 5.70427C65.5892 5.64723 65.5648 5.57796 65.5159 5.53721C65.4386 5.47202 65.3532 5.51684 65.2759 5.55351C65.166 5.60648 65.0602 5.65945 64.9503 5.72057C65.1009 5.68797 65.2637 5.6676 65.402 5.72464C65.4956 5.76131 65.5648 5.80613 65.6624 5.77761C65.6461 5.74909 65.6299 5.72464 65.6177 5.70019V5.70427ZM68.8159 9.52611C68.8159 9.49352 68.8119 9.52612 68.8037 9.54241C68.7997 9.55464 68.7875 9.56279 68.7793 9.57501C68.7508 9.59946 68.7264 9.61983 68.6939 9.63205C68.7427 9.61575 68.7997 9.6076 68.8444 9.59945C68.8322 9.57501 68.8282 9.55056 68.8159 9.52611ZM68.8159 9.52611C68.8159 9.49352 68.8119 9.52612 68.8037 9.54241C68.7997 9.55464 68.7875 9.56279 68.7793 9.57501C68.7508 9.59946 68.7264 9.61983 68.6939 9.63205C68.7427 9.61575 68.7997 9.6076 68.8444 9.59945C68.8322 9.57501 68.8282 9.55056 68.8159 9.52611ZM65.6177 5.70427C65.5892 5.64723 65.5648 5.57796 65.5159 5.53721C65.4386 5.47202 65.3532 5.51684 65.2759 5.55351C65.166 5.60648 65.0602 5.65945 64.9503 5.72057C65.1009 5.68797 65.2637 5.6676 65.402 5.72464C65.4956 5.76131 65.5648 5.80613 65.6624 5.77761C65.6461 5.74909 65.6299 5.72464 65.6177 5.70019V5.70427ZM65.6177 5.70427C65.5892 5.64723 65.5648 5.57796 65.5159 5.53721C65.4386 5.47202 65.3532 5.51684 65.2759 5.55351C65.166 5.60648 65.0602 5.65945 64.9503 5.72057C65.1009 5.68797 65.2637 5.6676 65.402 5.72464C65.4956 5.76131 65.5648 5.80613 65.6624 5.77761C65.6461 5.74909 65.6299 5.72464 65.6177 5.70019V5.70427ZM68.8159 9.52611C68.8159 9.49352 68.8119 9.52612 68.8037 9.54241C68.7997 9.55464 68.7875 9.56279 68.7793 9.57501C68.7508 9.59946 68.7264 9.61983 68.6939 9.63205C68.7427 9.61575 68.7997 9.6076 68.8444 9.59945C68.8322 9.57501 68.8282 9.55056 68.8159 9.52611ZM68.8159 9.52611C68.8159 9.49352 68.8119 9.52612 68.8037 9.54241C68.7997 9.55464 68.7875 9.56279 68.7793 9.57501C68.7508 9.59946 68.7264 9.61983 68.6939 9.63205C68.7427 9.61575 68.7997 9.6076 68.8444 9.59945C68.8322 9.57501 68.8282 9.55056 68.8159 9.52611ZM65.6177 5.70427C65.5892 5.64723 65.5648 5.57796 65.5159 5.53721C65.4386 5.47202 65.3532 5.51684 65.2759 5.55351C65.166 5.60648 65.0602 5.65945 64.9503 5.72057C65.1009 5.68797 65.2637 5.6676 65.402 5.72464C65.4956 5.76131 65.5648 5.80613 65.6624 5.77761C65.6461 5.74909 65.6299 5.72464 65.6177 5.70019V5.70427ZM65.6177 5.70427C65.5892 5.64723 65.5648 5.57796 65.5159 5.53721C65.4386 5.47202 65.3532 5.51684 65.2759 5.55351C65.166 5.60648 65.0602 5.65945 64.9503 5.72057C65.1009 5.68797 65.2637 5.6676 65.402 5.72464C65.4956 5.76131 65.5648 5.80613 65.6624 5.77761C65.6461 5.74909 65.6299 5.72464 65.6177 5.70019V5.70427ZM65.6177 5.70427C65.5892 5.64723 65.5648 5.57796 65.5159 5.53721C65.4386 5.47202 65.3532 5.51684 65.2759 5.55351C65.166 5.60648 65.0602 5.65945 64.9503 5.72057C65.1009 5.68797 65.2637 5.6676 65.402 5.72464C65.4956 5.76131 65.5648 5.80613 65.6624 5.77761C65.6461 5.74909 65.6299 5.72464 65.6177 5.70019V5.70427ZM65.6177 5.70427C65.5892 5.64723 65.5648 5.57796 65.5159 5.53721C65.4386 5.47202 65.3532 5.51684 65.2759 5.55351C65.166 5.60648 65.0602 5.65945 64.9503 5.72057C65.1009 5.68797 65.2637 5.6676 65.402 5.72464C65.4956 5.76131 65.5648 5.80613 65.6624 5.77761C65.6461 5.74909 65.6299 5.72464 65.6177 5.70019V5.70427ZM65.6177 5.70427C65.5892 5.64723 65.5648 5.57796 65.5159 5.53721C65.4386 5.47202 65.3532 5.51684 65.2759 5.55351C65.166 5.60648 65.0602 5.65945 64.9503 5.72057C65.1009 5.68797 65.2637 5.6676 65.402 5.72464C65.4956 5.76131 65.5648 5.80613 65.6624 5.77761C65.6461 5.74909 65.6299 5.72464 65.6177 5.70019V5.70427Z" fill="#1D1D1B"/>
<path d="M58.5419 6.3358C56.5562 6.87363 54.4484 7.43183 52.4017 6.88586C51.9337 6.75955 51.4617 6.58435 51.0548 6.32358C50.8717 6.20542 50.7008 6.05874 50.5706 5.87946C50.3142 5.52498 50.4729 5.12569 50.7008 4.81195C51.2745 4.00928 52.2796 3.54072 53.2318 3.41034C53.2847 3.40219 53.2724 3.09253 53.2236 3.09253C52.1575 3.13327 50.9165 3.60999 50.4363 4.64083C50.0416 5.48424 50.3183 6.45804 51.0833 6.96734C52.0436 7.61111 53.362 7.72112 54.485 7.65185C55.8807 7.56629 57.2276 7.14662 58.5541 6.73918C58.6395 6.71473 58.5785 6.32765 58.5459 6.3358H58.5419Z" fill="#1D1D1B"/>
<path d="M55.2297 45.4181C55.307 45.4751 57.1787 46.6771 58.2489 46.6608L58.5581 47.2109C58.5581 47.2109 55.8644 46.3715 55.0425 45.8663L55.2297 45.4181Z" fill="#1D1D1B"/>
<path d="M70.932 36.7028C70.9483 34.1482 70.9198 31.5038 70.4966 28.9777C70.8099 29.4299 71.1802 29.817 71.3633 30.3548C71.5301 30.8315 71.5749 31.3327 71.5952 31.8339C71.6522 33.2925 71.5952 34.7593 71.4528 36.2098C71.3185 37.587 71.0947 38.956 70.7936 40.3047C70.9076 39.1068 70.9238 37.9048 70.9279 36.7028H70.932Z" fill="#1D1D1B"/>
<path d="M70.4196 28.5376C70.444 28.6843 70.4766 28.8269 70.501 28.9776C70.4725 28.9369 70.444 28.8962 70.4155 28.8513C70.387 28.8024 70.3464 28.6191 70.3301 28.4357C70.3545 28.3787 70.387 28.3787 70.4196 28.5376Z" fill="#1D1D1B"/>
<path d="M70.757 40.6755C70.6878 41.3029 70.5902 41.9304 70.4518 42.5456C70.3501 43.002 70.2443 43.6783 69.9351 44.045C69.8944 44.0939 69.8618 43.931 69.8374 43.7435C69.8374 43.7313 69.8455 43.7191 69.8455 43.7069C70.2199 42.5905 70.5373 41.4537 70.7936 40.3047C70.7774 40.431 70.7692 40.5532 70.7529 40.6755H70.757Z" fill="#1D1D1B"/>
<path d="M70.501 28.9777C70.9242 31.5039 70.9486 34.1482 70.9364 36.7029C70.9282 37.9048 70.916 39.1068 70.8021 40.3047C70.5457 41.4537 70.2284 42.5905 69.854 43.7069C69.9272 43.2098 69.9924 42.7127 70.0453 42.2116C70.2284 41.3478 70.4196 40.4962 70.4969 39.5998C70.5946 38.4549 70.619 37.2978 70.619 36.1488C70.619 33.6593 70.4074 31.1861 70.2935 28.7047C70.2935 28.6273 70.3097 28.4969 70.3342 28.4358C70.3504 28.6191 70.3911 28.8025 70.4196 28.8514C70.444 28.8962 70.4766 28.937 70.5051 28.9777H70.501Z" fill="#1D1D1B"/>
<path d="M70.0412 42.2115C69.9883 42.7127 69.9232 43.2098 69.85 43.7069C69.85 43.715 69.85 43.7232 69.8418 43.7272C69.8215 43.5357 69.8133 43.3198 69.8215 43.275C69.8866 42.9164 69.9639 42.566 70.0412 42.2115Z" fill="#1D1D1B"/>
<path d="M69.8499 43.7068C69.8499 43.7068 69.8499 43.7312 69.8418 43.7435V43.7272C69.8418 43.7272 69.8418 43.7109 69.8499 43.7068Z" fill="#1D1D1B"/>
<path d="M71.7621 35.8064C71.5016 38.9764 70.7936 42.0893 69.7113 45.0758C69.7113 44.9781 69.7113 44.8232 69.6787 44.8314C69.6787 44.8314 69.6706 44.8314 69.6665 44.8314C69.7235 44.4647 69.7886 44.1061 69.8374 43.7394C69.8577 43.9269 69.8944 44.0898 69.9351 44.0409C70.2443 43.6742 70.346 42.9979 70.4518 42.5415C70.5902 41.9263 70.6878 41.2947 70.757 40.6714C70.7733 40.545 70.7814 40.4228 70.7977 40.3006C71.0988 38.9519 71.3185 37.5829 71.4569 36.2057C71.6034 34.7552 71.6563 33.2884 71.5993 31.8298C71.579 31.3327 71.5342 30.8274 71.3674 30.3507C71.1843 29.8129 70.8099 29.4258 70.5007 28.9736C70.4762 28.8269 70.4437 28.6843 70.4193 28.5335C70.3908 28.3705 70.3582 28.3705 70.3298 28.4317C70.3135 28.2442 70.3298 28.0568 70.4193 28.0405C70.9564 27.9427 71.2738 28.7087 71.4365 29.1365C71.6685 29.7314 71.7702 30.3833 71.8272 31.0149C71.9655 32.5998 71.8882 34.2256 71.7621 35.8024V35.8064Z" fill="#1D1D1B"/>
<path d="M69.7033 45.141C69.6789 45.2266 69.6463 45.304 69.6016 45.3692C69.6423 45.2714 69.6748 45.1736 69.7114 45.0758C69.7114 45.1084 69.7114 45.1328 69.7033 45.141Z" fill="#1D1D1B"/>
<path d="M69.5732 45.4182C69.6058 45.2226 69.6343 45.0311 69.6709 44.8355C69.6709 44.8355 69.679 44.8355 69.6831 44.8355C69.7197 44.8233 69.7197 44.9822 69.7157 45.08C69.679 45.1778 69.6465 45.2755 69.6058 45.3733C69.5977 45.3896 69.5855 45.4059 69.5773 45.4222L69.5732 45.4182Z" fill="#1D1D1B"/>
<path d="M69.5609 45.4303C69.5283 45.2673 69.4998 45.1043 69.4673 44.9413C69.5283 44.9006 69.5975 44.868 69.6667 44.8395C69.6341 45.0351 69.6056 45.2266 69.569 45.4221C69.569 45.4221 69.5609 45.4303 69.5568 45.4343L69.5609 45.4303Z" fill="#1D1D1B"/>
<path d="M69.5731 45.4181C69.5731 45.4181 69.5731 45.4385 69.5649 45.4507C69.5649 45.4425 69.5649 45.4344 69.5649 45.4303C69.5649 45.4303 69.5731 45.4222 69.5771 45.4181H69.5731Z" fill="#1D1D1B"/>
<path d="M69.4714 45.5241C69.5039 45.4956 69.5324 45.4671 69.5609 45.4304C69.5609 45.4385 69.5609 45.4467 69.5609 45.4508C69.5609 45.4385 69.5609 45.4304 69.569 45.4182C69.5812 45.4019 69.5894 45.3856 69.5975 45.3693C69.5812 45.4182 69.5649 45.467 69.5446 45.5119C69.5161 45.5934 69.4876 45.5689 69.4673 45.5241H69.4714Z" fill="#1D1D1B"/>
<path d="M69.6665 44.8355C69.5973 44.864 69.5322 44.8966 69.4671 44.9374C69.459 44.9007 69.4508 44.864 69.4468 44.8274C69.5811 44.4607 69.7153 44.098 69.8415 43.7313V43.7476C69.7886 44.1143 69.7275 44.4729 69.6706 44.8396L69.6665 44.8355Z" fill="#1D1D1B"/>
<path d="M69.4716 44.9374C69.5001 45.1044 69.5286 45.2633 69.5652 45.4263C69.5408 45.463 69.5082 45.4915 69.4757 45.52C69.4553 45.4834 69.4472 45.4304 69.4391 45.41C69.3943 45.2796 69.4024 45.1085 69.4187 44.9659C69.435 44.9537 69.4513 44.9455 69.4716 44.9374Z" fill="#1D1D1B"/>
<path d="M68.9057 46.013C68.9138 46.0456 68.926 46.07 68.9219 46.0945C68.7103 46.999 68.6859 47.9198 68.6452 48.8447C68.6249 49.3052 68.5883 49.7656 68.4418 50.2097C68.3482 50.499 68.3401 50.776 68.4133 51.0653C68.8487 52.7318 69.1091 54.4268 69.4509 56.1136C69.5608 56.6514 69.7195 57.1811 69.8782 57.7067C69.9351 57.8901 69.8985 58.0164 69.7927 58.1508C69.4713 58.5542 69.0359 58.6886 68.5516 58.7253C68.1488 58.7498 67.7623 58.6846 67.3716 58.5868C67.2089 58.546 67.0868 58.4605 67.0217 58.3179C66.8793 58.0164 66.7246 57.7189 66.6107 57.4052C66.3218 56.6351 66.0695 55.8487 65.7765 55.0827C65.508 54.3901 65.2069 53.7137 64.9139 53.0292C64.4297 51.9087 64.3442 50.7394 64.4867 49.5455C64.5314 49.1625 64.5192 48.7999 64.4134 48.4251C64.2303 47.7813 64.1001 47.1253 64.0513 46.453C64.0513 46.3878 64.0513 46.3186 64.0513 46.2412C64.1367 46.2289 64.2222 46.2167 64.2995 46.1963C64.9749 46.4082 65.6585 46.4082 66.334 46.3715C67.1478 46.3226 67.9494 46.2004 68.7429 46.0293C68.7958 46.0171 68.8487 46.013 68.9097 46.0089L68.9057 46.013Z" fill="#1D1D1B"/>
<path d="M69.4469 44.8273C69.455 44.8639 69.4631 44.9006 69.4672 44.9373C69.4469 44.9454 69.4306 44.9577 69.4143 44.9658C69.4143 44.9414 69.4224 44.9128 69.4265 44.8884C69.8416 42.4315 70.2892 39.885 69.691 37.4199C69.1417 35.1423 67.9535 33.0032 66.7979 30.9863C66.7857 30.966 66.7979 30.9008 66.7979 30.9008C68.1407 32.9584 69.4265 34.9956 69.9067 37.4484C70.2159 39.0293 70.1956 40.6184 70.0328 42.2074C69.9555 42.5619 69.8782 42.9164 69.8131 43.2708C69.8049 43.3156 69.8131 43.5316 69.8334 43.7231C69.7073 44.0898 69.5771 44.4565 69.4387 44.8191L69.4469 44.8273Z" fill="#1D1D1B"/>
<path d="M69.4349 45.414C69.4431 45.4344 69.4553 45.4873 69.4716 45.524C69.3658 45.6218 69.2315 45.6788 69.0647 45.7196C68.7676 45.7848 68.4502 45.7685 68.1491 45.7196C67.9335 45.6829 67.7503 45.5851 67.5388 45.524C67.3475 45.471 67.1603 45.414 66.9732 45.3447C66.7249 45.251 66.4889 45.141 66.2529 45.0188C66.2611 44.9169 66.2529 44.8069 66.2407 44.7417C66.493 44.8639 66.7575 44.9699 67.0261 45.0554C67.201 45.1125 67.3801 45.1573 67.5591 45.194C67.6608 45.2143 67.7422 45.2021 67.848 45.194C67.9375 45.194 68.0189 45.2103 68.1044 45.2184C68.4014 45.251 68.7106 45.251 69.0036 45.1736C69.1623 45.1288 69.2885 45.0432 69.4187 44.9658C69.3983 45.1084 69.3942 45.2836 69.439 45.4099L69.4349 45.414Z" fill="#1D1D1B"/>
<path d="M66.2406 44.7255V44.7377C66.1429 44.6929 66.0575 44.644 65.9639 44.5951C66.0208 44.5421 66.0697 44.4973 66.1226 44.4443C66.1999 44.3669 66.2365 44.6888 66.2406 44.7296V44.7255Z" fill="#1D1D1B"/>
<path d="M65.9559 44.5909L65.9478 44.5991V44.5909H65.9559Z" fill="#1D1D1B"/>
<path d="M66.2407 44.7376C66.2488 44.8028 66.261 44.9088 66.2529 45.0147C66.1552 44.9617 66.0535 44.9087 65.9558 44.8476C65.907 44.8232 65.9436 44.6358 65.9558 44.5991L65.964 44.5909C66.0576 44.6439 66.143 44.6887 66.2407 44.7335V44.7376Z" fill="#1D1D1B"/>
<path d="M64.2956 46.2045C64.2142 46.2248 64.1287 46.2371 64.0474 46.2493C64.0474 46.2085 64.0474 46.1678 64.0474 46.1189C64.1287 46.1515 64.2142 46.1759 64.2956 46.2045Z" fill="#1D1D1B"/>
<path d="M66.2488 45.0147C66.2488 45.1044 66.2326 45.1899 66.1919 45.2307C65.6629 45.7196 64.9996 46.0578 64.2957 46.2045C64.2143 46.18 64.1288 46.1515 64.0475 46.1189C64.0475 46.1678 64.0475 46.2085 64.0475 46.2493C63.3028 46.3552 62.5338 46.2493 61.8583 45.903C61.8014 45.8785 61.7932 45.744 61.7973 45.6137C61.838 45.5362 61.8705 45.4548 61.9031 45.3733C63.2906 45.8174 64.8572 45.5648 65.9518 44.5991C65.9396 44.6317 65.903 44.8191 65.9518 44.8477C66.0494 44.9047 66.1512 44.9618 66.2488 45.0147Z" fill="#1D1D1B"/>
<path d="M61.9032 45.3732C61.8706 45.4547 61.8381 45.5362 61.7974 45.6136C61.8055 45.4792 61.8299 45.3569 61.8462 45.3569C61.8665 45.3651 61.8869 45.3692 61.9032 45.3773V45.3732Z" fill="#1D1D1B"/>
<path d="M58.6395 47.0193C58.6069 47.1008 58.5866 47.1538 58.5622 47.1986C58.4645 47.1864 58.375 47.1701 58.2773 47.1456C58.318 47.1293 58.3587 47.1171 58.3994 47.1008C58.4645 47.0764 58.5337 47.0519 58.6395 47.0153V47.0193Z" fill="#1D1D1B"/>
<path d="M58.2776 47.1498C58.3753 47.1702 58.4648 47.1905 58.5624 47.2027C58.5624 47.2027 58.5624 47.2109 58.5624 47.215C58.2206 47.8139 57.9358 48.4414 57.7202 49.0974C57.5492 49.6148 57.301 50.0956 57.0243 50.5642C56.0152 52.2836 55.2706 54.1171 54.7457 56.0403C54.4812 57.0181 54.4161 58.0204 54.4201 59.0268C54.4201 59.2958 54.4201 59.5687 54.3998 59.8417C54.351 60.6892 53.704 61.2311 52.8617 61.1293C52.4222 61.0763 52.0194 60.9296 51.6369 60.7177C51.5026 60.6403 51.4375 60.5507 51.4416 60.3918C51.4619 59.7765 51.4619 59.1613 51.4904 58.5461C51.5433 57.4908 51.5962 56.4314 51.6613 55.3761C51.7508 54.0234 51.8322 52.6666 52.1415 51.3383C52.2676 50.7964 52.4304 50.2749 52.6786 49.7778C52.878 49.3744 53.0733 48.9629 53.2727 48.5595C53.3256 48.4577 53.3947 48.3558 53.4436 48.2784C53.7325 48.2784 53.9929 48.2866 54.2533 48.2784C55.1078 48.2377 55.9216 48.0054 56.7273 47.7365C57.2522 47.5654 57.7649 47.3576 58.2817 47.1579L58.2776 47.1498Z" fill="#1D1D1B"/>
<path d="M64.6861 36.3279C64.9751 35.4886 65.2029 34.58 65.5813 33.7773C65.6505 33.6225 65.7034 34.2866 65.6749 34.3966C65.4349 35.3134 65.0727 36.2138 64.7635 37.1061C64.4705 37.9699 64.1694 38.8296 63.8764 39.6975C63.3027 41.3721 62.7289 43.0508 62.143 44.7213C62.0657 44.9373 61.9924 45.1573 61.9029 45.3692C61.8826 45.361 61.8622 45.3569 61.8459 45.3488C61.8297 45.3488 61.8053 45.4751 61.7971 45.6055C61.6384 45.9681 61.4309 46.2981 61.1135 46.563C60.6537 46.9541 60.0718 47.1578 59.4777 47.219C59.1685 47.2475 58.8674 47.2393 58.5663 47.1945C58.5907 47.1497 58.611 47.0967 58.6436 47.0152C58.5378 47.0519 58.4686 47.0723 58.4035 47.1008C58.3628 47.1171 58.3221 47.1293 58.2814 47.1456C57.3863 46.9623 56.5358 46.5059 55.7505 46.0211C55.7505 45.9803 55.7505 45.9396 55.7505 45.9029C56.9346 46.4081 58.1512 46.8563 59.4615 46.6159C60.1166 46.4978 60.7839 46.2085 61.2397 45.7114C61.7564 45.1491 61.9395 44.3546 62.1796 43.6497C62.733 42.0118 63.2986 40.3739 63.8601 38.7359C64.1368 37.9333 64.4135 37.1306 64.6902 36.3279H64.6861Z" fill="#1D1D1B"/>
<path d="M55.7463 45.9071C55.7463 45.9437 55.7463 45.9845 55.7463 46.0252C55.5713 45.9193 55.3963 45.8093 55.2295 45.6993V45.683C55.4004 45.7563 55.5754 45.8297 55.7463 45.903V45.9071Z" fill="#1D1D1B"/>
<path d="M53.0241 44.1306C53.0811 44.151 53.0607 44.3343 53.0485 44.3791C53.0322 44.4362 53.0119 44.4973 52.9834 44.5543C52.9061 44.5095 52.8288 44.4606 52.7515 44.4199C52.7799 44.371 52.8084 44.3221 52.8491 44.2773C52.8939 44.2243 52.9468 44.1795 52.9956 44.1306C52.9956 44.1306 53.0037 44.1306 53.0078 44.1224C53.0078 44.1224 53.02 44.1224 53.0282 44.1306H53.0241Z" fill="#1D1D1B"/>
<path d="M52.7966 44.8599C52.707 44.9862 52.6175 45.1125 52.5239 45.2429C52.3693 45.4548 52.2188 45.6707 52.0479 45.8785C52.1252 45.7237 52.1577 45.5404 52.1455 45.3448C52.2432 45.1818 52.353 45.0229 52.4588 44.864C52.5483 44.7295 52.6338 44.5992 52.7233 44.4647C52.7315 44.4484 52.7396 44.4402 52.7477 44.424C52.825 44.4647 52.9024 44.5136 52.9797 44.5584C52.9268 44.6643 52.8617 44.7703 52.7925 44.864L52.7966 44.8599Z" fill="#1D1D1B"/>
<path d="M52.7515 44.4239C52.666 44.3751 52.5765 44.3262 52.4911 44.2854C52.2144 44.151 51.9906 44.151 51.7017 44.0939C51.6325 44.1143 51.5796 44.0939 51.5308 44.0246C51.6569 43.8291 51.783 43.6416 51.9173 43.4542C52.1655 43.4909 52.4422 43.6172 52.5928 43.6987C53.1096 43.9758 53.5938 44.3262 54.0821 44.6562C54.6314 45.027 55.2133 45.3692 55.7178 45.8093C55.7341 45.8215 55.7382 45.8622 55.7422 45.9111C55.5713 45.8378 55.3964 45.7644 55.2255 45.6911V45.7074C55.3964 45.8133 55.5673 45.9233 55.7422 46.0334C55.7422 46.123 55.726 46.2045 55.7138 46.2045C54.7331 45.8011 53.8908 45.1085 52.9793 44.5625C53.0078 44.5054 53.0322 44.4443 53.0445 44.3873C53.0567 44.3425 53.0729 44.1591 53.02 44.1387C53.0119 44.1387 53.0038 44.1387 52.9997 44.1306C52.9997 44.1306 52.9916 44.1387 52.9875 44.1387C52.9387 44.1876 52.8858 44.2365 52.841 44.2854C52.8044 44.3302 52.7759 44.3832 52.7433 44.428L52.7515 44.4239Z" fill="#1D1D1B"/>
<path d="M52.1492 45.3447C52.1614 45.5403 52.1289 45.7237 52.0516 45.8785C52.0271 45.9152 51.9946 45.9518 51.962 45.9885C51.9376 46.0129 51.9213 45.8948 51.9173 45.8826C51.9173 45.8255 51.9051 45.7481 51.9376 45.6992C52.0068 45.577 52.076 45.4629 52.1492 45.3447Z" fill="#1D1D1B"/>
<path d="M57.3254 33.704C56.9307 37.6481 54.0824 40.3698 51.9176 43.4501C51.8444 43.4379 51.7712 43.4338 51.7061 43.4501C53.7202 40.3046 56.7191 37.4158 57.2888 33.5777C57.3051 33.484 57.3336 33.6755 57.3295 33.7081L57.3254 33.704Z" fill="#1D1D1B"/>
<path d="M52.4911 44.2853C52.5806 44.3302 52.666 44.3791 52.7515 44.4239C52.7393 44.4402 52.7311 44.4483 52.7271 44.4646C52.6375 44.5991 52.5521 44.7295 52.4626 44.8639C52.3568 45.0269 52.251 45.1858 52.1493 45.3447V45.3203C52.1248 44.9739 51.9784 44.705 51.783 44.4198C51.7261 44.3424 51.6732 44.269 51.6203 44.1876C51.5877 44.1346 51.5592 44.0776 51.5308 44.0205C51.5796 44.0857 51.6284 44.1101 51.7017 44.0898C51.9906 44.1468 52.2184 44.1468 52.4911 44.2813V44.2853Z" fill="#1D1D1B"/>
<path d="M51.661 47.2068C51.661 47.2068 51.661 47.2394 51.6691 47.2557C51.6691 47.2353 51.661 47.219 51.6528 47.1986V47.1864C51.6528 47.1864 51.661 47.1986 51.661 47.2068Z" fill="#1D1D1B"/>
<path d="M51.6406 47.1254C51.6406 47.1254 51.6488 47.1457 51.6528 47.162V47.1702C51.6528 47.1702 51.6447 47.1417 51.6406 47.1254Z" fill="#1D1D1B"/>
<path d="M51.6284 47.0846C51.6284 47.0846 51.6488 47.1335 51.6488 47.162C51.6488 47.1457 51.6406 47.1376 51.6366 47.1253C51.6366 47.1253 51.6366 47.1172 51.6366 47.1131C51.6366 47.1009 51.6366 47.0927 51.6284 47.0846Z" fill="#1D1D1B"/>
<path d="M51.5431 46.3796C51.5309 46.4082 51.5228 46.4367 51.5146 46.4611C51.5146 46.4367 51.5228 46.4122 51.5269 46.3878C51.5269 46.3878 51.5391 46.3878 51.5472 46.3796H51.5431Z" fill="#1D1D1B"/>
<path d="M51.5311 44.0206C51.5311 44.0206 51.5067 44.0613 51.4904 44.0776C51.4904 44.0776 51.4294 43.8739 51.47 43.8128C51.5474 43.6905 51.6206 43.5642 51.706 43.4461C51.7712 43.4338 51.8444 43.4379 51.9176 43.4461C51.7834 43.6335 51.6572 43.8209 51.5311 44.0124V44.0206Z" fill="#1D1D1B"/>
<path d="M51.5146 46.3919C51.5146 46.3634 51.5269 46.3348 51.5309 46.3022C51.5309 46.3308 51.5309 46.3593 51.5228 46.3878H51.5146V46.3919Z" fill="#1D1D1B"/>
<path d="M51.5148 46.3918C51.5148 46.3918 51.5148 46.3918 51.523 46.3918C51.523 46.4163 51.5148 46.4407 51.5107 46.4652C51.5107 46.4733 51.5026 46.4856 51.4985 46.4896C51.5067 46.457 51.5107 46.4285 51.5148 46.3918Z" fill="#1D1D1B"/>
<path d="M51.2868 46.2697C51.3071 46.1353 51.3437 46.009 51.4251 45.903C51.4251 45.903 51.4373 45.8908 51.4455 45.8867C51.478 45.9071 51.474 45.8989 51.5024 45.8867C51.5106 45.8867 51.5147 45.8949 51.5187 45.8989C51.5065 45.9193 51.5065 45.9234 51.5187 45.9152C51.5269 45.9071 51.535 45.9152 51.5391 45.9152C51.5553 45.9275 51.5594 45.9601 51.5635 45.9723C51.5838 46.0497 51.5838 46.1353 51.5798 46.2167C51.5798 46.2738 51.5594 46.3268 51.5472 46.3797C51.5391 46.3797 51.5309 46.3879 51.5269 46.3879C51.5269 46.3594 51.535 46.3308 51.535 46.3023C51.535 46.3308 51.5228 46.3594 51.5187 46.392C51.4414 46.4205 51.356 46.4449 51.2705 46.4531C51.2705 46.392 51.2786 46.3308 51.2909 46.2697H51.2868Z" fill="#1D1D1B"/>
<path d="M51.4209 46.7219V46.7301C51.4209 46.7301 51.4209 46.7504 51.4087 46.7545V46.7015C51.4087 46.7015 51.4168 46.7015 51.4168 46.7138C51.4168 46.7138 51.4168 46.7138 51.4168 46.7219H51.4209Z" fill="#1D1D1B"/>
<path d="M51.3356 47.166C51.4455 47.1986 51.5513 47.2353 51.6611 47.2679C51.6611 47.3045 51.6611 47.3412 51.6611 47.3738C51.6611 47.3942 51.6611 47.5694 51.6082 47.5694C51.5675 47.5694 51.5146 47.5001 51.4862 47.4716C51.4495 47.4227 51.4211 47.3738 51.3885 47.3208C51.3641 47.272 51.3397 47.219 51.3315 47.166H51.3356Z" fill="#1D1D1B"/>
<path d="M51.4048 46.6893C51.4048 46.6893 51.4048 46.6893 51.4048 46.6974V46.6811V46.6893ZM51.2827 46.9419C51.2583 46.7789 51.2542 46.6159 51.2664 46.453C51.3519 46.4407 51.4373 46.4204 51.5146 46.3918C51.5146 46.4244 51.5065 46.453 51.4984 46.4896C51.4984 46.4815 51.5065 46.4693 51.5106 46.4652C51.4902 46.5589 51.4577 46.6404 51.4211 46.7341V46.726V46.7178C51.4211 46.7097 51.4211 46.7056 51.4129 46.7015V46.7585C51.4129 46.7585 51.4251 46.7422 51.4251 46.7382C51.4251 46.7382 51.4251 46.7545 51.4333 46.7585C51.4495 46.8034 51.4699 46.8523 51.4943 46.893C51.5187 46.9419 51.5513 46.9826 51.5879 47.0234C51.6123 47.0478 51.6286 47.0804 51.6408 47.1212C51.6408 47.1212 51.6408 47.1293 51.6408 47.1334C51.6408 47.1497 51.6408 47.1619 51.653 47.1782C51.653 47.1864 51.653 47.1945 51.653 47.1986V47.2108C51.653 47.2108 51.653 47.2353 51.653 47.2475V47.2801C51.5472 47.2475 51.4414 47.2108 51.3275 47.1782C51.3031 47.1049 51.2868 47.0275 51.2746 46.9541L51.2827 46.9419Z" fill="#1D1D1B"/>
<path d="M50.7415 41.7266C51.5065 40.9769 52.2307 40.1865 52.9143 39.3634C54.2978 37.6929 55.3883 35.7901 55.547 33.5858C55.5633 33.4106 55.6162 33.598 55.6162 33.6673C55.661 35.8634 54.6234 37.8518 53.2928 39.5345C52.5563 40.4635 51.7099 41.311 50.831 42.1014C50.0172 42.8267 49.0854 43.6823 48.0478 44.0613C48.0396 44.0613 48.0274 43.9839 48.0478 43.9757C48.9511 43.2219 49.8951 42.5537 50.7374 41.7266H50.7415Z" fill="#1D1D1B"/>
<path d="M50.8146 46.4041C50.9733 46.453 51.128 46.4652 51.2704 46.453C51.2541 46.6159 51.2582 46.7789 51.2867 46.9419C51.2989 47.0152 51.3111 47.0927 51.3396 47.166C50.7048 46.9582 50.0497 46.7382 49.4881 46.3796C49.2155 46.2085 48.9632 45.9966 48.7476 45.7522C48.6011 45.5851 48.361 45.2958 48.2715 45.031C49.3457 44.8924 49.8706 46.1229 50.8146 46.4041Z" fill="#1D1D1B"/>
<path d="M51.6814 47.5897C50.7129 47.5327 49.6306 47.4471 48.8778 46.7626C48.3651 46.3022 48.1128 45.7033 48.0518 45.0554L48.1576 45.0432C48.1942 45.0351 48.2349 45.0269 48.2715 45.0228C48.361 45.2877 48.597 45.581 48.7476 45.744C48.9592 45.9885 49.2155 46.1963 49.4881 46.3715C50.0456 46.7341 50.7007 46.9541 51.3396 47.1578C51.3518 47.2108 51.3721 47.2638 51.3965 47.3127C51.425 47.3656 51.4535 47.4145 51.4942 47.4634C51.5186 47.492 51.5756 47.5653 51.6163 47.5612C51.6651 47.5612 51.6692 47.386 51.6692 47.3656C51.6692 47.333 51.6692 47.2964 51.6692 47.2597C51.6692 47.2597 51.6773 47.2597 51.6814 47.2597C51.7383 47.2801 51.7343 47.5775 51.6936 47.5775L51.6814 47.5897Z" fill="#1D1D1B"/>
<path d="M48.2716 45.031C48.235 45.031 48.1943 45.0433 48.1577 45.0514C48.1821 44.974 48.2147 44.9007 48.2391 44.8232C48.2391 44.8884 48.2472 44.9577 48.2716 45.0351V45.031Z" fill="#1D1D1B"/>
<path d="M51.2705 46.453C51.1281 46.4693 50.9735 46.453 50.8148 46.4041C49.8748 46.1189 49.3458 44.8884 48.2716 45.031C48.2472 44.9577 48.235 44.8884 48.2391 44.8191C48.2146 44.8966 48.1821 44.9699 48.1577 45.0473L48.0519 45.0595C48.0315 44.8232 48.0315 44.5828 48.0519 44.3465C48.0519 44.3058 48.0641 44.1143 48.1333 44.1102C49.3296 43.9961 49.8179 45.3814 50.8026 45.7726C51.1688 45.9192 51.7385 45.8704 51.9582 45.4833C52.0558 45.3081 51.8849 45.1655 51.7629 44.9984C51.6652 44.8558 51.5513 44.7132 51.4821 44.5584C51.3682 44.3058 51.3397 43.9635 51.4129 43.6946C51.4577 43.5357 51.5675 43.4623 51.7059 43.446C51.6204 43.5683 51.5472 43.6946 51.4699 43.8127C51.4292 43.8739 51.4902 44.0776 51.4902 44.0776C51.5065 44.0572 51.5147 44.0368 51.5309 44.0205C51.5553 44.0776 51.5879 44.1346 51.6204 44.1876C51.6733 44.2691 51.7262 44.3424 51.7832 44.4198C51.9785 44.7051 52.125 44.974 52.1494 45.3203V45.3447C52.0762 45.4629 52.007 45.577 51.9378 45.6992C51.9094 45.7522 51.9175 45.8296 51.9175 45.8826C51.9175 45.8989 51.9378 46.017 51.9622 45.9885C51.9907 45.9518 52.0233 45.9152 52.0518 45.8785C51.9541 46.1107 51.771 46.2859 51.5431 46.3797C51.5594 46.3267 51.5716 46.2778 51.5757 46.2167C51.5838 46.1352 51.5757 46.0496 51.5594 45.9722C51.5594 45.9559 51.5472 45.9233 51.535 45.9152C51.535 45.907 51.5228 45.9029 51.5147 45.9152C51.5024 45.9274 51.5024 45.9152 51.5147 45.8989C51.5147 45.8989 51.5065 45.8907 51.4984 45.8867C51.474 45.8989 51.478 45.907 51.4414 45.8867C51.4333 45.8867 51.4251 45.8989 51.4211 45.9029C51.3397 46.0089 51.3031 46.1393 51.2827 46.2696C51.2705 46.3308 51.2664 46.3919 51.2624 46.453H51.2705Z" fill="#1D1D1B"/>
<path d="M70.9363 28.0364C70.4195 28.0446 66.4481 29.0224 64.0474 28.399C64.0474 28.399 69.7237 28.9858 70.3219 31.459C70.92 33.9322 71.5629 31.2756 71.5629 31.2756L70.9404 28.0323L70.9363 28.0364Z" fill="#1D1D1B"/>
<path d="M56.1982 31.7156C54.8147 34.8611 52.2878 37.4484 49.2523 39.0415C47.7834 39.8116 46.1883 40.3453 44.5566 40.6183C43.9218 40.7243 42.8028 41.0176 42.2413 40.5491C41.7693 40.1538 42.2657 39.176 42.4977 38.7481C42.7337 38.3081 43.0429 37.917 43.3766 37.5462C43.4376 37.4769 43.3766 37.1021 43.34 37.1306C42.3878 37.9129 41.5699 39.4489 41.9076 40.7243C42.2617 42.0444 44.4793 41.4291 45.403 41.2376C48.4466 40.6061 51.2828 38.8989 53.3865 36.6213C54.6072 35.3011 55.5675 33.7732 56.2592 32.1149C56.2958 32.0294 56.2348 31.6341 56.1982 31.7197V31.7156Z" fill="#1D1D1B"/>
<path d="M49.2723 63.8877C45.7445 64.6211 41.7364 63.195 39.5554 60.3021C39.5554 60.3021 39.5351 60.3755 39.5554 60.3999C41.7731 63.4558 45.5817 64.9796 49.2805 64.1362C49.3293 64.124 49.3008 63.8877 49.2764 63.8917L49.2723 63.8877Z" fill="#1D1D1B"/>
<path d="M45.3619 65.3056C44.5237 65.1222 43.6692 64.7881 43.0548 64.1688C43.0304 64.1444 43.0263 64.2462 43.0222 64.2544C43.0222 64.2951 43.0182 64.3685 43.0426 64.4051C43.3274 64.7678 43.6692 65.057 44.0802 65.2689C44.2714 65.3667 44.4871 65.4278 44.6987 65.4686C44.9265 65.5134 45.1381 65.5093 45.366 65.4767C45.3945 65.4767 45.3904 65.3097 45.3619 65.3056Z" fill="#1D1D1B"/>
<path d="M29.9647 51.485C34.3796 47.9524 40.8983 48.7429 44.3733 53.1922C44.3733 53.1922 44.3855 53.1474 44.3733 53.1352C42.7782 51.0083 40.3734 49.5211 37.7285 49.1503C34.9574 48.7633 32.1172 49.6108 29.9484 51.3587C29.924 51.3791 29.9484 51.4891 29.9606 51.485H29.9647Z" fill="#1D1D1B"/>
<path d="M37.407 47.9727C38.1272 47.7934 38.9532 48.0868 39.4537 48.6246C39.4619 48.6328 39.4782 48.5024 39.4578 48.4698C39.3398 48.3027 39.2096 48.1561 39.0346 48.0461C38.88 47.9483 38.7091 47.8709 38.5341 47.8179C38.1638 47.7119 37.7569 47.7527 37.4029 47.8994C37.3907 47.9034 37.3989 47.9727 37.4029 47.9727H37.407Z" fill="#1D1D1B"/>
<path d="M58.0455 57.674C59.2052 57.1443 60.5439 57.1606 61.7484 57.5355C63.1685 57.9755 64.2427 58.8637 65.3007 59.8661C67.4858 61.94 71.0258 61.94 73.7562 61.0884C73.7969 61.0762 73.7725 60.8806 73.7521 60.8888C72.2466 61.2269 70.6556 61.3369 69.1215 61.1495C68.385 61.0599 67.6322 60.9214 66.9405 60.6484C66.1755 60.3428 65.5977 59.809 65.0118 59.2467C63.1888 57.4947 60.4626 56.1665 58.0415 57.5477C58.013 57.564 58.0415 57.6781 58.0415 57.6781L58.0455 57.674Z" fill="#1D1D1B"/>
<path d="M37.6226 44.595C37.6226 44.5094 37.6429 44.3994 37.6714 44.2813C37.6714 44.2813 37.6836 44.2812 37.6877 44.2894C37.6592 44.3872 37.6307 44.489 37.6307 44.5991C37.6307 44.6072 37.6307 44.6194 37.6307 44.5991L37.6226 44.595Z" fill="#1D1D1B"/>
<path d="M38.3715 45.6055C38.2779 45.744 38.0541 45.8092 37.9035 45.854C37.6919 45.9151 37.4763 45.9477 37.2647 45.9885C36.5038 46.1392 35.7388 46.1351 35.1528 45.5566C35.1203 45.524 35.0918 45.4914 35.0593 45.4588C34.571 44.8883 33.8101 43.5682 33.8101 43.5682C34.7785 43.9308 35.7795 43.5886 36.7479 43.4134C37.0775 43.3564 37.635 43.2423 37.753 43.6619C37.814 43.8901 37.7448 44.0816 37.6919 44.2853C37.6919 44.2853 37.6797 44.2772 37.6757 44.2772C37.7367 43.992 37.8059 43.6782 37.4681 43.6579C37.2769 43.6497 37.0775 43.7149 36.8903 43.7475C36.6706 43.7801 36.4509 43.8168 36.2271 43.8534C35.5842 43.9675 34.9046 44.0612 34.2739 43.8942C34.4001 43.992 34.5099 44.1183 34.6157 44.2568C34.7297 44.3098 34.8477 44.3464 34.9779 44.3668C35.4906 44.4605 35.9016 44.2487 36.3776 44.1101C36.8374 43.9757 37.2972 44.049 37.6716 44.2813C37.6472 44.3994 37.6187 44.5094 37.6228 44.595C37.6228 44.6072 37.6228 44.6154 37.6228 44.595C37.6228 44.485 37.6513 44.3831 37.6797 44.2853C37.9076 44.4239 38.1111 44.6276 38.2575 44.8802C38.3674 45.0717 38.5058 45.3936 38.3633 45.6055H38.3715Z" fill="#1D1D1B"/>
<path d="M39.4375 45.1003C39.348 45.1614 39.2544 45.2184 39.1527 45.2592C39.0632 45.2918 38.9696 45.3203 38.8719 45.3325C38.7417 45.3529 38.6034 45.3692 38.4731 45.3447C38.4609 45.2918 38.4487 45.2429 38.4365 45.194C38.5993 45.1818 38.7621 45.1777 38.9248 45.141C39.0265 45.1207 39.1242 45.0921 39.2219 45.0514C39.3114 45.0188 39.3968 44.9821 39.4782 44.9414C39.4985 44.9332 39.4782 44.9984 39.4782 45.0025C39.4701 45.031 39.4579 45.0758 39.4334 45.0962L39.4375 45.1003Z" fill="#1D1D1B"/>
<path d="M49.6709 57.5762C49.6709 57.5762 49.7604 57.5477 49.7279 57.5722C49.7075 57.5885 49.6912 57.5966 49.6709 57.6129C49.6587 57.6129 49.6506 57.6129 49.6424 57.6129C49.6343 57.6129 49.6302 57.6048 49.6221 57.6048C49.6383 57.5966 49.6546 57.5844 49.6709 57.5762Z" fill="#1D1D1B"/>
<path d="M51.0586 57.6944C51.022 57.7066 50.9854 57.7189 50.9528 57.7352C50.9447 57.7352 50.9365 57.7433 50.9325 57.7474C50.8755 57.6985 50.8267 57.6577 50.7656 57.6129C50.786 57.6211 50.8063 57.6251 50.8226 57.6292C50.8999 57.6496 50.9772 57.67 51.0545 57.6903L51.0586 57.6944Z" fill="#1D1D1B"/>
<path d="M51.0627 57.6944C51.0627 57.6944 51.0057 57.7311 50.965 57.7433C50.965 57.7433 50.9406 57.7515 50.9365 57.7515C50.1105 57.5355 49.3048 57.2544 48.5236 56.908C48.9101 57.1933 49.3374 57.4092 49.7972 57.5477C49.7972 57.5477 49.728 57.6048 49.6792 57.6129C49.6995 57.5966 49.7158 57.5885 49.7361 57.5722C49.7646 57.5518 49.6873 57.5722 49.6792 57.5722C49.6629 57.5844 49.6507 57.5925 49.6304 57.6007C49.6426 57.6007 49.6466 57.6088 49.6507 57.6088C49.6629 57.6088 49.671 57.6088 49.6792 57.6088C49.3577 57.8207 49.0037 57.9959 48.6212 58.0489C48.1899 58.11 47.8033 57.9755 47.4575 57.7148C47.0831 57.4214 46.7739 57.0384 46.4524 56.6799C46.0496 56.2439 45.6183 55.8242 45.2683 55.3557C45.248 55.3312 45.4148 55.2783 45.4392 55.2823C46.1025 55.4005 46.7942 55.4127 47.4615 55.3597C47.962 55.3231 48.5602 55.1723 48.9956 55.5064C49.195 55.6572 49.3252 55.8813 49.4066 56.1094C49.4554 56.2439 49.4839 56.3743 49.5042 56.5128C49.5164 56.5902 49.5246 56.6717 49.5408 56.7451C49.5408 56.7451 49.4432 57.0914 50.1349 57.2829C50.436 57.3685 50.6639 57.4988 50.8348 57.6211C50.8144 57.6211 50.7941 57.6129 50.7778 57.6048C50.8348 57.6496 50.8877 57.6903 50.9447 57.7392C50.9528 57.7392 50.9609 57.7311 50.965 57.727C50.9976 57.7107 51.0342 57.6985 51.0708 57.6863L51.0627 57.6944Z" fill="#1D1D1B"/>
<path d="M46.6069 57.5355C46.6069 57.5355 46.55 57.5722 46.5093 57.5844C46.5093 57.5844 46.5093 57.5762 46.5011 57.5762C46.4645 57.5436 46.4198 57.507 46.375 57.4744C46.4523 57.4947 46.5296 57.5151 46.6069 57.5355Z" fill="#1D1D1B"/>
<path d="M69.4673 14.9858C69.4673 14.9858 73.4346 16.4241 71.0583 26.7162L69.4998 26.2884L71.1112 23.1144C71.1112 23.1144 71.1641 19.3048 71.1112 19.2314C71.0583 19.1581 70.4805 17.3042 70.395 17.072C70.3096 16.8397 69.4673 14.9858 69.4673 14.9858Z" fill="#1D1D1B"/>
<path d="M70.936 15.0674C70.936 15.0674 72.4416 17.5447 72.4416 18.4207V19.5493L75.2899 17.7117C75.2899 17.7117 72.7793 14.9492 70.936 15.0715V15.0674Z" fill="#1D1D1B"/>
<path d="M73.3042 22.711L73.2554 22.3973L72.9258 20.2215L74.9562 18.7466C74.9562 18.7466 75.4486 19.5044 75.2574 20.849C75.0702 22.1936 74.1139 23.0818 74.1139 23.0818" fill="#1D1D1B"/>
</g>
<defs>
<clipPath id="clip0_3027_32462">
<rect width="144" height="116" fill="white"/>
</clipPath>
</defs>
</svg>
