<svg width="190" height="84" viewBox="0 0 190 84" fill="none" xmlns="http://www.w3.org/2000/svg">
<g clip-path="url(#clip0_3027_32441)">
<path d="M183.608 0C180.083 0 177.217 2.91147 177.217 6.48777C177.217 10.0641 180.085 12.9755 183.608 12.9755C187.132 12.9755 190 10.0641 190 6.48777C190 2.91147 187.132 0 183.608 0ZM187.195 6.48777C187.195 8.49466 185.586 10.1283 183.608 10.1283C181.631 10.1283 180.022 8.49466 180.022 6.48777C180.022 4.48089 181.631 2.84721 183.608 2.84721C185.586 2.84721 187.195 4.48089 187.195 6.48777Z" fill="#F6921E"/>
<path d="M16.3041 37.7996L10.1267 35.8743C5.47852 34.4062 3.85688 32.686 3.92993 29.3C3.97862 27.0608 4.86736 25.264 6.56936 23.959C8.12769 22.7628 9.92221 22.2067 12.2183 22.2067C12.3595 22.2067 12.5056 22.2067 12.6517 22.2141C15.6369 22.3006 17.4436 22.9333 18.8899 24.4014C20.066 25.5927 20.7478 27.2659 20.8671 29.2407L20.9499 30.647H24.0544L23.9594 29.0603V29.0454C23.711 26.2205 22.72 23.9121 21.0156 22.182C19.0726 20.2097 16.3236 19.2112 12.6055 19.1247C12.4837 19.1222 12.3595 19.1198 12.2402 19.1198C9.03104 19.1198 6.2163 20.0812 4.09793 21.9002C1.9114 23.7786 0.754818 26.4132 0.754818 29.52C0.754818 32.078 1.51694 34.0824 3.08258 35.6518C4.50943 37.0829 6.65945 38.2 9.84429 39.1664L14.5656 40.6246C16.6279 41.2696 18.9435 42.0556 20.3046 43.2345C21.6146 44.3689 22.1503 45.7209 22.1503 47.8983C22.1503 52.609 18.3104 55.7751 12.5933 55.7751C9.33053 55.7751 6.55718 54.9249 5.17416 53.4988C3.75461 52.0356 3.17511 50.4736 3.17511 48.1059V46.6699H0V47.6684C0 48.9314 0 52.7894 2.51038 55.3623C4.82597 57.735 8.18126 58.9362 12.4837 58.9362C15.8317 58.9362 19.019 58.0019 21.225 56.3707C23.9375 54.3663 25.3716 51.435 25.3716 47.8933C25.3716 45.2167 24.6923 43.2197 23.2314 41.6107C21.7996 40.0339 19.5985 38.8228 16.3041 37.7996Z" fill="#58595B"/>
<path d="M75.6499 22.4835H88.3016V58.6667H91.8444V22.4835H104.455V19.3743H75.6499V22.4835Z" fill="#58595B"/>
<path d="M118.105 55.5575C116.822 55.5575 115.777 54.4972 115.777 53.1947V19.3743H112.232V53.2738C112.232 56.2471 114.616 58.6667 117.545 58.6667H131.967V55.5575H118.102H118.105Z" fill="#58595B"/>
<path d="M43.631 51.5462L42.9906 53.5655L42.3478 51.4671L32.4232 19.7475L32.3063 19.3743H28.7075L41.1255 58.6667H44.8533L57.5489 19.3743H53.9477L43.631 51.5462Z" fill="#58595B"/>
<path d="M67.9407 19.3916H64.3955V58.6667H67.9407V19.3916Z" fill="#58595B"/>
<path d="M0.111816 75.6116C0.85446 75.5004 1.67015 75.4263 2.58324 75.4263C4.34123 75.4263 5.67069 75.8365 6.46934 76.5706C7.2412 77.2676 7.66974 78.2117 7.66974 79.4796C7.66974 80.7475 7.28503 81.8152 6.41333 82.6481C5.57086 83.4563 4.11235 83.9283 2.25453 83.9283C1.51188 83.9283 0.810632 83.916 0.111816 83.8666V75.6141V75.6116ZM0.798458 83.3673C1.18317 83.4167 1.74076 83.4291 2.35679 83.4291C5.44424 83.4291 6.97336 81.9264 6.97336 79.5018C7.00258 77.3763 5.64391 75.9231 2.54428 75.9231C1.80164 75.9231 1.21483 75.9848 0.800893 76.059V83.3673H0.798458Z" fill="#58595B"/>
<path d="M23.8912 79.6996H20.0465V83.3648H24.349V83.8616H19.3623V75.4856H24.1201V75.9824H20.0465V79.2003H23.8912V79.6971V79.6996Z" fill="#58595B"/>
<path d="M38.2229 83.8641L35.021 75.488H35.7344L37.434 79.9739C37.8917 81.1923 38.2911 82.2477 38.5638 83.1794H38.6076C38.8925 82.2353 39.3356 81.1528 39.8372 79.9739L41.7097 75.488H42.4377L38.8657 83.8641H38.2229Z" fill="#58595B"/>
<path d="M57.9869 79.6996H54.1422V83.3648H58.4447V83.8616H53.458V75.4856H58.2158V75.9824H54.1422V79.2003H57.9869V79.6971V79.6996Z" fill="#58595B"/>
<path d="M70.1177 75.488H70.8043V83.3673H75.0922V83.8641H70.1201V75.488H70.1177Z" fill="#58595B"/>
<path d="M89.5527 84C87.1811 84 85.3379 82.3712 85.3379 79.7613C85.3379 77.0154 87.2517 75.3496 89.6671 75.3496C92.0826 75.3496 93.8673 77.0031 93.8673 79.5883C93.8673 82.5467 91.7806 84 89.5649 84H89.5503H89.5527ZM89.5965 83.5032C91.8829 83.5032 93.1539 81.7015 93.1539 79.6254C93.1539 77.8607 92.0387 75.8464 89.6233 75.8464C87.2079 75.8464 86.0513 77.7841 86.0513 79.7366C86.0513 81.6891 87.3077 83.5032 89.5819 83.5032H89.5965Z" fill="#58595B"/>
<path d="M105.558 75.5869C106.115 75.5004 106.814 75.4263 107.63 75.4263C108.774 75.4263 109.646 75.6883 110.174 76.1356C110.647 76.5212 110.917 77.0797 110.917 77.7767C110.917 78.4737 110.688 79.0322 110.245 79.4549C109.631 80.0629 108.601 80.3866 107.415 80.3866C106.972 80.3866 106.588 80.3743 106.244 80.2878V83.8666H105.558V75.5894V75.5869ZM106.244 79.7638C106.573 79.8627 107.002 79.8874 107.474 79.8874C109.203 79.8874 110.233 79.1657 110.233 77.836C110.233 76.5063 109.132 75.9231 107.603 75.9231C106.975 75.9231 106.502 75.9725 106.244 76.0219V79.7638Z" fill="#58595B"/>
<path d="M130.708 79.8997C130.622 78.6442 130.508 77.1044 130.508 76.1825H130.479C130.121 77.0896 129.736 78.0584 129.178 79.314L127.15 83.8616H126.678L124.776 79.4128C124.233 78.1079 123.819 77.1019 123.532 76.1825H123.503C123.473 77.1637 123.403 78.6195 123.288 80.0109L122.989 83.8641H122.317L123.018 75.488H123.805L125.877 80.3224C126.334 81.3777 126.663 82.223 126.933 83.0312H126.977C127.221 82.26 127.564 81.4518 128.049 80.3224L130.206 75.488H131.022L131.664 83.8641H130.992L130.708 79.8997Z" fill="#58595B"/>
<path d="M148.227 79.6996H144.382V83.3648H148.684V83.8616H143.698V75.4856H148.456V75.9824H144.382V79.2003H148.227V79.6971V79.6996Z" fill="#58595B"/>
<path d="M160.375 83.8641V75.4881H161.017L164.762 80.4336C165.549 81.4766 166.106 82.2601 166.576 83.0683L166.605 83.0559C166.506 81.9239 166.491 80.9675 166.491 79.6625V75.4856H167.148V83.8616H166.52L162.848 78.9902C162.135 78.0337 161.478 77.1514 160.976 76.2814L160.947 76.2938C161.017 77.3244 161.032 78.2315 161.032 79.6254V83.8641H160.375Z" fill="#58595B"/>
<path d="M181.307 75.9848H178.164V75.488H185.137V75.9848H181.994V83.8641H181.307V75.9848Z" fill="#58595B"/>
<path d="M179.715 58.6668H145.083C142.054 58.6668 139.59 56.1656 139.59 53.091V24.6313C139.59 22.1153 140.92 19.7648 143.062 18.4969L159.272 8.90492C160.014 8.46499 160.859 8.23267 161.719 8.23267C162.532 8.23267 163.338 8.44275 164.054 8.83819L181.573 18.5736C183.815 19.8192 185.208 22.2067 185.208 24.8018V53.0885C185.208 56.1631 182.744 58.6643 179.715 58.6643V58.6668ZM161.719 11.3517C161.402 11.3517 161.09 11.4382 160.818 11.5989L144.609 21.1909C143.408 21.9027 142.661 23.22 142.661 24.6313V53.091C142.661 54.4454 143.747 55.5477 145.081 55.5477H179.713C181.047 55.5477 182.133 54.4454 182.133 53.091V24.8018C182.133 23.3461 181.351 22.009 180.095 21.3095L162.576 11.5742C162.313 11.4284 162.016 11.3517 161.716 11.3517H161.719Z" fill="#F6921E"/>
</g>
<defs>
<clipPath id="clip0_3027_32441">
<rect width="190" height="84" fill="white"/>
</clipPath>
</defs>
</svg>
