<svg width="56" height="90" viewBox="0 0 56 90" fill="none" xmlns="http://www.w3.org/2000/svg">
  <path fill-rule="evenodd" clip-rule="evenodd" d="M56 27.1698C56 9.33963 42.8485 2.37147e-06 28.0001 1.55782e-06L28.0001 90L53.0303 38.6321C54.0202 36.3679 56 30.9057 56 27.1698ZM-1.51163e-06 27.1698C-5.19622e-07 9.33963 13.1515 3.82382e-06 27.9999 4.64994e-06L27.9999 90L2.96969 38.6321C1.97979 36.3679 -1.71948e-06 30.9057 -1.51163e-06 27.1698Z" fill="#277137"/>
  <path fill-rule="evenodd" clip-rule="evenodd" d="M29.5628 13.5C29.5628 12.9477 29.1151 12.5 28.5628 12.5C28.0105 12.5 27.5628 12.9477 27.5628 13.5V15.2199H25.4522C24.9 15.2199 24.4522 15.6676 24.4522 16.2199C24.4522 16.7721 24.9 17.2199 25.4522 17.2199H27.5628V20.7735L21.9195 23.0326L21.2912 23.2842V23.961V29.5109L15.539 31.3787L14.8478 31.6031V32.3298V41.7174V42.7174H15.8478H26.0683H31.0573H41.5H42.5V41.7174V32.3298V31.6031L41.8088 31.3787L36.0567 29.5109V23.961V23.2755L35.4173 23.0283L29.5628 20.7648V17.2199H31.6734C32.2257 17.2199 32.6734 16.7721 32.6734 16.2199C32.6734 15.6676 32.2257 15.2199 31.6734 15.2199H29.5628V13.5ZM23.2912 24.6378L28.5692 22.525L34.0567 24.6465V30.2376V30.9643L34.7478 31.1887L40.5 33.0565V40.7174H32.0573V34.9951V34.9572L32.0545 34.9194C32.0481 34.8353 32.0447 34.7408 32.0402 34.6132L32.038 34.5527C32.0326 34.4039 32.0254 34.2255 32.0088 34.0377C31.9762 33.6675 31.9034 33.2022 31.6949 32.7476C31.4776 32.2737 31.12 31.8281 30.5605 31.5142C30.0159 31.2087 29.3482 31.066 28.5628 31.066C27.8103 31.066 27.1648 31.2135 26.6327 31.5194C26.0925 31.8299 25.738 32.2643 25.512 32.7202C25.152 33.4461 25.1059 34.298 25.0815 34.7483C25.0779 34.8146 25.0747 34.8722 25.0712 34.9194L25.0683 34.9572V34.9951V40.7174H16.8478V33.0565L22.6 31.1887L23.2912 30.9643V30.2376V24.6378ZM30.0573 35.0306V40.7174H27.0683V35.0323C27.0743 34.9507 27.0796 34.8716 27.0846 34.795C27.1163 34.3182 27.1417 33.9355 27.3038 33.6086C27.3803 33.4542 27.4797 33.3394 27.6295 33.2533C27.7874 33.1625 28.0681 33.066 28.5628 33.066C29.1156 33.066 29.4195 33.1674 29.582 33.2585C29.7296 33.3413 29.8144 33.4449 29.8769 33.5812C29.9483 33.7368 29.9927 33.9427 30.0166 34.2133C30.0282 34.3459 30.0341 34.4802 30.0393 34.6251L30.0413 34.6801C30.0451 34.7902 30.0495 34.9142 30.0573 35.0306ZM29.2391 26.3261C29.2391 26.6382 28.9861 26.8913 28.6739 26.8913C28.3618 26.8913 28.1087 26.6382 28.1087 26.3261C28.1087 26.0139 28.3618 25.7609 28.6739 25.7609C28.9861 25.7609 29.2391 26.0139 29.2391 26.3261ZM31.2391 26.3261C31.2391 27.7428 30.0906 28.8913 28.6739 28.8913C27.2572 28.8913 26.1087 27.7428 26.1087 26.3261C26.1087 24.9094 27.2572 23.7609 28.6739 23.7609C30.0906 23.7609 31.2391 24.9094 31.2391 26.3261Z" fill="white"/>
</svg>
