<svg width="56" height="90" viewBox="0 0 56 90" fill="none" xmlns="http://www.w3.org/2000/svg">
  <path fill-rule="evenodd" clip-rule="evenodd" d="M56 27.1698C56 9.33963 42.8485 2.37147e-06 28.0001 1.55782e-06L28.0001 90L53.0303 38.6321C54.0202 36.3679 56 30.9057 56 27.1698ZM-1.51163e-06 27.1698C-5.19622e-07 9.33963 13.1515 3.82382e-06 27.9999 4.64994e-06L27.9999 90L2.96969 38.6321C1.97979 36.3679 -1.71948e-06 30.9057 -1.51163e-06 27.1698Z" fill="#277137"/>
  <path fill-rule="evenodd" clip-rule="evenodd" d="M39.6977 18.8165C40.2865 19.0991 40.9038 19.2397 41.4986 19.1999C42.4076 19.1299 43.1766 18.7795 43.8061 18.0784C45.2044 16.5365 45.554 13.5932 43.876 12.0512C43.1067 11.4204 42.058 11 40.9394 11H40.7296C39.5409 11.0703 38.4223 11.4907 37.793 12.2616C36.8224 13.3319 36.6602 14.8749 37.2365 16.2577C33.7255 13.8439 28.412 14.126 27.9999 14.1479C27.9855 14.1487 27.9771 14.1491 27.975 14.1491H27.8352H26.9963C25.3669 14.1491 21.6028 14.4307 18.9267 16.508C19.3537 15.2035 19.1666 13.7984 18.3086 12.8026C17.6793 12.0315 16.5605 11.611 15.372 11.541H15.1624C13.9737 11.541 12.925 11.9615 12.156 12.6623C10.478 14.2042 10.7577 17.1475 12.156 18.6895C12.7853 19.3203 13.5543 19.7407 14.4633 19.7409C15.1657 19.7823 15.8436 19.6278 16.4684 19.321C13.48 23.9095 12.5938 30.2552 12.5938 31.9498C12.7333 39.2381 18.1871 43.5833 27.206 43.5833H29.3034C38.3227 43.5833 43.7066 39.238 43.9162 31.9498C43.9162 30.2549 42.9623 23.442 39.6977 18.8165ZM40.9394 13H40.7944C39.9464 13.0609 39.482 13.3552 39.3423 13.5264L39.3094 13.5666L39.2745 13.6051C38.7741 14.1569 38.6499 15.4277 39.7781 16.4681L39.7806 16.4704C40.407 17.0501 41.0059 17.2248 41.3566 17.2049C41.7803 17.1702 42.0568 17.0331 42.3181 16.7421L42.3246 16.7349L42.3246 16.7349C42.6799 16.3431 42.9638 15.6782 42.9969 14.9714C43.028 14.3062 42.8346 13.8353 42.5593 13.559C42.1287 13.224 41.5437 13 40.9394 13ZM41.9161 31.9236C41.91 31.1811 41.6504 28.8556 40.8678 26.1555C40.0741 23.417 38.8239 20.5851 37.0133 18.6809L37.0056 18.6728L37.0056 18.6727C35.7569 17.3445 33.7018 16.6478 31.659 16.3366C29.9014 16.0688 28.4984 16.1279 28.0853 16.1453C28.0308 16.1476 27.9936 16.1491 27.975 16.1491H27.8352H26.9963C26.1965 16.1491 24.8042 16.2281 23.3416 16.6099C21.8655 16.9952 20.4764 17.6471 19.4988 18.6786L19.4966 18.681C17.6839 20.5872 16.4343 23.404 15.6416 26.1307C14.8567 28.8305 14.5978 31.1642 14.5938 31.9322C14.6581 35.0309 15.8236 37.3486 17.816 38.9351C19.8646 40.5664 22.9926 41.5833 27.206 41.5833H29.3034C33.516 41.5833 36.6254 40.5669 38.6649 38.9372C40.6489 37.3519 41.8193 35.0312 41.9161 31.9236ZM36 29.5002C36 29.7758 35.7763 30 35.4998 30C35.2238 30 35 29.7763 35 29.5002C35 29.2235 35.224 29 35.4998 29C35.776 29 36 29.224 36 29.5002ZM38 29.5002C38 30.8806 36.8806 32 35.4998 32C34.119 32 33 30.8806 33 29.5002C33 28.1194 34.119 27 35.4998 27C36.8806 27 38 28.1194 38 29.5002ZM21 29.5002C21 29.7758 20.7763 30 20.4998 30C20.2238 30 20 29.7763 20 29.5002C20 29.2235 20.224 29 20.4998 29C20.776 29 21 29.224 21 29.5002ZM23 29.5002C23 30.8806 21.8806 32 20.4998 32C19.119 32 18 30.8806 18 29.5002C18 28.1194 19.119 27 20.4998 27C21.8806 27 23 28.1194 23 29.5002ZM16.3071 17.0241C17.3778 15.9841 17.2798 14.6726 16.7934 14.108L16.776 14.0878L16.7591 14.0671C16.6194 13.896 16.1551 13.6017 15.3075 13.541H15.1624C14.4563 13.541 13.894 13.7858 13.5064 14.1375C13.1983 14.4225 12.9799 14.9225 13.0014 15.6135C13.0228 16.2988 13.2798 16.931 13.608 17.3125C13.9596 17.6527 14.2364 17.7409 14.4638 17.7409L14.5224 17.741L14.5809 17.7444C15.1107 17.7756 15.7124 17.5689 16.3071 17.0241ZM25.0294 31.3672H24.0294V32.3672C24.0294 33.0798 24.2155 33.9701 25.0447 34.635C25.6407 35.113 26.4672 35.3879 27.5373 35.4877V35.6483C27.347 35.9954 27.0375 36.3923 26.6657 36.6326C26.2967 36.871 25.8606 36.9749 25.2461 36.6327L24.2731 38.38C25.6014 39.1197 26.8293 38.908 27.7511 38.3125C28.0524 38.1178 28.3179 37.8855 28.5475 37.6395C28.7916 37.8919 29.0759 38.1295 29.4007 38.327C30.3638 38.9126 31.6284 39.1043 33.0329 38.4003L32.1368 36.6123C31.3826 36.9903 30.8483 36.8665 30.4397 36.6181C30.0413 36.3758 29.7254 35.9829 29.5373 35.6464V35.4494C30.4353 35.294 31.1261 34.9258 31.6234 34.4223C32.2694 33.7682 32.5055 32.9673 32.5055 32.3672V31.3672H31.5055H25.0294ZM28.5373 33.5311C27.8155 33.5311 27.3065 33.4614 26.9497 33.3672H29.627C29.3632 33.463 29.01 33.5311 28.5373 33.5311Z" fill="white"/>
</svg>
