<svg width="82" height="130" viewBox="0 0 82 130" fill="none" xmlns="http://www.w3.org/2000/svg">
<path fill-rule="evenodd" clip-rule="evenodd" d="M-2.18346e-06 39.2453C-7.50565e-07 13.4906 19.0094 1.05761e-06 40.4717 2.25169e-06L40.4717 130L4.29245 55.8019C2.86163 52.5314 -2.48369e-06 44.6415 -2.18346e-06 39.2453ZM80.9436 39.2453C80.9436 13.4906 61.9342 3.44579e-06 40.4719 2.2517e-06L40.4719 130L76.6511 55.8019C78.082 52.5314 80.9436 44.6415 80.9436 39.2453Z" fill="#71A700"/>
<path d="M24.9329 43.5319C23.9347 43.3253 23.0411 43.1461 22.1499 42.9544C20.9228 42.6906 19.7354 42.2973 18.6476 41.665C17.1765 40.8063 16.2131 39.5841 16.0265 37.8417C15.9319 36.9605 16.1011 36.1117 16.3725 35.2803C16.8205 33.9063 17.5598 32.6866 18.4286 31.5416C19.9495 29.5354 21.7342 27.7855 23.7082 26.2347C28.734 22.2919 34.2351 19.2402 40.396 17.4505C43.5224 16.5419 46.7062 15.9047 49.9646 16.0117C53.7706 16.1362 57.3924 17.0099 60.5189 19.3497C63.8445 21.8364 65.6044 25.1793 65.9404 29.3063C66.259 33.2094 65.2683 36.8485 63.7151 40.3657C62.6248 42.8325 61.1536 45.0702 59.4211 47.1312C55.8167 51.4226 51.6871 55.1264 46.9576 58.1408C43.5498 60.3114 39.8857 61.8795 35.9054 62.6512C33.8618 63.0494 31.8106 63.1366 29.7446 62.7557C25.9983 62.0662 23.3498 59.485 22.5607 55.7214C21.9633 52.8688 22.2371 50.0809 23.2626 47.3702C23.6758 46.275 24.1911 45.2196 24.6616 44.1442C24.7313 43.9825 24.8035 43.8231 24.9304 43.5294M52.3617 44.5102C52.1949 44.1169 52.0008 43.8953 51.5627 43.8605C48.2968 43.6165 45.0309 43.7236 41.7651 43.7908C37.2994 43.8829 32.8337 44.0098 28.3705 43.7634C27.7582 43.7286 27.3325 43.9128 27.0711 44.4728C26.4464 45.812 25.7394 47.1188 25.2092 48.4953C24.3006 50.8401 23.9148 53.2795 24.3952 55.7811C24.9553 58.6959 26.6455 60.6424 29.5131 61.4987C31.3875 62.0563 33.3042 61.9642 35.2084 61.7202C38.3797 61.312 41.3444 60.2442 44.1821 58.798C48.4312 56.6349 52.1277 53.7151 55.5454 50.4244C58.2811 47.7884 60.6832 44.8885 62.4655 41.5057C64.539 37.5654 65.7338 33.4284 65.3181 28.9255C65.1215 26.8047 64.4817 24.8308 63.277 23.0635C61.7038 20.7536 59.5332 19.1954 56.9892 18.1151C54.6219 17.1094 52.1177 16.8282 49.5837 16.7485C47.2214 16.6763 44.904 17.0522 42.6139 17.5948C36.8289 18.9639 31.5816 21.5277 26.7276 24.913C24.0169 26.8022 21.4903 28.9106 19.3894 31.4844C18.3638 32.7389 17.5324 34.1104 17.0396 35.6637C16.3028 37.9861 17.1342 39.9226 19.2973 41.0452C20.8879 41.8716 22.6229 42.1455 24.3479 42.4964C25.1644 42.6632 25.6921 42.4516 26.1228 41.7173C26.5982 40.9058 27.1682 40.1442 27.7408 39.3924C31.9675 33.8366 37.1475 29.2665 42.6935 25.0897C43.159 24.7387 43.7963 24.5844 44.3763 24.4226C44.777 24.3106 45.1404 24.5321 45.3271 24.9105C45.5113 25.2839 45.4616 25.6697 45.1529 25.9709C44.8044 26.3069 44.4435 26.633 44.0651 26.9342C42.8877 27.8726 41.6829 28.7762 40.5204 29.7345C36.8663 32.7414 33.4386 35.9873 30.4092 39.6339C29.7421 40.4379 29.1422 41.2991 28.5323 42.1479C28.383 42.357 28.1341 42.5736 28.3581 42.9893C28.8709 42.9893 29.4309 42.9669 29.9885 42.9943C34.5538 43.2058 39.119 43.2133 43.6892 43.161C46.1635 43.1336 48.6403 43.1909 51.1146 43.2432C51.5627 43.2531 52.0306 43.3552 52.4538 43.5145C53.0288 43.731 53.0114 44.0646 52.3717 44.5102" fill="white"/>
</svg>
