<svg width="56" height="90" viewBox="0 0 56 90" fill="none" xmlns="http://www.w3.org/2000/svg">
<path fill-rule="evenodd" clip-rule="evenodd" d="M56 27.1698C56 9.33963 42.8485 2.37147e-06 28.0001 1.55782e-06L28.0001 90L53.0303 38.6321C54.0202 36.3679 56 30.9057 56 27.1698ZM-1.51163e-06 27.1698C-5.19622e-07 9.33963 13.1515 3.82382e-06 27.9999 4.64994e-06L27.9999 90L2.96969 38.6321C1.97979 36.3679 -1.71948e-06 30.9057 -1.51163e-06 27.1698Z" fill="#277137"/>
<path fill-rule="evenodd" clip-rule="evenodd" d="M17.9713 11.889C18.1596 11.6315 18.4595 11.4792 18.7785 11.4792H37.2221C37.5411 11.4792 37.841 11.6315 38.0293 11.889L42.6402 18.1949C42.7655 18.3662 42.833 18.573 42.833 18.7852V19.3334V40.8559C42.833 41.9493 42.4098 43.0028 41.6487 43.7835C40.8868 44.565 39.8479 45.0089 38.7591 45.0089H17.2416C16.1528 45.0089 15.1139 44.565 14.352 43.7835C13.5909 43.0028 13.1677 41.9493 13.1677 40.8559V19.3334V18.7852C13.1677 18.573 13.2352 18.3662 13.3604 18.1949L17.9713 11.889ZM40.833 40.8559V20.3334H15.1677V40.8559C15.1677 41.435 15.3922 41.9854 15.784 42.3874C16.175 42.7884 16.6998 43.0089 17.2416 43.0089H38.7591C39.3008 43.0089 39.8256 42.7884 40.2167 42.3874C40.6085 41.9854 40.833 41.435 40.833 40.8559ZM40.2639 18.3334H15.7368L19.2862 13.4792H36.7145L40.2639 18.3334ZM22.084 24.817C22.084 24.2647 21.6363 23.817 21.084 23.817C20.5317 23.817 20.084 24.2647 20.084 24.817C20.084 26.903 20.9203 28.9017 22.4059 30.374C23.8911 31.8459 25.9037 32.6713 28.0004 32.6713C30.097 32.6713 32.1096 31.8459 33.5949 30.374C35.0805 28.9017 35.9167 26.903 35.9167 24.817C35.9167 24.2647 35.469 23.817 34.9167 23.817C34.3644 23.817 33.9167 24.2647 33.9167 24.817C33.9167 26.3667 33.2956 27.8548 32.187 28.9534C31.0782 30.0523 29.5724 30.6713 28.0004 30.6713C26.4284 30.6713 24.9225 30.0523 23.8137 28.9534C22.7051 27.8548 22.084 26.3667 22.084 24.817Z" fill="white"/>
</svg>
