<svg width="56" height="90" viewBox="0 0 56 90" fill="none" xmlns="http://www.w3.org/2000/svg">
  <path fill-rule="evenodd" clip-rule="evenodd" d="M56 27.1698C56 9.33963 42.8485 2.37147e-06 28.0001 1.55782e-06L28.0001 90L53.0303 38.6321C54.0202 36.3679 56 30.9057 56 27.1698ZM-1.51163e-06 27.1698C-5.19622e-07 9.33963 13.1515 3.82382e-06 27.9999 4.64994e-06L27.9999 90L2.96969 38.6321C1.97979 36.3679 -1.71948e-06 30.9057 -1.51163e-06 27.1698Z" fill="#277137"/>
  <path fill-rule="evenodd" clip-rule="evenodd" d="M20.5243 13.5612C16.1928 14.1123 12.9806 18.47 13.5637 23.4703C14.016 27.3489 16.5961 30.2797 19.7524 31.1422V28.4602L16.7153 25.2493C16.3358 24.8481 16.3534 24.2152 16.7546 23.8357C17.1558 23.4562 17.7887 23.4737 18.1683 23.875L19.7524 25.5497V19.1529C19.7524 18.6006 20.2002 18.1529 20.7524 18.1529C21.3047 18.1529 21.7524 18.6006 21.7524 19.1529V23.794L24.6665 20.7276C25.047 20.3273 25.6799 20.3111 26.0803 20.6916C26.4806 21.072 26.4967 21.705 26.1163 22.1053L21.7524 26.6973V28.0621V31.4023C22.0328 31.3996 22.3149 31.3806 22.598 31.3445C22.941 31.3009 23.276 31.234 23.6017 31.1453C23.3827 30.7288 23.2587 30.2544 23.2587 29.7511V29.6024C23.2587 27.9455 24.6019 26.6024 26.2587 26.6024H28.7651C28.7737 26.5784 28.7834 26.5546 28.794 26.531C29.4735 25.0181 29.7717 23.2632 29.5586 21.4354C28.9755 16.4351 24.8558 13.0101 20.5243 13.5612ZM30.9136 26.6024C31.5248 24.9387 31.7646 23.0866 31.5426 21.183C30.8525 15.2647 25.8907 10.8625 20.2926 11.5747C14.6946 12.2869 10.8896 17.8045 11.5797 23.7227C12.1396 28.524 15.5109 32.3275 19.7524 33.212V38.6642C19.5933 38.688 19.426 38.7214 19.2545 38.7686C18.7287 38.2463 17.9015 37.7385 16.7853 37.7385C15.7956 37.7385 14.9117 38.0954 14.2748 38.7429C13.6406 39.3875 13.3058 40.2644 13.3058 41.2084C13.3058 41.6782 13.3677 42.114 13.4628 42.5019H12.9775C12.4252 42.5019 11.9775 42.9496 11.9775 43.5019C11.9775 44.0542 12.4252 44.5019 12.9775 44.5019H14.967H23.2319H24.879H35.4582H38.6815H41.9049H43.5C44.0523 44.5019 44.5 44.0542 44.5 43.5019C44.5 42.9496 44.0523 42.5019 43.5 42.5019H41.9049H40.4973C40.5124 42.395 40.5202 42.2857 40.5202 42.1747V39.6654H40.8377C42.4946 39.6654 43.8377 38.3222 43.8377 36.6654V36.5167C43.8377 34.8599 42.4946 33.5167 40.8377 33.5167H39.1929V32.7511H39.5106C41.1674 32.7511 42.5106 31.4079 42.5106 29.7511V29.6024C42.5106 27.9455 41.1674 26.6024 39.5106 26.6024H30.9136ZM37.1929 32.7511V33.5167H28.5764V32.7511H37.1929ZM26.5764 32.7511V33.5167H24.9317C23.2748 33.5167 21.9317 34.8599 21.9317 36.5167V36.6654C21.9317 38.3222 23.2748 39.6654 24.9317 39.6654H25.2493V42.1747C25.2493 42.2857 25.2571 42.395 25.2722 42.5019H24.879H24.5867C24.5248 41.3816 24.128 40.4316 23.4634 39.7398C22.9837 39.2405 22.3918 38.9049 21.7524 38.7356V33.4061C22.1082 33.4018 22.4676 33.3771 22.8297 33.3311C23.6833 33.2225 24.4995 32.9999 25.2661 32.6789C25.3067 32.6619 25.3455 32.6425 25.3826 32.6211C25.6598 32.7056 25.9539 32.7511 26.2587 32.7511H26.5764ZM35.4582 42.5019H35.8889C35.8738 42.395 35.866 42.2857 35.866 42.1747V39.6654H29.9035V42.1747C29.9035 42.2857 29.8957 42.395 29.8806 42.5019H35.4582ZM15.5595 42.5019H22.582C22.5257 41.8558 22.2958 41.4113 22.0211 41.1254C21.7013 40.7925 21.2573 40.6068 20.7524 40.6068C20.2569 40.6068 19.8101 40.6234 19.4324 40.8405L18.5389 41.3539L18.0526 40.4454C18.015 40.3752 17.8783 40.1837 17.6429 40.0158C17.4211 39.8578 17.1379 39.7385 16.7853 39.7385C16.2873 39.7385 15.9314 39.9108 15.7005 40.1455C15.4668 40.383 15.3058 40.741 15.3058 41.2084C15.3058 41.7434 15.4343 42.1957 15.5595 42.5019ZM25.2587 29.6024C25.2587 29.0501 25.7064 28.6024 26.2587 28.6024H39.5106C40.0629 28.6024 40.5106 29.0501 40.5106 29.6024V29.7511C40.5106 30.3033 40.0629 30.7511 39.5106 30.7511H26.2587C25.7064 30.7511 25.2587 30.3033 25.2587 29.7511V29.6024ZM24.9317 35.5167C24.3794 35.5167 23.9317 35.9644 23.9317 36.5167V36.6654C23.9317 37.2177 24.3794 37.6654 24.9317 37.6654H40.8377C41.39 37.6654 41.8377 37.2177 41.8377 36.6654V36.5167C41.8377 35.9644 41.39 35.5167 40.8377 35.5167H24.9317ZM27.2493 42.1747V40.1232H27.9035V42.1747C27.9035 42.3553 27.757 42.5017 27.5764 42.5017C27.3958 42.5017 27.2493 42.3553 27.2493 42.1747ZM37.866 40.1232V42.1747C37.866 42.3553 38.0125 42.5017 38.1931 42.5017C38.3737 42.5017 38.5202 42.3553 38.5202 42.1747V40.1232H37.866Z" fill="white"/>
</svg>
