<svg width="56" height="90" viewBox="0 0 56 90" fill="none" xmlns="http://www.w3.org/2000/svg">
<path fill-rule="evenodd" clip-rule="evenodd" d="M56 27.1698C56 9.33963 42.8485 2.37147e-06 28.0001 1.55782e-06L28.0001 90L53.0303 38.6321C54.0202 36.3679 56 30.9057 56 27.1698ZM-1.51163e-06 27.1698C-5.19622e-07 9.33963 13.1515 3.82382e-06 27.9999 4.64994e-06L27.9999 90L2.96969 38.6321C1.97979 36.3679 -1.71948e-06 30.9057 -1.51163e-06 27.1698Z" fill="#277137"/>
<path fill-rule="evenodd" clip-rule="evenodd" d="M24 15H25H31H32V16V24H40H41V25V31V32H40H32V40V41H31H25H24V40V32H16H15V31V25V24H16H24V16V15ZM26 17V25V26H25H17V30H25H26V31V39H30V31V30H31H39V26H31H30V25V17H26Z" fill="white"/>
</svg>
