<svg width="56" height="90" viewBox="0 0 56 90" fill="none" xmlns="http://www.w3.org/2000/svg">
  <path fill-rule="evenodd" clip-rule="evenodd" d="M56 27.1698C56 9.33963 42.8485 2.37147e-06 28.0001 1.55782e-06L28.0001 90L53.0303 38.6321C54.0202 36.3679 56 30.9057 56 27.1698ZM-1.51163e-06 27.1698C-5.19622e-07 9.33963 13.1515 3.82382e-06 27.9999 4.64994e-06L27.9999 90L2.96969 38.6321C1.97979 36.3679 -1.71948e-06 30.9057 -1.51163e-06 27.1698Z" fill="#277137"/>
  <path fill-rule="evenodd" clip-rule="evenodd" d="M20 13.0001C20.5523 13.0001 21 13.4478 21 14.0001V18.6001H22.6666V14.0001C22.6666 13.4478 23.1144 13.0001 23.6666 13.0001C24.2189 13.0001 24.6666 13.4478 24.6666 14.0001V18.6001H26.3333V14.7001V14.0001C26.3333 13.4478 26.781 13.0001 27.3333 13.0001C27.8856 13.0001 28.3333 13.4478 28.3333 14.0001V14.7001V19.6001V23.4588C28.3333 24.4377 27.8557 25.3551 27.0537 25.9165L26.7598 26.1222C26.4925 26.3093 26.3333 26.6151 26.3333 26.9414V40.3334C26.3333 41.8062 25.1394 43.0001 23.6666 43.0001C22.1939 43.0001 21 41.8062 21 40.3334V26.9414C21 26.6151 20.8408 26.3093 20.5734 26.1222L20.2796 25.9165C19.4776 25.3551 19 24.4377 19 23.4588V19.6001V14.0001C19 13.4478 19.4477 13.0001 20 13.0001ZM23.6666 41.0001C24.0348 41.0001 24.3333 40.7016 24.3333 40.3334V26.9414C24.3333 25.9625 24.8109 25.0451 25.6129 24.4837L25.9068 24.278C26.1741 24.0909 26.3333 23.7851 26.3333 23.4588V20.6001H23.6666H21V23.4588C21 23.7851 21.1592 24.0909 21.4265 24.278L21.7204 24.4837C22.5223 25.0451 23 25.9625 23 26.9414V40.3334C23 40.7016 23.2985 41.0001 23.6666 41.0001ZM30.7347 14.0396C31.429 13.5081 32.3899 13.3571 33.2926 13.8496C35.1377 14.8562 37 16.8628 37 20.3001V20.3207V20.3414V20.362V20.3827V20.4033V20.424V20.4447V20.4654V20.4861V20.5068V20.5275V20.5482V20.5689V20.5896V20.6104V20.6311V20.6519V20.6727V20.6934V20.7142V20.735V20.7558V20.7766V20.7974V20.8182V20.839V20.8598V20.8807V20.9015V20.9223V20.9432V20.964V20.9849V21.0058V21.0267V21.0475V21.0684V21.0893V21.1102V21.1311V21.152V21.1729V21.1938V21.2148V21.2357V21.2566V21.2776V21.2985V21.3194V21.3404V21.3614V21.3823V21.4033V21.4242V21.4452V21.4662V21.4872V21.5082V21.5292V21.5501V21.5711V21.5921V21.6131V21.6342V21.6552V21.6762V21.6972V21.7182V21.7392V21.7603V21.7813V21.8023V21.8234V21.8444V21.8654V21.8865V21.9075V21.9286V21.9496V21.9707V21.9917V22.0128V22.0339V22.0549V22.076V22.097V22.1181V22.1392V22.1602V22.1813V22.2024V22.2235V22.2445V22.2656V22.2867V22.3078V22.3288V22.3499V22.371V22.3921V22.4132V22.4342V22.4553V22.4764V22.4975V22.5186V22.5397V22.5607V22.5818V22.6029V22.624V22.6451V22.6661V22.6872V22.7083V22.7294V22.7505V22.7715V22.7926V22.8137V22.8348V22.8558V22.8769V22.898V22.9191V22.9401V22.9612V22.9823V23.0033V23.0244V23.0454V23.0665V23.0875V23.1086V23.1296V23.1507V23.1717V23.1928V23.2138V23.2349V23.2559V23.2769V23.298V23.319V23.34V23.361V23.3821V23.4031V23.4241V23.4451V23.4661V23.4871V23.5081V23.5291V23.5501V23.5711V23.592V23.613V23.634V23.655V23.6759V23.6969V23.7178V23.7388V23.7597V23.7807V23.8016V23.8226V23.8435V23.8644V23.8853V23.9062V23.9271V23.948V23.9689V23.9898V24.0107V24.0316V24.0525V24.0733V24.0942V24.1151V24.1359V24.1568V24.1776V24.1984V24.2193V24.2401V24.2609V24.2817V24.3025V24.3233V24.3441V24.3648V24.3856V24.4064V24.4271V24.4479V24.4686V24.4894V24.5101V24.5308V24.5515V24.5722V24.5929V24.6136V24.6343V24.655V24.6756V24.6963V24.7169V24.7376V24.7582V24.7788V24.7994V24.82V24.8406V24.8612V24.8818V24.9024V24.9229V24.9435V24.964V24.9846V25.0051V25.0256V25.0461V25.0666V25.0871V25.1075V25.128V25.1485V25.1689V25.1893V25.2098V25.2302V25.2506V25.271V25.2914V25.3117V25.3321V25.3524V25.3728V25.3931V25.4134V25.4337V25.454V25.4743V25.4946V25.5148V25.5351V25.5553V25.5755V25.5958V25.616V25.6361V25.6563V25.6765V25.6966V25.7168V25.7369V25.757V25.7771V25.7972V25.8173V25.8374V25.8574V25.8775V25.8975V25.9175V25.9375V25.9575V25.9775V25.9974V26.0174V26.0373V26.0572V26.0771V26.097V26.1169V26.1368V26.1566V26.1765V26.1963V26.2161V26.2359V26.2557V26.2754V26.2952V26.3149V26.3346V26.3543V26.374V26.3937V26.4134V26.433V26.4527V26.4723V26.4919V26.5115V26.531V26.5506V26.5701V26.5896V26.6091V26.6286V26.6481V26.6676V26.687V26.7064V26.7258V26.7452V26.7646V26.784V26.8033V26.8226V26.8419V26.8612V26.8805V26.8998V26.919V26.9382V26.9574V26.9766V26.9958V27.015V27.0341V27.0532V27.0723V27.0914V27.1105V27.1295V27.1485V27.1675V27.1865V27.2055V27.2245V27.2434V27.2623V27.2812V27.3001V27.319V27.3378V27.3566V27.3754V27.3942V27.413V27.4317V27.4505V27.4692V27.4879V27.5065V27.5252V27.5438V27.5624V27.581V27.5996V27.6181V27.6366V27.6552V27.6736V27.6921V27.7106V27.729V27.7474V27.7658V27.7841V27.8025V27.8208V27.8391V27.8574V27.8756V27.8939V27.9121V27.9303V27.9485V27.9666V27.9847V28.0029V28.0209V28.039V28.057V28.0751V28.0931V28.111V28.129V28.1469V28.1648V28.1827V28.2006V28.2184V28.2362V28.254V28.2718V28.2895V28.3073V28.325V28.3426V28.3603V28.3779V28.3955V28.4131V28.4307V28.4482V28.4657V28.4832V28.5007V28.5181V28.5355V28.5529V28.5703V28.5876V28.6049V28.6222V28.6395V28.6567V28.674V28.6911V28.7083V28.7255V28.7426V28.7597V28.7767V28.7938V28.8108V28.8278V28.8447V28.8617V28.8786V28.8955V28.9123V28.9292V28.946V28.9628V28.9795V28.9963V29.013V29.0296V29.0463V29.0629V29.0795V29.0961V29.1126V29.1291V29.1456V29.1621V29.1785V29.1949V29.2113V29.2276V29.244V29.2603V29.2765V29.2928V29.309V29.3252V29.3413V29.3575V29.3736V29.3896V29.4057V29.4217V29.4377V29.4536V29.4696V29.4855V29.5013V29.5172V29.533V29.5488V29.5645V29.5802V29.5959V29.6116V29.6272V29.6428V29.6584V29.674V29.6895V29.705V29.7204V29.7359V29.7513V29.7666V29.782V29.7973V29.8125V29.8278V29.843V29.8582V29.8733V29.8884V29.9035V29.9186V29.9336V29.9486V29.9636V29.9785V29.9934V30.0083V30.0231V30.0379V30.0527V30.0675V30.0822V30.0969V30.1115V30.1261V30.1407V30.1553V30.1698V30.1843C37 31.3038 36.3103 32.2611 35.3333 32.6563V40.1667C35.3333 41.7316 34.0648 43.0001 32.5 43.0001C30.9352 43.0001 29.6666 41.7316 29.6666 40.1667V31.8501V16.2797C29.6666 15.3828 30.0691 14.5491 30.7347 14.0396ZM32.5 41.0001C32.9602 41.0001 33.3333 40.627 33.3333 40.1667V32.8501H31.6666V40.1667C31.6666 40.627 32.0397 41.0001 32.5 41.0001ZM31.6666 30.8501H34.3333C34.7022 30.8501 35 30.5518 35 30.1843V30.1698V30.1553V30.1407V30.1261V30.1115V30.0969V30.0822V30.0675V30.0527V30.0379V30.0231V30.0083V29.9934V29.9785V29.9636V29.9486V29.9336V29.9186V29.9035V29.8884V29.8733V29.8582V29.843V29.8278V29.8125V29.7973V29.782V29.7666V29.7513V29.7359V29.7204V29.705V29.6895V29.674V29.6584V29.6428V29.6272V29.6116V29.5959V29.5802V29.5645V29.5488V29.533V29.5172V29.5013V29.4855V29.4696V29.4536V29.4377V29.4217V29.4057V29.3896V29.3736V29.3575V29.3413V29.3252V29.309V29.2928V29.2765V29.2603V29.244V29.2276V29.2113V29.1949V29.1785V29.1621V29.1456V29.1291V29.1126V29.0961V29.0795V29.0629V29.0463V29.0296V29.013V28.9963V28.9795V28.9628V28.946V28.9292V28.9123V28.8955V28.8786V28.8617V28.8447V28.8278V28.8108V28.7938V28.7767V28.7597V28.7426V28.7255V28.7083V28.6911V28.674V28.6567V28.6395V28.6222V28.6049V28.5876V28.5703V28.5529V28.5355V28.5181V28.5007V28.4832V28.4657V28.4482V28.4307V28.4131V28.3955V28.3779V28.3603V28.3426V28.325V28.3073V28.2895V28.2718V28.254V28.2362V28.2184V28.2006V28.1827V28.1648V28.1469V28.129V28.111V28.0931V28.0751V28.057V28.039V28.0209V28.0029V27.9847V27.9666V27.9485V27.9303V27.9121V27.8939V27.8756V27.8574V27.8391V27.8208V27.8025V27.7841V27.7658V27.7474V27.729V27.7106V27.6921V27.6736V27.6552V27.6366V27.6181V27.5996V27.581V27.5624V27.5438V27.5252V27.5065V27.4879V27.4692V27.4505V27.4317V27.413V27.3942V27.3754V27.3566V27.3378V27.319V27.3001V27.2812V27.2623V27.2434V27.2245V27.2055V27.1865V27.1675V27.1485V27.1295V27.1105V27.0914V27.0723V27.0532V27.0341V27.015V26.9958V26.9766V26.9574V26.9382V26.919V26.8998V26.8805V26.8612V26.8419V26.8226V26.8033V26.784V26.7646V26.7452V26.7258V26.7064V26.687V26.6676V26.6481V26.6286V26.6091V26.5896V26.5701V26.5506V26.531V26.5115V26.4919V26.4723V26.4527V26.433V26.4134V26.3937V26.374V26.3543V26.3346V26.3149V26.2952V26.2754V26.2557V26.2359V26.2161V26.1963V26.1765V26.1566V26.1368V26.1169V26.097V26.0771V26.0572V26.0373V26.0174V25.9974V25.9775V25.9575V25.9375V25.9175V25.8975V25.8775V25.8574V25.8374V25.8173V25.7972V25.7771V25.757V25.7369V25.7168V25.6966V25.6765V25.6563V25.6361V25.616V25.5958V25.5755V25.5553V25.5351V25.5148V25.4946V25.4743V25.454V25.4337V25.4134V25.3931V25.3728V25.3524V25.3321V25.3117V25.2914V25.271V25.2506V25.2302V25.2098V25.1893V25.1689V25.1485V25.128V25.1075V25.0871V25.0666V25.0461V25.0256V25.0051V24.9846V24.964V24.9435V24.9229V24.9024V24.8818V24.8612V24.8406V24.82V24.7994V24.7788V24.7582V24.7376V24.7169V24.6963V24.6756V24.655V24.6343V24.6136V24.5929V24.5722V24.5515V24.5308V24.5101V24.4894V24.4686V24.4479V24.4271V24.4064V24.3856V24.3648V24.3441V24.3233V24.3025V24.2817V24.2609V24.2401V24.2193V24.1984V24.1776V24.1568V24.1359V24.1151V24.0942V24.0733V24.0525V24.0316V24.0107V23.9898V23.9689V23.948V23.9271V23.9062V23.8853V23.8644V23.8435V23.8226V23.8016V23.7807V23.7597V23.7388V23.7178V23.6969V23.6759V23.655V23.634V23.613V23.592V23.5711V23.5501V23.5291V23.5081V23.4871V23.4661V23.4451V23.4241V23.4031V23.3821V23.361V23.34V23.319V23.298V23.2769V23.2559V23.2349V23.2138V23.1928V23.1717V23.1507V23.1296V23.1086V23.0875V23.0665V23.0454V23.0244V23.0033V22.9823V22.9612V22.9401V22.9191V22.898V22.8769V22.8558V22.8348V22.8137V22.7926V22.7715V22.7505V22.7294V22.7083V22.6872V22.6661V22.6451V22.624V22.6029V22.5818V22.5607V22.5397V22.5186V22.4975V22.4764V22.4553V22.4342V22.4132V22.3921V22.371V22.3499V22.3288V22.3078V22.2867V22.2656V22.2445V22.2235V22.2024V22.1813V22.1602V22.1392V22.1181V22.097V22.076V22.0549V22.0339V22.0128V21.9917V21.9707V21.9496V21.9286V21.9075V21.8865V21.8654V21.8444V21.8234V21.8023V21.7813V21.7603V21.7392V21.7182V21.6972V21.6762V21.6552V21.6342V21.6131V21.5921V21.5711V21.5501V21.5292V21.5082V21.4872V21.4662V21.4452V21.4242V21.4033V21.3823V21.3614V21.3404V21.3194V21.2985V21.2776V21.2566V21.2357V21.2148V21.1938V21.1729V21.152V21.1311V21.1102V21.0893V21.0684V21.0475V21.0267V21.0058V20.9849V20.964V20.9432V20.9223V20.9015V20.8807V20.8598V20.839V20.8182V20.7974V20.7766V20.7558V20.735V20.7142V20.6934V20.6727V20.6519V20.6311V20.6104V20.5896V20.5689V20.5482V20.5275V20.5068V20.4861V20.4654V20.4447V20.424V20.4033V20.3827V20.362V20.3414V20.3207V20.3001C35 17.7316 33.6673 16.3323 32.3348 15.6053C32.2369 15.5519 32.1693 15.5474 32.1262 15.5515C32.0786 15.5561 32.0181 15.5759 31.9503 15.6278C31.8075 15.7371 31.6666 15.9688 31.6666 16.2797V30.8501Z" fill="white"/>
</svg>
