<svg width="56" height="90" viewBox="0 0 56 90" fill="none" xmlns="http://www.w3.org/2000/svg">
  <path fill-rule="evenodd" clip-rule="evenodd" d="M56 27.1698C56 9.33963 42.8485 2.37147e-06 28.0001 1.55782e-06L28.0001 90L53.0303 38.6321C54.0202 36.3679 56 30.9057 56 27.1698ZM-1.51163e-06 27.1698C-5.19622e-07 9.33963 13.1515 3.82382e-06 27.9999 4.64994e-06L27.9999 90L2.96969 38.6321C1.97979 36.3679 -1.71948e-06 30.9057 -1.51163e-06 27.1698Z" fill="#277137"/>
  <path fill-rule="evenodd" clip-rule="evenodd" d="M32.5 18.0001H34.5C35.73 18.0001 36.7525 18.8884 36.9611 20.0584C37.1347 20.0202 37.315 20.0001 37.5 20.0001H38.5C39.8807 20.0001 41 21.1194 41 22.5001V24.0001H41.5C42.8807 24.0001 44 25.1194 44 26.5001V29.5001C44 30.8808 42.8807 32.0001 41.5 32.0001H41V34.5001C41 35.8808 39.8807 37.0001 38.5 37.0001H37.5C37.315 37.0001 37.1347 36.98 36.9611 36.9419C36.7525 38.1119 35.73 39.0001 34.5 39.0001H32.5C31.1193 39.0001 30 37.8808 30 36.5001V32.0001H26V36.5001C26 37.8808 24.8807 39.0001 23.5 39.0001H21.5C20.27 39.0001 19.2475 38.1119 19.0389 36.9419C18.8653 36.98 18.685 37.0001 18.5 37.0001H17.5C16.1193 37.0001 15 35.8808 15 34.5001V32.0001H14.5C13.1193 32.0001 12 30.8808 12 29.5001V26.5001C12 25.1194 13.1193 24.0001 14.5 24.0001H15V22.5001C15 21.1194 16.1193 20.0001 17.5 20.0001H18.5C18.685 20.0001 18.8653 20.0202 19.0389 20.0584C19.2475 18.8884 20.27 18.0001 21.5 18.0001H23.5C24.8807 18.0001 26 19.1194 26 20.5001V24.0001H30V20.5001C30 19.1194 31.1193 18.0001 32.5 18.0001ZM41 30.0001V29.5001V28.0855V28.0001V27.9148V26.5001V26.0001H41.5C41.7761 26.0001 42 26.224 42 26.5001V29.5001C42 29.7763 41.7761 30.0001 41.5 30.0001H41ZM39 32.0001V34.5001C39 34.7763 38.7761 35.0001 38.5 35.0001H37.5C37.2239 35.0001 37 34.7763 37 34.5001V22.5001C37 22.224 37.2239 22.0001 37.5 22.0001H38.5C38.7761 22.0001 39 22.224 39 22.5001V24.0001V26.0001V30.0001V32.0001ZM17 30.0001V32.0001V34.5001C17 34.7763 17.2239 35.0001 17.5 35.0001H18.5C18.7761 35.0001 19 34.7763 19 34.5001V22.5001C19 22.224 18.7761 22.0001 18.5 22.0001H17.5C17.2239 22.0001 17 22.224 17 22.5001V24.0001V26.0001V30.0001ZM14.5 30.0001H15V29.5001V28.0855V28.0001V27.9148V26.5001V26.0001H14.5C14.2239 26.0001 14 26.224 14 26.5001V29.5001C14 29.7763 14.2239 30.0001 14.5 30.0001ZM35 34.5001V36.5001C35 36.7763 34.7761 37.0001 34.5 37.0001H32.5C32.2239 37.0001 32 36.7763 32 36.5001V32.0001V30.0001V26.0001V24.0001V20.5001C32 20.224 32.2239 20.0001 32.5 20.0001H34.5C34.7761 20.0001 35 20.224 35 20.5001V22.5001V34.5001ZM21 22.5001V34.5001V36.5001C21 36.7763 21.2239 37.0001 21.5 37.0001H23.5C23.7761 37.0001 24 36.7763 24 36.5001V32.0001V30.0001V26.0001V24.0001V20.5001C24 20.224 23.7761 20.0001 23.5 20.0001H21.5C21.2239 20.0001 21 20.224 21 20.5001V22.5001ZM30 26.0001V28.0001V30.0001H28H26V28.0001V26.0001H28H30Z" fill="white"/>
</svg>
