<svg width="56" height="90" viewBox="0 0 56 90" fill="none" xmlns="http://www.w3.org/2000/svg">
  <path fill-rule="evenodd" clip-rule="evenodd" d="M56 27.1698C56 9.33963 42.8485 2.37147e-06 28.0001 1.55782e-06L28.0001 90L53.0303 38.6321C54.0202 36.3679 56 30.9057 56 27.1698ZM-1.51163e-06 27.1698C-5.19622e-07 9.33963 13.1515 3.82382e-06 27.9999 4.64994e-06L27.9999 90L2.96969 38.6321C1.97979 36.3679 -1.71948e-06 30.9057 -1.51163e-06 27.1698Z" fill="#277137"/>
  <path fill-rule="evenodd" clip-rule="evenodd" d="M12.012 13C11.4597 13 11.012 13.4477 11.012 14C11.012 14.5523 11.4597 15 12.012 15H14.6079L15.3158 17.4227L17.2442 24.0213L19.1725 30.6199L20.458 35.0189L20.6683 35.7384H21.4179H40.2485C40.8008 35.7384 41.2485 35.2907 41.2485 34.7384C41.2485 34.1861 40.8008 33.7384 40.2485 33.7384H22.1675L21.4664 31.3394H25.9632H34.4045H40.8978H41.7071L41.8758 30.5479L44.6896 17.3507L44.9473 16.1422H43.7116H35.4867H24.6645H17.0253L16.3173 13.7195L16.107 13H15.3575H12.012ZM24.86 29.3394H20.8819L19.5381 24.7408H24.4074L24.86 29.3394ZM24.2106 22.7408H18.9536L17.6098 18.1422H23.7581L24.2106 22.7408ZM26.2203 22.7408L25.7678 18.1422H34.4014L34.0243 22.7408H26.2203ZM36.031 22.7408L36.4081 18.1422H42.4759L41.4954 22.7408H36.031ZM35.867 24.7408H41.069L40.0885 29.3394H35.4899L35.867 24.7408ZM33.8602 24.7408L33.4831 29.3394H26.8696L26.4171 24.7408H33.8602ZM36.6481 38.528L36.6481 38.5279C36.9022 38.2667 37.2336 38.1209 37.5907 38.1209C37.9479 38.1209 38.2793 38.2667 38.5333 38.5279C38.7884 38.7902 38.952 39.1573 38.952 39.5773C38.952 39.9975 38.7884 40.3645 38.5334 40.6266C38.2793 40.8879 37.9478 41.0337 37.5907 41.0337C37.2335 41.0337 36.9021 40.8879 36.6481 40.6267C36.3931 40.3644 36.2295 39.9973 36.2295 39.5773C36.2295 39.1571 36.3931 38.7902 36.6481 38.528ZM24.0519 38.5291L24.053 38.5279C24.3071 38.2667 24.6386 38.1209 24.9957 38.1209C25.3528 38.1209 25.6843 38.2667 25.9383 38.5279L25.9383 38.5279C26.1933 38.7902 26.3569 39.1572 26.3569 39.5773C26.3569 39.9975 26.1933 40.3645 25.9383 40.6266L25.9383 40.6267C25.6842 40.8879 25.3528 41.0337 24.9957 41.0337C24.6385 41.0337 24.3071 40.8879 24.0531 40.6267L24.053 40.6267C23.798 40.3644 23.6344 39.9974 23.6344 39.5773C23.6344 39.1563 23.7986 38.7891 24.0519 38.5291ZM28.3569 39.5773C28.3569 40.5316 27.9808 41.3952 27.3721 42.021C26.7635 42.6469 25.9236 43.0337 24.9957 43.0337C24.0677 43.0337 23.2278 42.6469 22.6192 42.021C22.0106 41.3951 21.6344 40.5315 21.6344 39.5773C21.6344 38.623 22.0106 37.7584 22.6192 37.1336C23.2279 36.5077 24.0677 36.1209 24.9957 36.1209C25.9236 36.1209 26.7635 36.5077 27.3721 37.1336C27.9808 37.7595 28.3569 38.6231 28.3569 39.5773ZM35.2143 37.1336C35.8229 36.5077 36.6628 36.1209 37.5907 36.1209C38.5187 36.1209 39.3585 36.5077 39.9672 37.1336C40.5758 37.7595 40.952 38.6231 40.952 39.5773C40.952 40.5316 40.5758 41.3952 39.9672 42.021C39.3585 42.6469 38.5187 43.0337 37.5907 43.0337C36.6627 43.0337 35.8229 42.6469 35.2143 42.021C34.6057 41.3951 34.2295 40.5315 34.2295 39.5773C34.2295 38.623 34.6056 37.7594 35.2143 37.1336Z" fill="white"/>
</svg>
