<svg width="56" height="90" viewBox="0 0 56 90" fill="none" xmlns="http://www.w3.org/2000/svg">
  <path fill-rule="evenodd" clip-rule="evenodd" d="M56 27.1698C56 9.33963 42.8485 2.37147e-06 28.0001 1.55782e-06L28.0001 90L53.0303 38.6321C54.0202 36.3679 56 30.9057 56 27.1698ZM-1.51163e-06 27.1698C-5.19622e-07 9.33963 13.1515 3.82382e-06 27.9999 4.64994e-06L27.9999 90L2.96969 38.6321C1.97979 36.3679 -1.71948e-06 30.9057 -1.51163e-06 27.1698Z" fill="#277137"/>
  <path fill-rule="evenodd" clip-rule="evenodd" d="M28.4531 10.9999L28.7573 11.0957L43.1049 15.617L43.8044 15.8374V16.5708V23.6621C44.012 23.914 44.1654 24.2263 44.2326 24.5552C44.3283 25.0244 44.2514 25.516 43.978 25.9568L44.9132 28.0526L45 28.2471V28.4601C45 28.8195 44.8984 29.3332 44.5669 29.7846C44.1987 30.2859 43.6003 30.6322 42.8044 30.6322C42.0025 30.6322 41.3886 30.275 41.0502 29.7C40.7582 29.204 40.7394 28.6634 40.79 28.3159L40.801 28.2404L40.8233 28.1675C40.9615 27.7158 41.286 26.7387 41.6415 25.9118C41.3852 25.476 41.2908 25.0026 41.3894 24.5241C41.4607 24.1776 41.6209 23.8942 41.8044 23.6744V17.9193L39.0218 18.7636V24.9435V25.3493L38.7391 25.6403C37.4344 26.9834 33.6766 29.4601 28.4568 29.4601C23.2342 29.4601 19.5816 26.9805 18.3277 25.6217L18.0625 25.3344V24.9435V18.7407L14.154 17.5257L11.1399 16.5888L14.1436 15.6191L28.1496 11.0979L28.4531 10.9999ZM20.0625 19.3624V24.5277C21.2256 25.5951 24.2158 27.4601 28.4568 27.4601C32.6991 27.4601 35.7922 25.5938 37.0218 24.5137V19.3705L28.7472 21.8815L28.4533 21.9707L28.16 21.8795L20.0625 19.3624ZM36.3038 15.5708L28.4605 13.0991L17.7617 16.5528L19.3594 17.0494L28.4603 19.8785L36.0652 17.5708H28.4568V15.5708H36.3038ZM42.2805 24.8991C42.2805 24.8991 42.2802 24.8998 42.2794 24.9013C42.28 24.8998 42.2805 24.8991 42.2805 24.8991ZM42.8608 28.3612C42.8284 28.4595 42.799 28.5505 42.7734 28.6316C42.7827 28.632 42.793 28.6322 42.8044 28.6322C42.9029 28.6322 42.9402 28.6133 42.9433 28.6117L42.9434 28.6117C42.9463 28.6102 42.9485 28.6094 42.9549 28.6008C42.9572 28.5976 42.9598 28.5937 42.9625 28.589L42.8608 28.3612ZM15.7571 28.1913C16.4366 27.6302 17.1144 27.6275 17.3545 27.6275H17.6008L17.8189 27.7419C20.7714 29.2902 23.2135 30.4243 25.4186 31.3244C26.1708 31.6315 26.8962 31.9116 27.6056 32.1719C29.9309 33.025 32.0894 33.6665 34.4784 34.347C36.1884 34.6218 37.3179 35.6031 37.8293 36.9073C38.3248 38.1711 38.2006 39.6273 37.6847 40.8608C37.1669 42.099 36.2024 43.2371 34.859 43.7867C33.4766 44.3523 31.8424 44.2334 30.1593 43.2142C28.5104 42.2158 26.8754 41.3689 25.2575 40.6415C25.3303 40.7345 25.3992 40.8151 25.4681 40.8957C25.5022 40.9356 25.5362 40.9754 25.5707 41.0167C25.6021 41.0543 25.6421 41.1032 25.6799 41.155C25.7088 41.1947 25.7805 41.2945 25.8346 41.4263C25.8637 41.4971 26.0594 41.9792 25.7108 42.4439C25.4003 42.8579 24.9424 42.8566 24.8734 42.8564L24.8699 42.8564C24.6524 42.8564 24.4507 42.8015 24.3211 42.7598C24.1543 42.9115 23.9326 43.02 23.6748 43.0416C23.4133 43.0634 23.1998 42.9887 23.0633 42.9218L22.9831 42.8825L22.9111 42.8295C22.112 42.242 21.7208 41.3182 21.5234 40.5455C21.1433 40.8734 20.7481 41.1069 20.3784 41.2672C19.9526 41.4517 19.5526 41.5431 19.2375 41.5689C19.098 41.5803 18.9022 41.5855 18.7085 41.5409C18.6543 41.5284 18.5758 41.5066 18.4884 41.4667C18.4112 41.4315 18.259 41.3518 18.123 41.1908C17.9984 41.0434 17.8951 40.8322 17.8833 40.5832C17.8663 40.5778 17.8498 40.5725 17.8338 40.5673C17.7788 40.5493 17.7156 40.5277 17.656 40.5042C17.6549 40.5038 17.6535 40.5033 17.6519 40.5026C17.6189 40.4898 17.4789 40.4354 17.3486 40.3361C17.3067 40.3041 17.228 40.2396 17.1517 40.1391C17.0793 40.0437 16.9493 39.8367 16.9458 39.5404C16.9419 39.2063 17.0989 38.9518 17.2576 38.8003C17.3953 38.6689 17.5363 38.6089 17.6025 38.5839C17.737 38.5332 17.8546 38.5218 17.8928 38.5183C17.9485 38.5131 17.9993 38.5121 18.0377 38.5121C18.2262 38.5121 18.4926 38.434 18.8105 38.2701C17.0896 37.7602 15.3926 37.3417 13.7223 36.9719L13.2949 36.8773L13.0745 36.4991C12.1471 34.9079 11.9854 33.504 12.2938 32.3574C12.594 31.2414 13.3109 30.4823 13.9438 30.11L14.3631 29.8633L14.6245 29.9658C14.9098 29.1459 15.2955 28.5723 15.7571 28.1913ZM14.6287 32.1158C14.4696 32.2968 14.313 32.5501 14.2252 32.8769C14.0961 33.3568 14.0899 34.0935 14.6006 35.1189C16.6158 35.5744 18.6892 36.1091 20.8072 36.795C20.7849 35.2608 21.2086 34.0565 21.8815 33.1528C22.1205 32.8319 22.3851 32.5568 22.6618 32.3234C21 31.5862 19.1951 30.7153 17.1595 29.654C17.1202 29.6696 17.0779 29.6943 17.0304 29.7336C16.9173 29.827 16.7046 30.0658 16.5075 30.6393C18.235 31.2092 20.3439 32.0078 21.3065 32.3853L20.5763 34.2472C19.4404 33.8018 16.7509 32.7875 15.016 32.2642L14.9774 32.2525L14.9398 32.2378L14.6287 32.1158ZM18.3894 38.6436C18.3739 38.6374 18.3782 38.6381 18.3955 38.6459C18.3926 38.6448 18.3906 38.644 18.3894 38.6436ZM18.2681 39.7243C18.2679 39.7246 18.2676 39.7249 18.2674 39.7252C18.2731 39.7173 18.2743 39.7169 18.2681 39.7243ZM24.5138 38.1468C25.86 38.6967 27.2201 39.3211 28.5915 40.0372C28.5026 39.4392 28.5139 38.8806 28.5744 38.3859C28.6284 37.9451 28.7206 37.559 28.8085 37.2499C28.5845 37.1657 28.3246 37.0705 28.0451 36.9698C27.2084 36.6682 26.2235 36.3269 25.572 36.1047L26.1272 34.4765C25.7535 34.6551 25.3915 34.898 25.0995 35.2131C24.5832 35.7703 24.1829 36.6599 24.5138 38.1468ZM26.5165 34.3141C27.1552 34.5333 27.9927 34.825 28.7233 35.0883C29.1479 35.2413 29.5431 35.3872 29.8439 35.5047C29.993 35.563 30.1289 35.6181 30.2371 35.666C30.2901 35.6895 30.3485 35.7165 30.4033 35.7451C30.404 35.7455 30.4051 35.746 30.4064 35.7467C30.4326 35.7601 30.5717 35.8313 30.6941 35.9513C30.8969 36.1501 30.9644 36.3773 30.9883 36.508C31.0125 36.6399 31.0071 36.7507 31.0016 36.8129C30.9908 36.9361 30.962 37.0465 30.9457 37.1059C30.9214 37.1945 30.883 37.3132 30.8484 37.4202C30.836 37.4583 30.8242 37.4948 30.8136 37.5281C30.7193 37.8252 30.6126 38.1963 30.5596 38.6288C30.461 39.4342 30.543 40.4786 31.355 41.5967C32.5008 42.2407 33.4178 42.2154 34.1017 41.9356C34.8559 41.6271 35.482 40.9441 35.8396 40.0891C36.1991 39.2294 36.235 38.3203 35.9673 37.6374C35.7255 37.0208 35.2028 36.4891 34.1624 36.3218C34.133 36.3262 33.9737 36.3573 33.7157 36.6224C33.4434 36.9022 33.1877 37.3244 33.0382 37.7883C32.8871 38.2576 32.8743 38.6739 32.9635 38.9687C33.0354 39.2064 33.1842 39.4174 33.5366 39.5598C33.5386 39.5601 33.5403 39.5602 33.5416 39.5603C33.5428 39.5604 33.5438 39.5605 33.5447 39.5605C33.5459 39.5606 33.5468 39.5606 33.5475 39.5606L33.5491 39.5605C33.5489 39.5606 33.5489 39.5606 33.5491 39.5605C33.5491 39.5605 33.5492 39.5605 33.5492 39.5605C33.5496 39.5604 33.5519 39.5596 33.5563 39.5573C33.5769 39.5462 33.6328 39.504 33.6892 39.4027C33.7452 39.302 33.7739 39.1912 33.7775 39.1076C33.7783 39.0902 33.7779 39.077 33.7773 39.0674C33.4823 38.632 33.5751 38.0367 33.9982 37.7131C34.4368 37.3775 35.0644 37.4611 35.4 37.8997C35.7134 38.3095 35.7929 38.7958 35.7756 39.1944C35.7579 39.6027 35.6371 40.0152 35.4369 40.375C35.0413 41.0861 34.1627 41.8139 32.9696 41.4797L32.9314 41.4691L32.8943 41.4554C31.9148 41.0953 31.305 40.3934 31.0492 39.5479C30.8074 38.749 30.9014 37.8989 31.1345 37.1751C31.3065 36.6414 31.5701 36.1245 31.8979 35.6816C30.3201 35.2138 28.7786 34.725 27.1596 34.1381C26.9561 34.1763 26.7378 34.2345 26.5165 34.3141ZM29.0207 36.5622C29.0207 36.5625 29.0203 36.5641 29.0195 36.5674C29.0203 36.5638 29.0207 36.562 29.0207 36.5622ZM33.7754 39.0513C33.7746 39.0489 33.7744 39.0476 33.7745 39.0476C33.7746 39.0476 33.7749 39.0488 33.7754 39.0513Z" fill="white"/>
</svg>
